<?xml version="1.0" encoding="utf-8"?>
<svg xmlns="http://www.w3.org/2000/svg" xmlns:xlink="http://www.w3.org/1999/xlink" width="600" height="400" viewBox="0 0 2400 1600">
<defs>
  <clipPath id="clip0500">
    <rect x="0" y="0" width="2400" height="1600"/>
  </clipPath>
</defs>
<polygon clip-path="url(#clip0500)" points="
0,1600 2400,1600 2400,0 0,0 
  " fill="#ffffff" fill-rule="evenodd" fill-opacity="1"/>
<defs>
  <clipPath id="clip0501">
    <rect x="480" y="0" width="1681" height="1600"/>
  </clipPath>
</defs>
<polygon clip-path="url(#clip0500)" points="
180.66,1425.62 2352.76,1425.62 2352.76,47.2441 180.66,47.2441 
  " fill="#ffffff" fill-rule="evenodd" fill-opacity="1"/>
<defs>
  <clipPath id="clip0502">
    <rect x="180" y="47" width="2173" height="1379"/>
  </clipPath>
</defs>
<polyline clip-path="url(#clip0502)" style="stroke:#000000; stroke-width:2; stroke-opacity:0.1; fill:none" points="
  242.135,1425.62 242.135,47.2441 
  "/>
<polyline clip-path="url(#clip0502)" style="stroke:#000000; stroke-width:2; stroke-opacity:0.1; fill:none" points="
  651.964,1425.62 651.964,47.2441 
  "/>
<polyline clip-path="url(#clip0502)" style="stroke:#000000; stroke-width:2; stroke-opacity:0.1; fill:none" points="
  1061.79,1425.62 1061.79,47.2441 
  "/>
<polyline clip-path="url(#clip0502)" style="stroke:#000000; stroke-width:2; stroke-opacity:0.1; fill:none" points="
  1471.62,1425.62 1471.62,47.2441 
  "/>
<polyline clip-path="url(#clip0502)" style="stroke:#000000; stroke-width:2; stroke-opacity:0.1; fill:none" points="
  1881.45,1425.62 1881.45,47.2441 
  "/>
<polyline clip-path="url(#clip0502)" style="stroke:#000000; stroke-width:2; stroke-opacity:0.1; fill:none" points="
  2291.28,1425.62 2291.28,47.2441 
  "/>
<polyline clip-path="url(#clip0502)" style="stroke:#000000; stroke-width:2; stroke-opacity:0.1; fill:none" points="
  180.66,1206.42 2352.76,1206.42 
  "/>
<polyline clip-path="url(#clip0502)" style="stroke:#000000; stroke-width:2; stroke-opacity:0.1; fill:none" points="
  180.66,935.812 2352.76,935.812 
  "/>
<polyline clip-path="url(#clip0502)" style="stroke:#000000; stroke-width:2; stroke-opacity:0.1; fill:none" points="
  180.66,665.203 2352.76,665.203 
  "/>
<polyline clip-path="url(#clip0502)" style="stroke:#000000; stroke-width:2; stroke-opacity:0.1; fill:none" points="
  180.66,394.594 2352.76,394.594 
  "/>
<polyline clip-path="url(#clip0502)" style="stroke:#000000; stroke-width:2; stroke-opacity:0.1; fill:none" points="
  180.66,123.984 2352.76,123.984 
  "/>
<polyline clip-path="url(#clip0500)" style="stroke:#000000; stroke-width:4; stroke-opacity:1; fill:none" points="
  180.66,1425.62 2352.76,1425.62 
  "/>
<polyline clip-path="url(#clip0500)" style="stroke:#000000; stroke-width:4; stroke-opacity:1; fill:none" points="
  180.66,1425.62 180.66,47.2441 
  "/>
<polyline clip-path="url(#clip0500)" style="stroke:#000000; stroke-width:4; stroke-opacity:1; fill:none" points="
  242.135,1425.62 242.135,1404.94 
  "/>
<polyline clip-path="url(#clip0500)" style="stroke:#000000; stroke-width:4; stroke-opacity:1; fill:none" points="
  651.964,1425.62 651.964,1404.94 
  "/>
<polyline clip-path="url(#clip0500)" style="stroke:#000000; stroke-width:4; stroke-opacity:1; fill:none" points="
  1061.79,1425.62 1061.79,1404.94 
  "/>
<polyline clip-path="url(#clip0500)" style="stroke:#000000; stroke-width:4; stroke-opacity:1; fill:none" points="
  1471.62,1425.62 1471.62,1404.94 
  "/>
<polyline clip-path="url(#clip0500)" style="stroke:#000000; stroke-width:4; stroke-opacity:1; fill:none" points="
  1881.45,1425.62 1881.45,1404.94 
  "/>
<polyline clip-path="url(#clip0500)" style="stroke:#000000; stroke-width:4; stroke-opacity:1; fill:none" points="
  2291.28,1425.62 2291.28,1404.94 
  "/>
<polyline clip-path="url(#clip0500)" style="stroke:#000000; stroke-width:4; stroke-opacity:1; fill:none" points="
  180.66,1206.42 213.242,1206.42 
  "/>
<polyline clip-path="url(#clip0500)" style="stroke:#000000; stroke-width:4; stroke-opacity:1; fill:none" points="
  180.66,935.812 213.242,935.812 
  "/>
<polyline clip-path="url(#clip0500)" style="stroke:#000000; stroke-width:4; stroke-opacity:1; fill:none" points="
  180.66,665.203 213.242,665.203 
  "/>
<polyline clip-path="url(#clip0500)" style="stroke:#000000; stroke-width:4; stroke-opacity:1; fill:none" points="
  180.66,394.594 213.242,394.594 
  "/>
<polyline clip-path="url(#clip0500)" style="stroke:#000000; stroke-width:4; stroke-opacity:1; fill:none" points="
  180.66,123.984 213.242,123.984 
  "/>
<g clip-path="url(#clip0500)">
<text style="fill:#000000; fill-opacity:1; font-family:Arial,Helvetica Neue,Helvetica,sans-serif; font-size:48px; text-anchor:middle;" transform="rotate(0, 242.135, 1479.62)" x="242.135" y="1479.62">-3.0</text>
</g>
<g clip-path="url(#clip0500)">
<text style="fill:#000000; fill-opacity:1; font-family:Arial,Helvetica Neue,Helvetica,sans-serif; font-size:48px; text-anchor:middle;" transform="rotate(0, 651.964, 1479.62)" x="651.964" y="1479.62">-2.5</text>
</g>
<g clip-path="url(#clip0500)">
<text style="fill:#000000; fill-opacity:1; font-family:Arial,Helvetica Neue,Helvetica,sans-serif; font-size:48px; text-anchor:middle;" transform="rotate(0, 1061.79, 1479.62)" x="1061.79" y="1479.62">-2.0</text>
</g>
<g clip-path="url(#clip0500)">
<text style="fill:#000000; fill-opacity:1; font-family:Arial,Helvetica Neue,Helvetica,sans-serif; font-size:48px; text-anchor:middle;" transform="rotate(0, 1471.62, 1479.62)" x="1471.62" y="1479.62">-1.5</text>
</g>
<g clip-path="url(#clip0500)">
<text style="fill:#000000; fill-opacity:1; font-family:Arial,Helvetica Neue,Helvetica,sans-serif; font-size:48px; text-anchor:middle;" transform="rotate(0, 1881.45, 1479.62)" x="1881.45" y="1479.62">-1.0</text>
</g>
<g clip-path="url(#clip0500)">
<text style="fill:#000000; fill-opacity:1; font-family:Arial,Helvetica Neue,Helvetica,sans-serif; font-size:48px; text-anchor:middle;" transform="rotate(0, 2291.28, 1479.62)" x="2291.28" y="1479.62">-0.5</text>
</g>
<g clip-path="url(#clip0500)">
<text style="fill:#000000; fill-opacity:1; font-family:Arial,Helvetica Neue,Helvetica,sans-serif; font-size:48px; text-anchor:end;" transform="rotate(0, 156.66, 1223.92)" x="156.66" y="1223.92">1.02</text>
</g>
<g clip-path="url(#clip0500)">
<text style="fill:#000000; fill-opacity:1; font-family:Arial,Helvetica Neue,Helvetica,sans-serif; font-size:48px; text-anchor:end;" transform="rotate(0, 156.66, 953.312)" x="156.66" y="953.312">1.05</text>
</g>
<g clip-path="url(#clip0500)">
<text style="fill:#000000; fill-opacity:1; font-family:Arial,Helvetica Neue,Helvetica,sans-serif; font-size:48px; text-anchor:end;" transform="rotate(0, 156.66, 682.703)" x="156.66" y="682.703">1.08</text>
</g>
<g clip-path="url(#clip0500)">
<text style="fill:#000000; fill-opacity:1; font-family:Arial,Helvetica Neue,Helvetica,sans-serif; font-size:48px; text-anchor:end;" transform="rotate(0, 156.66, 412.094)" x="156.66" y="412.094">1.11</text>
</g>
<g clip-path="url(#clip0500)">
<text style="fill:#000000; fill-opacity:1; font-family:Arial,Helvetica Neue,Helvetica,sans-serif; font-size:48px; text-anchor:end;" transform="rotate(0, 156.66, 141.484)" x="156.66" y="141.484">1.14</text>
</g>
<g clip-path="url(#clip0500)">
<text style="fill:#000000; fill-opacity:1; font-family:Arial,Helvetica Neue,Helvetica,sans-serif; font-size:66px; text-anchor:middle;" transform="rotate(0, 1266.71, 1559.48)" x="1266.71" y="1559.48">log-10 prior precision (k)</text>
</g>
<polyline clip-path="url(#clip0502)" style="stroke:#009af9; stroke-width:4; stroke-opacity:1; fill:none" points="
  242.135,1386.61 651.964,1384.72 1061.79,1368.29 1471.62,1257.2 1881.45,824.468 2291.28,86.2547 
  "/>
</svg>
