<?xml version="1.0" encoding="utf-8"?>
<svg xmlns="http://www.w3.org/2000/svg" xmlns:xlink="http://www.w3.org/1999/xlink" width="600" height="400" viewBox="0 0 2400 1600">
<defs>
  <clipPath id="clip9700">
    <rect x="0" y="0" width="2400" height="1600"/>
  </clipPath>
</defs>
<polygon clip-path="url(#clip9700)" points="
0,1600 2400,1600 2400,0 0,0 
  " fill="#ffffff" fill-rule="evenodd" fill-opacity="1"/>
<defs>
  <clipPath id="clip9701">
    <rect x="480" y="0" width="1681" height="1600"/>
  </clipPath>
</defs>
<polygon clip-path="url(#clip9700)" points="
182.008,1425.62 2352.76,1425.62 2352.76,47.2441 182.008,47.2441 
  " fill="#ffffff" fill-rule="evenodd" fill-opacity="1"/>
<defs>
  <clipPath id="clip9702">
    <rect x="182" y="47" width="2172" height="1379"/>
  </clipPath>
</defs>
<polyline clip-path="url(#clip9702)" style="stroke:#000000; stroke-width:2; stroke-opacity:0.1; fill:none" points="
  243.444,1425.62 243.444,47.2441 
  "/>
<polyline clip-path="url(#clip9702)" style="stroke:#000000; stroke-width:2; stroke-opacity:0.1; fill:none" points="
  653.019,1425.62 653.019,47.2441 
  "/>
<polyline clip-path="url(#clip9702)" style="stroke:#000000; stroke-width:2; stroke-opacity:0.1; fill:none" points="
  1062.59,1425.62 1062.59,47.2441 
  "/>
<polyline clip-path="url(#clip9702)" style="stroke:#000000; stroke-width:2; stroke-opacity:0.1; fill:none" points="
  1472.17,1425.62 1472.17,47.2441 
  "/>
<polyline clip-path="url(#clip9702)" style="stroke:#000000; stroke-width:2; stroke-opacity:0.1; fill:none" points="
  1881.74,1425.62 1881.74,47.2441 
  "/>
<polyline clip-path="url(#clip9702)" style="stroke:#000000; stroke-width:2; stroke-opacity:0.1; fill:none" points="
  2291.32,1425.62 2291.32,47.2441 
  "/>
<polyline clip-path="url(#clip9702)" style="stroke:#000000; stroke-width:2; stroke-opacity:0.1; fill:none" points="
  182.008,1268.01 2352.76,1268.01 
  "/>
<polyline clip-path="url(#clip9702)" style="stroke:#000000; stroke-width:2; stroke-opacity:0.1; fill:none" points="
  182.008,871.727 2352.76,871.727 
  "/>
<polyline clip-path="url(#clip9702)" style="stroke:#000000; stroke-width:2; stroke-opacity:0.1; fill:none" points="
  182.008,475.438 2352.76,475.438 
  "/>
<polyline clip-path="url(#clip9702)" style="stroke:#000000; stroke-width:2; stroke-opacity:0.1; fill:none" points="
  182.008,79.1504 2352.76,79.1504 
  "/>
<polyline clip-path="url(#clip9700)" style="stroke:#000000; stroke-width:4; stroke-opacity:1; fill:none" points="
  182.008,1425.62 2352.76,1425.62 
  "/>
<polyline clip-path="url(#clip9700)" style="stroke:#000000; stroke-width:4; stroke-opacity:1; fill:none" points="
  182.008,1425.62 182.008,47.2441 
  "/>
<polyline clip-path="url(#clip9700)" style="stroke:#000000; stroke-width:4; stroke-opacity:1; fill:none" points="
  243.444,1425.62 243.444,1404.94 
  "/>
<polyline clip-path="url(#clip9700)" style="stroke:#000000; stroke-width:4; stroke-opacity:1; fill:none" points="
  653.019,1425.62 653.019,1404.94 
  "/>
<polyline clip-path="url(#clip9700)" style="stroke:#000000; stroke-width:4; stroke-opacity:1; fill:none" points="
  1062.59,1425.62 1062.59,1404.94 
  "/>
<polyline clip-path="url(#clip9700)" style="stroke:#000000; stroke-width:4; stroke-opacity:1; fill:none" points="
  1472.17,1425.62 1472.17,1404.94 
  "/>
<polyline clip-path="url(#clip9700)" style="stroke:#000000; stroke-width:4; stroke-opacity:1; fill:none" points="
  1881.74,1425.62 1881.74,1404.94 
  "/>
<polyline clip-path="url(#clip9700)" style="stroke:#000000; stroke-width:4; stroke-opacity:1; fill:none" points="
  2291.32,1425.62 2291.32,1404.94 
  "/>
<polyline clip-path="url(#clip9700)" style="stroke:#000000; stroke-width:4; stroke-opacity:1; fill:none" points="
  182.008,1268.01 214.569,1268.01 
  "/>
<polyline clip-path="url(#clip9700)" style="stroke:#000000; stroke-width:4; stroke-opacity:1; fill:none" points="
  182.008,871.727 214.569,871.727 
  "/>
<polyline clip-path="url(#clip9700)" style="stroke:#000000; stroke-width:4; stroke-opacity:1; fill:none" points="
  182.008,475.438 214.569,475.438 
  "/>
<polyline clip-path="url(#clip9700)" style="stroke:#000000; stroke-width:4; stroke-opacity:1; fill:none" points="
  182.008,79.1504 214.569,79.1504 
  "/>
<g clip-path="url(#clip9700)">
<text style="fill:#000000; fill-opacity:1; font-family:Arial,Helvetica Neue,Helvetica,sans-serif; font-size:48px; text-anchor:middle;" transform="rotate(0, 243.444, 1479.62)" x="243.444" y="1479.62">-3.0</text>
</g>
<g clip-path="url(#clip9700)">
<text style="fill:#000000; fill-opacity:1; font-family:Arial,Helvetica Neue,Helvetica,sans-serif; font-size:48px; text-anchor:middle;" transform="rotate(0, 653.019, 1479.62)" x="653.019" y="1479.62">-2.5</text>
</g>
<g clip-path="url(#clip9700)">
<text style="fill:#000000; fill-opacity:1; font-family:Arial,Helvetica Neue,Helvetica,sans-serif; font-size:48px; text-anchor:middle;" transform="rotate(0, 1062.59, 1479.62)" x="1062.59" y="1479.62">-2.0</text>
</g>
<g clip-path="url(#clip9700)">
<text style="fill:#000000; fill-opacity:1; font-family:Arial,Helvetica Neue,Helvetica,sans-serif; font-size:48px; text-anchor:middle;" transform="rotate(0, 1472.17, 1479.62)" x="1472.17" y="1479.62">-1.5</text>
</g>
<g clip-path="url(#clip9700)">
<text style="fill:#000000; fill-opacity:1; font-family:Arial,Helvetica Neue,Helvetica,sans-serif; font-size:48px; text-anchor:middle;" transform="rotate(0, 1881.74, 1479.62)" x="1881.74" y="1479.62">-1.0</text>
</g>
<g clip-path="url(#clip9700)">
<text style="fill:#000000; fill-opacity:1; font-family:Arial,Helvetica Neue,Helvetica,sans-serif; font-size:48px; text-anchor:middle;" transform="rotate(0, 2291.32, 1479.62)" x="2291.32" y="1479.62">-0.5</text>
</g>
<g clip-path="url(#clip9700)">
<text style="fill:#000000; fill-opacity:1; font-family:Arial,Helvetica Neue,Helvetica,sans-serif; font-size:48px; text-anchor:end;" transform="rotate(0, 158.008, 1285.51)" x="158.008" y="1285.51">-0.5</text>
</g>
<g clip-path="url(#clip9700)">
<text style="fill:#000000; fill-opacity:1; font-family:Arial,Helvetica Neue,Helvetica,sans-serif; font-size:48px; text-anchor:end;" transform="rotate(0, 158.008, 889.227)" x="158.008" y="889.227">0.0</text>
</g>
<g clip-path="url(#clip9700)">
<text style="fill:#000000; fill-opacity:1; font-family:Arial,Helvetica Neue,Helvetica,sans-serif; font-size:48px; text-anchor:end;" transform="rotate(0, 158.008, 492.938)" x="158.008" y="492.938">0.5</text>
</g>
<g clip-path="url(#clip9700)">
<text style="fill:#000000; fill-opacity:1; font-family:Arial,Helvetica Neue,Helvetica,sans-serif; font-size:48px; text-anchor:end;" transform="rotate(0, 158.008, 96.6504)" x="158.008" y="96.6504">1.0</text>
</g>
<g clip-path="url(#clip9700)">
<text style="fill:#000000; fill-opacity:1; font-family:Arial,Helvetica Neue,Helvetica,sans-serif; font-size:66px; text-anchor:middle;" transform="rotate(0, 1267.38, 1559.48)" x="1267.38" y="1559.48">log-10 prior precision (k)</text>
</g>
<polyline clip-path="url(#clip9702)" style="stroke:#009af9; stroke-width:4; stroke-opacity:1; fill:none" points="
  243.444,86.566 653.019,102.11 1062.59,147.256 1472.17,259.226 1881.74,454.226 2291.32,649.557 
  "/>
<polyline clip-path="url(#clip9702)" style="stroke:#e26f46; stroke-width:4; stroke-opacity:1; fill:none" points="
  243.444,86.2547 653.019,101.147 1062.59,144.398 1472.17,251.667 1881.74,438.483 2291.32,625.622 
  "/>
<polyline clip-path="url(#clip9702)" style="stroke:#3da44d; stroke-width:4; stroke-opacity:1; fill:none" points="
  243.444,86.6377 653.019,102.332 1062.59,147.915 1472.17,260.966 1881.74,457.845 2291.32,655.037 
  "/>
<polyline clip-path="url(#clip9702)" style="stroke:#c271d2; stroke-width:4; stroke-opacity:1; fill:none" points="
  243.444,87.2757 653.019,104.308 1062.59,153.774 1472.17,276.452 1881.74,490.072 2291.32,703.909 
  "/>
<polyline clip-path="url(#clip9702)" style="stroke:#ac8d18; stroke-width:4; stroke-opacity:1; fill:none" points="
  243.444,96.1834 653.019,131.887 1062.59,235.576 1472.17,492.687 1881.74,940.107 2291.32,1386.61 
  "/>
<polygon clip-path="url(#clip9700)" points="
1907.09,493.644 2280.76,493.644 2280.76,130.764 1907.09,130.764 
  " fill="#ffffff" fill-rule="evenodd" fill-opacity="1"/>
<polyline clip-path="url(#clip9700)" style="stroke:#000000; stroke-width:4; stroke-opacity:1; fill:none" points="
  1907.09,493.644 2280.76,493.644 2280.76,130.764 1907.09,130.764 1907.09,493.644 
  "/>
<polyline clip-path="url(#clip9700)" style="stroke:#009af9; stroke-width:4; stroke-opacity:1; fill:none" points="
  1931.09,191.244 2075.09,191.244 
  "/>
<g clip-path="url(#clip9700)">
<text style="fill:#000000; fill-opacity:1; font-family:Arial,Helvetica Neue,Helvetica,sans-serif; font-size:48px; text-anchor:start;" transform="rotate(0, 2099.09, 208.744)" x="2099.09" y="208.744">logQ</text>
</g>
<polyline clip-path="url(#clip9700)" style="stroke:#e26f46; stroke-width:4; stroke-opacity:1; fill:none" points="
  1931.09,251.724 2075.09,251.724 
  "/>
<g clip-path="url(#clip9700)">
<text style="fill:#000000; fill-opacity:1; font-family:Arial,Helvetica Neue,Helvetica,sans-serif; font-size:48px; text-anchor:start;" transform="rotate(0, 2099.09, 269.224)" x="2099.09" y="269.224">MON</text>
</g>
<polyline clip-path="url(#clip9700)" style="stroke:#3da44d; stroke-width:4; stroke-opacity:1; fill:none" points="
  1931.09,312.204 2075.09,312.204 
  "/>
<g clip-path="url(#clip9700)">
<text style="fill:#000000; fill-opacity:1; font-family:Arial,Helvetica Neue,Helvetica,sans-serif; font-size:48px; text-anchor:start;" transform="rotate(0, 2099.09, 329.704)" x="2099.09" y="329.704">TUE</text>
</g>
<polyline clip-path="url(#clip9700)" style="stroke:#c271d2; stroke-width:4; stroke-opacity:1; fill:none" points="
  1931.09,372.684 2075.09,372.684 
  "/>
<g clip-path="url(#clip9700)">
<text style="fill:#000000; fill-opacity:1; font-family:Arial,Helvetica Neue,Helvetica,sans-serif; font-size:48px; text-anchor:start;" transform="rotate(0, 2099.09, 390.184)" x="2099.09" y="390.184">WED</text>
</g>
<polyline clip-path="url(#clip9700)" style="stroke:#ac8d18; stroke-width:4; stroke-opacity:1; fill:none" points="
  1931.09,433.164 2075.09,433.164 
  "/>
<g clip-path="url(#clip9700)">
<text style="fill:#000000; fill-opacity:1; font-family:Arial,Helvetica Neue,Helvetica,sans-serif; font-size:48px; text-anchor:start;" transform="rotate(0, 2099.09, 450.664)" x="2099.09" y="450.664">THUR</text>
</g>
</svg>
