<?xml version="1.0" encoding="utf-8"?>
<svg xmlns="http://www.w3.org/2000/svg" xmlns:xlink="http://www.w3.org/1999/xlink" width="600" height="400" viewBox="0 0 2400 1600">
<defs>
  <clipPath id="clip6000">
    <rect x="0" y="0" width="2400" height="1600"/>
  </clipPath>
</defs>
<polygon clip-path="url(#clip6000)" points="
0,1600 2400,1600 2400,0 0,0 
  " fill="#ffffff" fill-rule="evenodd" fill-opacity="1"/>
<defs>
  <clipPath id="clip6001">
    <rect x="480" y="0" width="1681" height="1600"/>
  </clipPath>
</defs>
<polygon clip-path="url(#clip6000)" points="
180.66,1425.62 2352.76,1425.62 2352.76,47.2441 180.66,47.2441 
  " fill="#ffffff" fill-rule="evenodd" fill-opacity="1"/>
<defs>
  <clipPath id="clip6002">
    <rect x="180" y="47" width="2173" height="1379"/>
  </clipPath>
</defs>
<polyline clip-path="url(#clip6002)" style="stroke:#000000; stroke-width:2; stroke-opacity:0.1; fill:none" points="
  242.135,1425.62 242.135,47.2441 
  "/>
<polyline clip-path="url(#clip6002)" style="stroke:#000000; stroke-width:2; stroke-opacity:0.1; fill:none" points="
  651.964,1425.62 651.964,47.2441 
  "/>
<polyline clip-path="url(#clip6002)" style="stroke:#000000; stroke-width:2; stroke-opacity:0.1; fill:none" points="
  1061.79,1425.62 1061.79,47.2441 
  "/>
<polyline clip-path="url(#clip6002)" style="stroke:#000000; stroke-width:2; stroke-opacity:0.1; fill:none" points="
  1471.62,1425.62 1471.62,47.2441 
  "/>
<polyline clip-path="url(#clip6002)" style="stroke:#000000; stroke-width:2; stroke-opacity:0.1; fill:none" points="
  1881.45,1425.62 1881.45,47.2441 
  "/>
<polyline clip-path="url(#clip6002)" style="stroke:#000000; stroke-width:2; stroke-opacity:0.1; fill:none" points="
  2291.28,1425.62 2291.28,47.2441 
  "/>
<polyline clip-path="url(#clip6002)" style="stroke:#000000; stroke-width:2; stroke-opacity:0.1; fill:none" points="
  180.66,1365.81 2352.76,1365.81 
  "/>
<polyline clip-path="url(#clip6002)" style="stroke:#000000; stroke-width:2; stroke-opacity:0.1; fill:none" points="
  180.66,1175.76 2352.76,1175.76 
  "/>
<polyline clip-path="url(#clip6002)" style="stroke:#000000; stroke-width:2; stroke-opacity:0.1; fill:none" points="
  180.66,985.707 2352.76,985.707 
  "/>
<polyline clip-path="url(#clip6002)" style="stroke:#000000; stroke-width:2; stroke-opacity:0.1; fill:none" points="
  180.66,795.656 2352.76,795.656 
  "/>
<polyline clip-path="url(#clip6002)" style="stroke:#000000; stroke-width:2; stroke-opacity:0.1; fill:none" points="
  180.66,605.604 2352.76,605.604 
  "/>
<polyline clip-path="url(#clip6002)" style="stroke:#000000; stroke-width:2; stroke-opacity:0.1; fill:none" points="
  180.66,415.553 2352.76,415.553 
  "/>
<polyline clip-path="url(#clip6002)" style="stroke:#000000; stroke-width:2; stroke-opacity:0.1; fill:none" points="
  180.66,225.502 2352.76,225.502 
  "/>
<polyline clip-path="url(#clip6000)" style="stroke:#000000; stroke-width:4; stroke-opacity:1; fill:none" points="
  180.66,1425.62 2352.76,1425.62 
  "/>
<polyline clip-path="url(#clip6000)" style="stroke:#000000; stroke-width:4; stroke-opacity:1; fill:none" points="
  180.66,1425.62 180.66,47.2441 
  "/>
<polyline clip-path="url(#clip6000)" style="stroke:#000000; stroke-width:4; stroke-opacity:1; fill:none" points="
  242.135,1425.62 242.135,1404.94 
  "/>
<polyline clip-path="url(#clip6000)" style="stroke:#000000; stroke-width:4; stroke-opacity:1; fill:none" points="
  651.964,1425.62 651.964,1404.94 
  "/>
<polyline clip-path="url(#clip6000)" style="stroke:#000000; stroke-width:4; stroke-opacity:1; fill:none" points="
  1061.79,1425.62 1061.79,1404.94 
  "/>
<polyline clip-path="url(#clip6000)" style="stroke:#000000; stroke-width:4; stroke-opacity:1; fill:none" points="
  1471.62,1425.62 1471.62,1404.94 
  "/>
<polyline clip-path="url(#clip6000)" style="stroke:#000000; stroke-width:4; stroke-opacity:1; fill:none" points="
  1881.45,1425.62 1881.45,1404.94 
  "/>
<polyline clip-path="url(#clip6000)" style="stroke:#000000; stroke-width:4; stroke-opacity:1; fill:none" points="
  2291.28,1425.62 2291.28,1404.94 
  "/>
<polyline clip-path="url(#clip6000)" style="stroke:#000000; stroke-width:4; stroke-opacity:1; fill:none" points="
  180.66,1365.81 213.242,1365.81 
  "/>
<polyline clip-path="url(#clip6000)" style="stroke:#000000; stroke-width:4; stroke-opacity:1; fill:none" points="
  180.66,1175.76 213.242,1175.76 
  "/>
<polyline clip-path="url(#clip6000)" style="stroke:#000000; stroke-width:4; stroke-opacity:1; fill:none" points="
  180.66,985.707 213.242,985.707 
  "/>
<polyline clip-path="url(#clip6000)" style="stroke:#000000; stroke-width:4; stroke-opacity:1; fill:none" points="
  180.66,795.656 213.242,795.656 
  "/>
<polyline clip-path="url(#clip6000)" style="stroke:#000000; stroke-width:4; stroke-opacity:1; fill:none" points="
  180.66,605.604 213.242,605.604 
  "/>
<polyline clip-path="url(#clip6000)" style="stroke:#000000; stroke-width:4; stroke-opacity:1; fill:none" points="
  180.66,415.553 213.242,415.553 
  "/>
<polyline clip-path="url(#clip6000)" style="stroke:#000000; stroke-width:4; stroke-opacity:1; fill:none" points="
  180.66,225.502 213.242,225.502 
  "/>
<g clip-path="url(#clip6000)">
<text style="fill:#000000; fill-opacity:1; font-family:Arial,Helvetica Neue,Helvetica,sans-serif; font-size:48px; text-anchor:middle;" transform="rotate(0, 242.135, 1479.62)" x="242.135" y="1479.62">1</text>
</g>
<g clip-path="url(#clip6000)">
<text style="fill:#000000; fill-opacity:1; font-family:Arial,Helvetica Neue,Helvetica,sans-serif; font-size:48px; text-anchor:middle;" transform="rotate(0, 651.964, 1479.62)" x="651.964" y="1479.62">2</text>
</g>
<g clip-path="url(#clip6000)">
<text style="fill:#000000; fill-opacity:1; font-family:Arial,Helvetica Neue,Helvetica,sans-serif; font-size:48px; text-anchor:middle;" transform="rotate(0, 1061.79, 1479.62)" x="1061.79" y="1479.62">3</text>
</g>
<g clip-path="url(#clip6000)">
<text style="fill:#000000; fill-opacity:1; font-family:Arial,Helvetica Neue,Helvetica,sans-serif; font-size:48px; text-anchor:middle;" transform="rotate(0, 1471.62, 1479.62)" x="1471.62" y="1479.62">4</text>
</g>
<g clip-path="url(#clip6000)">
<text style="fill:#000000; fill-opacity:1; font-family:Arial,Helvetica Neue,Helvetica,sans-serif; font-size:48px; text-anchor:middle;" transform="rotate(0, 1881.45, 1479.62)" x="1881.45" y="1479.62">5</text>
</g>
<g clip-path="url(#clip6000)">
<text style="fill:#000000; fill-opacity:1; font-family:Arial,Helvetica Neue,Helvetica,sans-serif; font-size:48px; text-anchor:middle;" transform="rotate(0, 2291.28, 1479.62)" x="2291.28" y="1479.62">6</text>
</g>
<g clip-path="url(#clip6000)">
<text style="fill:#000000; fill-opacity:1; font-family:Arial,Helvetica Neue,Helvetica,sans-serif; font-size:48px; text-anchor:end;" transform="rotate(0, 156.66, 1383.31)" x="156.66" y="1383.31">0.04</text>
</g>
<g clip-path="url(#clip6000)">
<text style="fill:#000000; fill-opacity:1; font-family:Arial,Helvetica Neue,Helvetica,sans-serif; font-size:48px; text-anchor:end;" transform="rotate(0, 156.66, 1193.26)" x="156.66" y="1193.26">0.05</text>
</g>
<g clip-path="url(#clip6000)">
<text style="fill:#000000; fill-opacity:1; font-family:Arial,Helvetica Neue,Helvetica,sans-serif; font-size:48px; text-anchor:end;" transform="rotate(0, 156.66, 1003.21)" x="156.66" y="1003.21">0.06</text>
</g>
<g clip-path="url(#clip6000)">
<text style="fill:#000000; fill-opacity:1; font-family:Arial,Helvetica Neue,Helvetica,sans-serif; font-size:48px; text-anchor:end;" transform="rotate(0, 156.66, 813.156)" x="156.66" y="813.156">0.07</text>
</g>
<g clip-path="url(#clip6000)">
<text style="fill:#000000; fill-opacity:1; font-family:Arial,Helvetica Neue,Helvetica,sans-serif; font-size:48px; text-anchor:end;" transform="rotate(0, 156.66, 623.104)" x="156.66" y="623.104">0.08</text>
</g>
<g clip-path="url(#clip6000)">
<text style="fill:#000000; fill-opacity:1; font-family:Arial,Helvetica Neue,Helvetica,sans-serif; font-size:48px; text-anchor:end;" transform="rotate(0, 156.66, 433.053)" x="156.66" y="433.053">0.09</text>
</g>
<g clip-path="url(#clip6000)">
<text style="fill:#000000; fill-opacity:1; font-family:Arial,Helvetica Neue,Helvetica,sans-serif; font-size:48px; text-anchor:end;" transform="rotate(0, 156.66, 243.002)" x="156.66" y="243.002">0.10</text>
</g>
<g clip-path="url(#clip6000)">
<text style="fill:#000000; fill-opacity:1; font-family:Arial,Helvetica Neue,Helvetica,sans-serif; font-size:66px; text-anchor:middle;" transform="rotate(0, 1266.71, 1559.48)" x="1266.71" y="1559.48">log-10 prior precision (k)</text>
</g>
<polyline clip-path="url(#clip6002)" style="stroke:#009af9; stroke-width:4; stroke-opacity:1; fill:none" points="
  242.135,1051.8 651.964,780.268 1061.79,204.724 1471.62,86.2547 1881.45,421.992 2291.28,1386.61 
  "/>
<polyline clip-path="url(#clip6002)" style="stroke:#e26f46; stroke-width:4; stroke-opacity:1; fill:none" points="
  242.135,986.589 651.964,986.589 1061.79,986.589 1471.62,986.589 1881.45,986.589 2291.28,986.589 
  "/>
<polygon clip-path="url(#clip6000)" points="
1933.75,312.204 2280.76,312.204 2280.76,130.764 1933.75,130.764 
  " fill="#ffffff" fill-rule="evenodd" fill-opacity="1"/>
<polyline clip-path="url(#clip6000)" style="stroke:#000000; stroke-width:4; stroke-opacity:1; fill:none" points="
  1933.75,312.204 2280.76,312.204 2280.76,130.764 1933.75,130.764 1933.75,312.204 
  "/>
<polyline clip-path="url(#clip6000)" style="stroke:#009af9; stroke-width:4; stroke-opacity:1; fill:none" points="
  1957.75,191.244 2101.75,191.244 
  "/>
<g clip-path="url(#clip6000)">
<text style="fill:#000000; fill-opacity:1; font-family:Arial,Helvetica Neue,Helvetica,sans-serif; font-size:48px; text-anchor:start;" transform="rotate(0, 2125.75, 208.744)" x="2125.75" y="208.744">ridge</text>
</g>
<polyline clip-path="url(#clip6000)" style="stroke:#e26f46; stroke-width:4; stroke-opacity:1; fill:none" points="
  1957.75,251.724 2101.75,251.724 
  "/>
<g clip-path="url(#clip6000)">
<text style="fill:#000000; fill-opacity:1; font-family:Arial,Helvetica Neue,Helvetica,sans-serif; font-size:48px; text-anchor:start;" transform="rotate(0, 2125.75, 269.224)" x="2125.75" y="269.224">ols</text>
</g>
</svg>
