<?xml version="1.0" encoding="utf-8"?>
<svg xmlns="http://www.w3.org/2000/svg" xmlns:xlink="http://www.w3.org/1999/xlink" width="600" height="400" viewBox="0 0 2400 1600">
<defs>
  <clipPath id="clip5700">
    <rect x="0" y="0" width="2400" height="1600"/>
  </clipPath>
</defs>
<polygon clip-path="url(#clip5700)" points="
0,1600 2400,1600 2400,0 0,0 
  " fill="#ffffff" fill-rule="evenodd" fill-opacity="1"/>
<defs>
  <clipPath id="clip5701">
    <rect x="480" y="0" width="1681" height="1600"/>
  </clipPath>
</defs>
<polygon clip-path="url(#clip5700)" points="
182.008,1425.62 2352.76,1425.62 2352.76,47.2441 182.008,47.2441 
  " fill="#ffffff" fill-rule="evenodd" fill-opacity="1"/>
<defs>
  <clipPath id="clip5702">
    <rect x="182" y="47" width="2172" height="1379"/>
  </clipPath>
</defs>
<polyline clip-path="url(#clip5702)" style="stroke:#000000; stroke-width:2; stroke-opacity:0.1; fill:none" points="
  243.444,1425.62 243.444,47.2441 
  "/>
<polyline clip-path="url(#clip5702)" style="stroke:#000000; stroke-width:2; stroke-opacity:0.1; fill:none" points="
  653.019,1425.62 653.019,47.2441 
  "/>
<polyline clip-path="url(#clip5702)" style="stroke:#000000; stroke-width:2; stroke-opacity:0.1; fill:none" points="
  1062.59,1425.62 1062.59,47.2441 
  "/>
<polyline clip-path="url(#clip5702)" style="stroke:#000000; stroke-width:2; stroke-opacity:0.1; fill:none" points="
  1472.17,1425.62 1472.17,47.2441 
  "/>
<polyline clip-path="url(#clip5702)" style="stroke:#000000; stroke-width:2; stroke-opacity:0.1; fill:none" points="
  1881.74,1425.62 1881.74,47.2441 
  "/>
<polyline clip-path="url(#clip5702)" style="stroke:#000000; stroke-width:2; stroke-opacity:0.1; fill:none" points="
  2291.32,1425.62 2291.32,47.2441 
  "/>
<polyline clip-path="url(#clip5702)" style="stroke:#000000; stroke-width:2; stroke-opacity:0.1; fill:none" points="
  182.008,1215.66 2352.76,1215.66 
  "/>
<polyline clip-path="url(#clip5702)" style="stroke:#000000; stroke-width:2; stroke-opacity:0.1; fill:none" points="
  182.008,964.335 2352.76,964.335 
  "/>
<polyline clip-path="url(#clip5702)" style="stroke:#000000; stroke-width:2; stroke-opacity:0.1; fill:none" points="
  182.008,713.01 2352.76,713.01 
  "/>
<polyline clip-path="url(#clip5702)" style="stroke:#000000; stroke-width:2; stroke-opacity:0.1; fill:none" points="
  182.008,461.685 2352.76,461.685 
  "/>
<polyline clip-path="url(#clip5702)" style="stroke:#000000; stroke-width:2; stroke-opacity:0.1; fill:none" points="
  182.008,210.359 2352.76,210.359 
  "/>
<polyline clip-path="url(#clip5700)" style="stroke:#000000; stroke-width:4; stroke-opacity:1; fill:none" points="
  182.008,1425.62 2352.76,1425.62 
  "/>
<polyline clip-path="url(#clip5700)" style="stroke:#000000; stroke-width:4; stroke-opacity:1; fill:none" points="
  182.008,1425.62 182.008,47.2441 
  "/>
<polyline clip-path="url(#clip5700)" style="stroke:#000000; stroke-width:4; stroke-opacity:1; fill:none" points="
  243.444,1425.62 243.444,1404.94 
  "/>
<polyline clip-path="url(#clip5700)" style="stroke:#000000; stroke-width:4; stroke-opacity:1; fill:none" points="
  653.019,1425.62 653.019,1404.94 
  "/>
<polyline clip-path="url(#clip5700)" style="stroke:#000000; stroke-width:4; stroke-opacity:1; fill:none" points="
  1062.59,1425.62 1062.59,1404.94 
  "/>
<polyline clip-path="url(#clip5700)" style="stroke:#000000; stroke-width:4; stroke-opacity:1; fill:none" points="
  1472.17,1425.62 1472.17,1404.94 
  "/>
<polyline clip-path="url(#clip5700)" style="stroke:#000000; stroke-width:4; stroke-opacity:1; fill:none" points="
  1881.74,1425.62 1881.74,1404.94 
  "/>
<polyline clip-path="url(#clip5700)" style="stroke:#000000; stroke-width:4; stroke-opacity:1; fill:none" points="
  2291.32,1425.62 2291.32,1404.94 
  "/>
<polyline clip-path="url(#clip5700)" style="stroke:#000000; stroke-width:4; stroke-opacity:1; fill:none" points="
  182.008,1215.66 214.569,1215.66 
  "/>
<polyline clip-path="url(#clip5700)" style="stroke:#000000; stroke-width:4; stroke-opacity:1; fill:none" points="
  182.008,964.335 214.569,964.335 
  "/>
<polyline clip-path="url(#clip5700)" style="stroke:#000000; stroke-width:4; stroke-opacity:1; fill:none" points="
  182.008,713.01 214.569,713.01 
  "/>
<polyline clip-path="url(#clip5700)" style="stroke:#000000; stroke-width:4; stroke-opacity:1; fill:none" points="
  182.008,461.685 214.569,461.685 
  "/>
<polyline clip-path="url(#clip5700)" style="stroke:#000000; stroke-width:4; stroke-opacity:1; fill:none" points="
  182.008,210.359 214.569,210.359 
  "/>
<g clip-path="url(#clip5700)">
<text style="fill:#000000; fill-opacity:1; font-family:Arial,Helvetica Neue,Helvetica,sans-serif; font-size:48px; text-anchor:middle;" transform="rotate(0, 243.444, 1479.62)" x="243.444" y="1479.62">1</text>
</g>
<g clip-path="url(#clip5700)">
<text style="fill:#000000; fill-opacity:1; font-family:Arial,Helvetica Neue,Helvetica,sans-serif; font-size:48px; text-anchor:middle;" transform="rotate(0, 653.019, 1479.62)" x="653.019" y="1479.62">2</text>
</g>
<g clip-path="url(#clip5700)">
<text style="fill:#000000; fill-opacity:1; font-family:Arial,Helvetica Neue,Helvetica,sans-serif; font-size:48px; text-anchor:middle;" transform="rotate(0, 1062.59, 1479.62)" x="1062.59" y="1479.62">3</text>
</g>
<g clip-path="url(#clip5700)">
<text style="fill:#000000; fill-opacity:1; font-family:Arial,Helvetica Neue,Helvetica,sans-serif; font-size:48px; text-anchor:middle;" transform="rotate(0, 1472.17, 1479.62)" x="1472.17" y="1479.62">4</text>
</g>
<g clip-path="url(#clip5700)">
<text style="fill:#000000; fill-opacity:1; font-family:Arial,Helvetica Neue,Helvetica,sans-serif; font-size:48px; text-anchor:middle;" transform="rotate(0, 1881.74, 1479.62)" x="1881.74" y="1479.62">5</text>
</g>
<g clip-path="url(#clip5700)">
<text style="fill:#000000; fill-opacity:1; font-family:Arial,Helvetica Neue,Helvetica,sans-serif; font-size:48px; text-anchor:middle;" transform="rotate(0, 2291.32, 1479.62)" x="2291.32" y="1479.62">6</text>
</g>
<g clip-path="url(#clip5700)">
<text style="fill:#000000; fill-opacity:1; font-family:Arial,Helvetica Neue,Helvetica,sans-serif; font-size:48px; text-anchor:end;" transform="rotate(0, 158.008, 1233.16)" x="158.008" y="1233.16">-0.2</text>
</g>
<g clip-path="url(#clip5700)">
<text style="fill:#000000; fill-opacity:1; font-family:Arial,Helvetica Neue,Helvetica,sans-serif; font-size:48px; text-anchor:end;" transform="rotate(0, 158.008, 981.835)" x="158.008" y="981.835">-0.1</text>
</g>
<g clip-path="url(#clip5700)">
<text style="fill:#000000; fill-opacity:1; font-family:Arial,Helvetica Neue,Helvetica,sans-serif; font-size:48px; text-anchor:end;" transform="rotate(0, 158.008, 730.51)" x="158.008" y="730.51">0.0</text>
</g>
<g clip-path="url(#clip5700)">
<text style="fill:#000000; fill-opacity:1; font-family:Arial,Helvetica Neue,Helvetica,sans-serif; font-size:48px; text-anchor:end;" transform="rotate(0, 158.008, 479.185)" x="158.008" y="479.185">0.1</text>
</g>
<g clip-path="url(#clip5700)">
<text style="fill:#000000; fill-opacity:1; font-family:Arial,Helvetica Neue,Helvetica,sans-serif; font-size:48px; text-anchor:end;" transform="rotate(0, 158.008, 227.859)" x="158.008" y="227.859">0.2</text>
</g>
<g clip-path="url(#clip5700)">
<text style="fill:#000000; fill-opacity:1; font-family:Arial,Helvetica Neue,Helvetica,sans-serif; font-size:66px; text-anchor:middle;" transform="rotate(0, 1267.38, 1559.48)" x="1267.38" y="1559.48">log-10 prior precision (k)</text>
</g>
<polyline clip-path="url(#clip5702)" style="stroke:#009af9; stroke-width:4; stroke-opacity:1; fill:none" points="
  243.444,570.955 653.019,535.047 1062.59,458.937 1472.17,443.271 1881.74,487.669 2291.32,615.23 
  "/>
<polyline clip-path="url(#clip5702)" style="stroke:#e26f46; stroke-width:4; stroke-opacity:1; fill:none" points="
  243.444,1386.61 653.019,1329.96 1062.59,1209.1 1472.17,1174.17 1881.74,1143.41 2291.32,913.608 
  "/>
<polyline clip-path="url(#clip5702)" style="stroke:#3da44d; stroke-width:4; stroke-opacity:1; fill:none" points="
  243.444,1173.77 653.019,1136.03 1062.59,1055.43 1472.17,1031.17 1881.74,1002.4 2291.32,841.196 
  "/>
<polyline clip-path="url(#clip5702)" style="stroke:#c271d2; stroke-width:4; stroke-opacity:1; fill:none" points="
  243.444,86.2547 653.019,94.5292 1062.59,113.359 1472.17,132.917 1881.74,245.902 2291.32,551.618 
  "/>
<polyline clip-path="url(#clip5702)" style="stroke:#ac8d18; stroke-width:4; stroke-opacity:1; fill:none" points="
  243.444,787.664 653.019,729.005 1062.59,710.53 1472.17,706.968 1881.74,708.548 2291.32,711.951 
  "/>
<polyline clip-path="url(#clip5702)" style="stroke:#00a9ad; stroke-width:4; stroke-opacity:1; fill:none" points="
  243.444,712.395 653.019,712.948 1062.59,712.954 1472.17,712.941 1881.74,712.961 2291.32,712.998 
  "/>
<polygon clip-path="url(#clip5700)" points="
1818.81,554.124 2280.76,554.124 2280.76,130.764 1818.81,130.764 
  " fill="#ffffff" fill-rule="evenodd" fill-opacity="1"/>
<polyline clip-path="url(#clip5700)" style="stroke:#000000; stroke-width:4; stroke-opacity:1; fill:none" points="
  1818.81,554.124 2280.76,554.124 2280.76,130.764 1818.81,130.764 1818.81,554.124 
  "/>
<polyline clip-path="url(#clip5700)" style="stroke:#009af9; stroke-width:4; stroke-opacity:1; fill:none" points="
  1842.81,191.244 1986.81,191.244 
  "/>
<g clip-path="url(#clip5700)">
<text style="fill:#000000; fill-opacity:1; font-family:Arial,Helvetica Neue,Helvetica,sans-serif; font-size:48px; text-anchor:start;" transform="rotate(0, 2010.81, 208.744)" x="2010.81" y="208.744">EDUC</text>
</g>
<polyline clip-path="url(#clip5700)" style="stroke:#e26f46; stroke-width:4; stroke-opacity:1; fill:none" points="
  1842.81,251.724 1986.81,251.724 
  "/>
<g clip-path="url(#clip5700)">
<text style="fill:#000000; fill-opacity:1; font-family:Arial,Helvetica Neue,Helvetica,sans-serif; font-size:48px; text-anchor:start;" transform="rotate(0, 2010.81, 269.224)" x="2010.81" y="269.224">RACE</text>
</g>
<polyline clip-path="url(#clip5700)" style="stroke:#3da44d; stroke-width:4; stroke-opacity:1; fill:none" points="
  1842.81,312.204 1986.81,312.204 
  "/>
<g clip-path="url(#clip5700)">
<text style="fill:#000000; fill-opacity:1; font-family:Arial,Helvetica Neue,Helvetica,sans-serif; font-size:48px; text-anchor:start;" transform="rotate(0, 2010.81, 329.704)" x="2010.81" y="329.704">SMSA</text>
</g>
<polyline clip-path="url(#clip5700)" style="stroke:#c271d2; stroke-width:4; stroke-opacity:1; fill:none" points="
  1842.81,372.684 1986.81,372.684 
  "/>
<g clip-path="url(#clip5700)">
<text style="fill:#000000; fill-opacity:1; font-family:Arial,Helvetica Neue,Helvetica,sans-serif; font-size:48px; text-anchor:start;" transform="rotate(0, 2010.81, 390.184)" x="2010.81" y="390.184">MARRIED</text>
</g>
<polyline clip-path="url(#clip5700)" style="stroke:#ac8d18; stroke-width:4; stroke-opacity:1; fill:none" points="
  1842.81,433.164 1986.81,433.164 
  "/>
<g clip-path="url(#clip5700)">
<text style="fill:#000000; fill-opacity:1; font-family:Arial,Helvetica Neue,Helvetica,sans-serif; font-size:48px; text-anchor:start;" transform="rotate(0, 2010.81, 450.664)" x="2010.81" y="450.664">AGEQ</text>
</g>
<polyline clip-path="url(#clip5700)" style="stroke:#00a9ad; stroke-width:4; stroke-opacity:1; fill:none" points="
  1842.81,493.644 1986.81,493.644 
  "/>
<g clip-path="url(#clip5700)">
<text style="fill:#000000; fill-opacity:1; font-family:Arial,Helvetica Neue,Helvetica,sans-serif; font-size:48px; text-anchor:start;" transform="rotate(0, 2010.81, 511.144)" x="2010.81" y="511.144">AGEQSQ</text>
</g>
</svg>
