<?xml version="1.0" encoding="utf-8"?>
<svg xmlns="http://www.w3.org/2000/svg" xmlns:xlink="http://www.w3.org/1999/xlink" width="600" height="400" viewBox="0 0 2400 1600">
<defs>
  <clipPath id="clip840">
    <rect x="0" y="0" width="2400" height="1600"/>
  </clipPath>
</defs>
<path clip-path="url(#clip840)" d="
M0 1600 L2400 1600 L2400 0 L0 0  Z
  " fill="#ffffff" fill-rule="evenodd" fill-opacity="1"/>
<defs>
  <clipPath id="clip841">
    <rect x="480" y="0" width="1681" height="1600"/>
  </clipPath>
</defs>
<path clip-path="url(#clip840)" d="
M156.112 1486.45 L1882.85 1486.45 L1882.85 47.2441 L156.112 47.2441  Z
  " fill="#ffffff" fill-rule="evenodd" fill-opacity="1"/>
<defs>
  <clipPath id="clip842">
    <rect x="156" y="47" width="1728" height="1440"/>
  </clipPath>
</defs>
<polyline clip-path="url(#clip842)" style="stroke:#000000; stroke-linecap:butt; stroke-linejoin:round; stroke-width:2; stroke-opacity:0.1; fill:none" points="
  194.737,1486.45 194.737,47.2441 
  "/>
<polyline clip-path="url(#clip842)" style="stroke:#000000; stroke-linecap:butt; stroke-linejoin:round; stroke-width:2; stroke-opacity:0.1; fill:none" points="
  707,1486.45 707,47.2441 
  "/>
<polyline clip-path="url(#clip842)" style="stroke:#000000; stroke-linecap:butt; stroke-linejoin:round; stroke-width:2; stroke-opacity:0.1; fill:none" points="
  1219.26,1486.45 1219.26,47.2441 
  "/>
<polyline clip-path="url(#clip842)" style="stroke:#000000; stroke-linecap:butt; stroke-linejoin:round; stroke-width:2; stroke-opacity:0.1; fill:none" points="
  1731.53,1486.45 1731.53,47.2441 
  "/>
<polyline clip-path="url(#clip840)" style="stroke:#000000; stroke-linecap:butt; stroke-linejoin:round; stroke-width:4; stroke-opacity:1; fill:none" points="
  156.112,1486.45 1882.85,1486.45 
  "/>
<polyline clip-path="url(#clip840)" style="stroke:#000000; stroke-linecap:butt; stroke-linejoin:round; stroke-width:4; stroke-opacity:1; fill:none" points="
  194.737,1486.45 194.737,1469.18 
  "/>
<polyline clip-path="url(#clip840)" style="stroke:#000000; stroke-linecap:butt; stroke-linejoin:round; stroke-width:4; stroke-opacity:1; fill:none" points="
  707,1486.45 707,1469.18 
  "/>
<polyline clip-path="url(#clip840)" style="stroke:#000000; stroke-linecap:butt; stroke-linejoin:round; stroke-width:4; stroke-opacity:1; fill:none" points="
  1219.26,1486.45 1219.26,1469.18 
  "/>
<polyline clip-path="url(#clip840)" style="stroke:#000000; stroke-linecap:butt; stroke-linejoin:round; stroke-width:4; stroke-opacity:1; fill:none" points="
  1731.53,1486.45 1731.53,1469.18 
  "/>
<path clip-path="url(#clip840)" d="M194.737 1515.64 Q191.126 1515.64 189.297 1519.2 Q187.491 1522.75 187.491 1529.87 Q187.491 1536.98 189.297 1540.55 Q191.126 1544.09 194.737 1544.09 Q198.371 1544.09 200.177 1540.55 Q202.005 1536.98 202.005 1529.87 Q202.005 1522.75 200.177 1519.2 Q198.371 1515.64 194.737 1515.64 M194.737 1511.93 Q200.547 1511.93 203.602 1516.54 Q206.681 1521.12 206.681 1529.87 Q206.681 1538.6 203.602 1543.21 Q200.547 1547.79 194.737 1547.79 Q188.927 1547.79 185.848 1543.21 Q182.792 1538.6 182.792 1529.87 Q182.792 1521.12 185.848 1516.54 Q188.927 1511.93 194.737 1511.93 Z" fill="#000000" fill-rule="evenodd" fill-opacity="1" /><path clip-path="url(#clip840)" d="M681.699 1512.56 L700.055 1512.56 L700.055 1516.5 L685.981 1516.5 L685.981 1524.97 Q687 1524.62 688.018 1524.46 Q689.037 1524.27 690.055 1524.27 Q695.842 1524.27 699.222 1527.44 Q702.602 1530.62 702.602 1536.03 Q702.602 1541.61 699.129 1544.71 Q695.657 1547.79 689.338 1547.79 Q687.162 1547.79 684.893 1547.42 Q682.648 1547.05 680.241 1546.31 L680.241 1541.61 Q682.324 1542.74 684.546 1543.3 Q686.768 1543.86 689.245 1543.86 Q693.25 1543.86 695.588 1541.75 Q697.926 1539.64 697.926 1536.03 Q697.926 1532.42 695.588 1530.31 Q693.25 1528.21 689.245 1528.21 Q687.37 1528.21 685.495 1528.62 Q683.643 1529.04 681.699 1529.92 L681.699 1512.56 Z" fill="#000000" fill-rule="evenodd" fill-opacity="1" /><path clip-path="url(#clip840)" d="M721.814 1515.64 Q718.203 1515.64 716.375 1519.2 Q714.569 1522.75 714.569 1529.87 Q714.569 1536.98 716.375 1540.55 Q718.203 1544.09 721.814 1544.09 Q725.449 1544.09 727.254 1540.55 Q729.083 1536.98 729.083 1529.87 Q729.083 1522.75 727.254 1519.2 Q725.449 1515.64 721.814 1515.64 M721.814 1511.93 Q727.625 1511.93 730.68 1516.54 Q733.759 1521.12 733.759 1529.87 Q733.759 1538.6 730.68 1543.21 Q727.625 1547.79 721.814 1547.79 Q716.004 1547.79 712.926 1543.21 Q709.87 1538.6 709.87 1529.87 Q709.87 1521.12 712.926 1516.54 Q716.004 1511.93 721.814 1511.93 Z" fill="#000000" fill-rule="evenodd" fill-opacity="1" /><path clip-path="url(#clip840)" d="M1178.87 1543.18 L1186.51 1543.18 L1186.51 1516.82 L1178.2 1518.49 L1178.2 1514.23 L1186.46 1512.56 L1191.14 1512.56 L1191.14 1543.18 L1198.78 1543.18 L1198.78 1547.12 L1178.87 1547.12 L1178.87 1543.18 Z" fill="#000000" fill-rule="evenodd" fill-opacity="1" /><path clip-path="url(#clip840)" d="M1218.22 1515.64 Q1214.61 1515.64 1212.78 1519.2 Q1210.98 1522.75 1210.98 1529.87 Q1210.98 1536.98 1212.78 1540.55 Q1214.61 1544.09 1218.22 1544.09 Q1221.86 1544.09 1223.66 1540.55 Q1225.49 1536.98 1225.49 1529.87 Q1225.49 1522.75 1223.66 1519.2 Q1221.86 1515.64 1218.22 1515.64 M1218.22 1511.93 Q1224.03 1511.93 1227.09 1516.54 Q1230.17 1521.12 1230.17 1529.87 Q1230.17 1538.6 1227.09 1543.21 Q1224.03 1547.79 1218.22 1547.79 Q1212.41 1547.79 1209.33 1543.21 Q1206.28 1538.6 1206.28 1529.87 Q1206.28 1521.12 1209.33 1516.54 Q1212.41 1511.93 1218.22 1511.93 Z" fill="#000000" fill-rule="evenodd" fill-opacity="1" /><path clip-path="url(#clip840)" d="M1248.38 1515.64 Q1244.77 1515.64 1242.94 1519.2 Q1241.14 1522.75 1241.14 1529.87 Q1241.14 1536.98 1242.94 1540.55 Q1244.77 1544.09 1248.38 1544.09 Q1252.02 1544.09 1253.82 1540.55 Q1255.65 1536.98 1255.65 1529.87 Q1255.65 1522.75 1253.82 1519.2 Q1252.02 1515.64 1248.38 1515.64 M1248.38 1511.93 Q1254.19 1511.93 1257.25 1516.54 Q1260.33 1521.12 1260.33 1529.87 Q1260.33 1538.6 1257.25 1543.21 Q1254.19 1547.79 1248.38 1547.79 Q1242.57 1547.79 1239.49 1543.21 Q1236.44 1538.6 1236.44 1529.87 Q1236.44 1521.12 1239.49 1516.54 Q1242.57 1511.93 1248.38 1511.93 Z" fill="#000000" fill-rule="evenodd" fill-opacity="1" /><path clip-path="url(#clip840)" d="M1691.13 1543.18 L1698.77 1543.18 L1698.77 1516.82 L1690.46 1518.49 L1690.46 1514.23 L1698.72 1512.56 L1703.4 1512.56 L1703.4 1543.18 L1711.04 1543.18 L1711.04 1547.12 L1691.13 1547.12 L1691.13 1543.18 Z" fill="#000000" fill-rule="evenodd" fill-opacity="1" /><path clip-path="url(#clip840)" d="M1720.53 1512.56 L1738.89 1512.56 L1738.89 1516.5 L1724.81 1516.5 L1724.81 1524.97 Q1725.83 1524.62 1726.85 1524.46 Q1727.87 1524.27 1728.89 1524.27 Q1734.67 1524.27 1738.05 1527.44 Q1741.43 1530.62 1741.43 1536.03 Q1741.43 1541.61 1737.96 1544.71 Q1734.49 1547.79 1728.17 1547.79 Q1725.99 1547.79 1723.72 1547.42 Q1721.48 1547.05 1719.07 1546.31 L1719.07 1541.61 Q1721.16 1542.74 1723.38 1543.3 Q1725.6 1543.86 1728.08 1543.86 Q1732.08 1543.86 1734.42 1541.75 Q1736.76 1539.64 1736.76 1536.03 Q1736.76 1532.42 1734.42 1530.31 Q1732.08 1528.21 1728.08 1528.21 Q1726.2 1528.21 1724.33 1528.62 Q1722.47 1529.04 1720.53 1529.92 L1720.53 1512.56 Z" fill="#000000" fill-rule="evenodd" fill-opacity="1" /><path clip-path="url(#clip840)" d="M1760.65 1515.64 Q1757.03 1515.64 1755.21 1519.2 Q1753.4 1522.75 1753.4 1529.87 Q1753.4 1536.98 1755.21 1540.55 Q1757.03 1544.09 1760.65 1544.09 Q1764.28 1544.09 1766.09 1540.55 Q1767.91 1536.98 1767.91 1529.87 Q1767.91 1522.75 1766.09 1519.2 Q1764.28 1515.64 1760.65 1515.64 M1760.65 1511.93 Q1766.46 1511.93 1769.51 1516.54 Q1772.59 1521.12 1772.59 1529.87 Q1772.59 1538.6 1769.51 1543.21 Q1766.46 1547.79 1760.65 1547.79 Q1754.84 1547.79 1751.76 1543.21 Q1748.7 1538.6 1748.7 1529.87 Q1748.7 1521.12 1751.76 1516.54 Q1754.84 1511.93 1760.65 1511.93 Z" fill="#000000" fill-rule="evenodd" fill-opacity="1" /><polyline clip-path="url(#clip842)" style="stroke:#000000; stroke-linecap:butt; stroke-linejoin:round; stroke-width:2; stroke-opacity:0.1; fill:none" points="
  156.112,1461.41 1882.85,1461.41 
  "/>
<polyline clip-path="url(#clip842)" style="stroke:#000000; stroke-linecap:butt; stroke-linejoin:round; stroke-width:2; stroke-opacity:0.1; fill:none" points="
  156.112,1169.55 1882.85,1169.55 
  "/>
<polyline clip-path="url(#clip842)" style="stroke:#000000; stroke-linecap:butt; stroke-linejoin:round; stroke-width:2; stroke-opacity:0.1; fill:none" points="
  156.112,877.688 1882.85,877.688 
  "/>
<polyline clip-path="url(#clip842)" style="stroke:#000000; stroke-linecap:butt; stroke-linejoin:round; stroke-width:2; stroke-opacity:0.1; fill:none" points="
  156.112,585.829 1882.85,585.829 
  "/>
<polyline clip-path="url(#clip842)" style="stroke:#000000; stroke-linecap:butt; stroke-linejoin:round; stroke-width:2; stroke-opacity:0.1; fill:none" points="
  156.112,293.971 1882.85,293.971 
  "/>
<polyline clip-path="url(#clip840)" style="stroke:#000000; stroke-linecap:butt; stroke-linejoin:round; stroke-width:4; stroke-opacity:1; fill:none" points="
  156.112,1486.45 156.112,47.2441 
  "/>
<polyline clip-path="url(#clip840)" style="stroke:#000000; stroke-linecap:butt; stroke-linejoin:round; stroke-width:4; stroke-opacity:1; fill:none" points="
  156.112,1461.41 176.833,1461.41 
  "/>
<polyline clip-path="url(#clip840)" style="stroke:#000000; stroke-linecap:butt; stroke-linejoin:round; stroke-width:4; stroke-opacity:1; fill:none" points="
  156.112,1169.55 176.833,1169.55 
  "/>
<polyline clip-path="url(#clip840)" style="stroke:#000000; stroke-linecap:butt; stroke-linejoin:round; stroke-width:4; stroke-opacity:1; fill:none" points="
  156.112,877.688 176.833,877.688 
  "/>
<polyline clip-path="url(#clip840)" style="stroke:#000000; stroke-linecap:butt; stroke-linejoin:round; stroke-width:4; stroke-opacity:1; fill:none" points="
  156.112,585.829 176.833,585.829 
  "/>
<polyline clip-path="url(#clip840)" style="stroke:#000000; stroke-linecap:butt; stroke-linejoin:round; stroke-width:4; stroke-opacity:1; fill:none" points="
  156.112,293.971 176.833,293.971 
  "/>
<path clip-path="url(#clip840)" d="M62.9365 1447.2 Q59.3254 1447.2 57.4967 1450.77 Q55.6912 1454.31 55.6912 1461.44 Q55.6912 1468.55 57.4967 1472.11 Q59.3254 1475.65 62.9365 1475.65 Q66.5707 1475.65 68.3763 1472.11 Q70.205 1468.55 70.205 1461.44 Q70.205 1454.31 68.3763 1450.77 Q66.5707 1447.2 62.9365 1447.2 M62.9365 1443.5 Q68.7467 1443.5 71.8022 1448.11 Q74.8809 1452.69 74.8809 1461.44 Q74.8809 1470.17 71.8022 1474.77 Q68.7467 1479.36 62.9365 1479.36 Q57.1264 1479.36 54.0477 1474.77 Q50.9921 1470.17 50.9921 1461.44 Q50.9921 1452.69 54.0477 1448.11 Q57.1264 1443.5 62.9365 1443.5 Z" fill="#000000" fill-rule="evenodd" fill-opacity="1" /><path clip-path="url(#clip840)" d="M83.0984 1472.81 L87.9827 1472.81 L87.9827 1478.69 L83.0984 1478.69 L83.0984 1472.81 Z" fill="#000000" fill-rule="evenodd" fill-opacity="1" /><path clip-path="url(#clip840)" d="M108.168 1447.2 Q104.557 1447.2 102.728 1450.77 Q100.922 1454.31 100.922 1461.44 Q100.922 1468.55 102.728 1472.11 Q104.557 1475.65 108.168 1475.65 Q111.802 1475.65 113.608 1472.11 Q115.436 1468.55 115.436 1461.44 Q115.436 1454.31 113.608 1450.77 Q111.802 1447.2 108.168 1447.2 M108.168 1443.5 Q113.978 1443.5 117.033 1448.11 Q120.112 1452.69 120.112 1461.44 Q120.112 1470.17 117.033 1474.77 Q113.978 1479.36 108.168 1479.36 Q102.358 1479.36 99.2789 1474.77 Q96.2234 1470.17 96.2234 1461.44 Q96.2234 1452.69 99.2789 1448.11 Q102.358 1443.5 108.168 1443.5 Z" fill="#000000" fill-rule="evenodd" fill-opacity="1" /><path clip-path="url(#clip840)" d="M63.9319 1155.35 Q60.3208 1155.35 58.4921 1158.91 Q56.6865 1162.45 56.6865 1169.58 Q56.6865 1176.69 58.4921 1180.25 Q60.3208 1183.79 63.9319 1183.79 Q67.5661 1183.79 69.3717 1180.25 Q71.2004 1176.69 71.2004 1169.58 Q71.2004 1162.45 69.3717 1158.91 Q67.5661 1155.35 63.9319 1155.35 M63.9319 1151.64 Q69.742 1151.64 72.7976 1156.25 Q75.8763 1160.83 75.8763 1169.58 Q75.8763 1178.31 72.7976 1182.92 Q69.742 1187.5 63.9319 1187.5 Q58.1217 1187.5 55.043 1182.92 Q51.9875 1178.31 51.9875 1169.58 Q51.9875 1160.83 55.043 1156.25 Q58.1217 1151.64 63.9319 1151.64 Z" fill="#000000" fill-rule="evenodd" fill-opacity="1" /><path clip-path="url(#clip840)" d="M84.0938 1180.95 L88.978 1180.95 L88.978 1186.83 L84.0938 1186.83 L84.0938 1180.95 Z" fill="#000000" fill-rule="evenodd" fill-opacity="1" /><path clip-path="url(#clip840)" d="M99.2095 1152.27 L117.566 1152.27 L117.566 1156.2 L103.492 1156.2 L103.492 1164.67 Q104.51 1164.33 105.529 1164.17 Q106.547 1163.98 107.566 1163.98 Q113.353 1163.98 116.733 1167.15 Q120.112 1170.32 120.112 1175.74 Q120.112 1181.32 116.64 1184.42 Q113.168 1187.5 106.848 1187.5 Q104.672 1187.5 102.404 1187.13 Q100.159 1186.76 97.7511 1186.02 L97.7511 1181.32 Q99.8345 1182.45 102.057 1183.01 Q104.279 1183.56 106.756 1183.56 Q110.76 1183.56 113.098 1181.46 Q115.436 1179.35 115.436 1175.74 Q115.436 1172.13 113.098 1170.02 Q110.76 1167.92 106.756 1167.92 Q104.881 1167.92 103.006 1168.33 Q101.154 1168.75 99.2095 1169.63 L99.2095 1152.27 Z" fill="#000000" fill-rule="evenodd" fill-opacity="1" /><path clip-path="url(#clip840)" d="M53.7467 891.033 L61.3856 891.033 L61.3856 864.668 L53.0754 866.334 L53.0754 862.075 L61.3393 860.408 L66.0152 860.408 L66.0152 891.033 L73.654 891.033 L73.654 894.968 L53.7467 894.968 L53.7467 891.033 Z" fill="#000000" fill-rule="evenodd" fill-opacity="1" /><path clip-path="url(#clip840)" d="M83.0984 889.089 L87.9827 889.089 L87.9827 894.968 L83.0984 894.968 L83.0984 889.089 Z" fill="#000000" fill-rule="evenodd" fill-opacity="1" /><path clip-path="url(#clip840)" d="M108.168 863.487 Q104.557 863.487 102.728 867.052 Q100.922 870.593 100.922 877.723 Q100.922 884.829 102.728 888.394 Q104.557 891.936 108.168 891.936 Q111.802 891.936 113.608 888.394 Q115.436 884.829 115.436 877.723 Q115.436 870.593 113.608 867.052 Q111.802 863.487 108.168 863.487 M108.168 859.783 Q113.978 859.783 117.033 864.39 Q120.112 868.973 120.112 877.723 Q120.112 886.45 117.033 891.056 Q113.978 895.64 108.168 895.64 Q102.358 895.64 99.2789 891.056 Q96.2234 886.45 96.2234 877.723 Q96.2234 868.973 99.2789 864.39 Q102.358 859.783 108.168 859.783 Z" fill="#000000" fill-rule="evenodd" fill-opacity="1" /><path clip-path="url(#clip840)" d="M54.7421 599.174 L62.381 599.174 L62.381 572.809 L54.0708 574.475 L54.0708 570.216 L62.3347 568.549 L67.0106 568.549 L67.0106 599.174 L74.6494 599.174 L74.6494 603.109 L54.7421 603.109 L54.7421 599.174 Z" fill="#000000" fill-rule="evenodd" fill-opacity="1" /><path clip-path="url(#clip840)" d="M84.0938 597.23 L88.978 597.23 L88.978 603.109 L84.0938 603.109 L84.0938 597.23 Z" fill="#000000" fill-rule="evenodd" fill-opacity="1" /><path clip-path="url(#clip840)" d="M99.2095 568.549 L117.566 568.549 L117.566 572.485 L103.492 572.485 L103.492 580.957 Q104.51 580.61 105.529 580.448 Q106.547 580.262 107.566 580.262 Q113.353 580.262 116.733 583.434 Q120.112 586.605 120.112 592.022 Q120.112 597.6 116.64 600.702 Q113.168 603.781 106.848 603.781 Q104.672 603.781 102.404 603.41 Q100.159 603.04 97.7511 602.299 L97.7511 597.6 Q99.8345 598.734 102.057 599.29 Q104.279 599.846 106.756 599.846 Q110.76 599.846 113.098 597.739 Q115.436 595.633 115.436 592.022 Q115.436 588.41 113.098 586.304 Q110.76 584.198 106.756 584.198 Q104.881 584.198 103.006 584.614 Q101.154 585.031 99.2095 585.91 L99.2095 568.549 Z" fill="#000000" fill-rule="evenodd" fill-opacity="1" /><path clip-path="url(#clip840)" d="M56.9643 307.315 L73.2837 307.315 L73.2837 311.251 L51.3393 311.251 L51.3393 307.315 Q54.0014 304.561 58.5847 299.931 Q63.1911 295.278 64.3717 293.936 Q66.617 291.413 67.4967 289.677 Q68.3994 287.917 68.3994 286.228 Q68.3994 283.473 66.455 281.737 Q64.5337 280.001 61.4319 280.001 Q59.2328 280.001 56.7791 280.765 Q54.3486 281.529 51.5708 283.079 L51.5708 278.357 Q54.3949 277.223 56.8486 276.644 Q59.3023 276.066 61.3393 276.066 Q66.7096 276.066 69.9041 278.751 Q73.0985 281.436 73.0985 285.927 Q73.0985 288.056 72.2883 289.978 Q71.5013 291.876 69.3948 294.468 Q68.8161 295.14 65.7143 298.357 Q62.6124 301.552 56.9643 307.315 Z" fill="#000000" fill-rule="evenodd" fill-opacity="1" /><path clip-path="url(#clip840)" d="M83.0984 305.371 L87.9827 305.371 L87.9827 311.251 L83.0984 311.251 L83.0984 305.371 Z" fill="#000000" fill-rule="evenodd" fill-opacity="1" /><path clip-path="url(#clip840)" d="M108.168 279.769 Q104.557 279.769 102.728 283.334 Q100.922 286.876 100.922 294.005 Q100.922 301.112 102.728 304.677 Q104.557 308.218 108.168 308.218 Q111.802 308.218 113.608 304.677 Q115.436 301.112 115.436 294.005 Q115.436 286.876 113.608 283.334 Q111.802 279.769 108.168 279.769 M108.168 276.066 Q113.978 276.066 117.033 280.672 Q120.112 285.255 120.112 294.005 Q120.112 302.732 117.033 307.339 Q113.978 311.922 108.168 311.922 Q102.358 311.922 99.2789 307.339 Q96.2234 302.732 96.2234 294.005 Q96.2234 285.255 99.2789 280.672 Q102.358 276.066 108.168 276.066 Z" fill="#000000" fill-rule="evenodd" fill-opacity="1" /><polyline clip-path="url(#clip842)" style="stroke:#009af9; stroke-linecap:butt; stroke-linejoin:round; stroke-width:4; stroke-opacity:1; fill:none" points="
  204.982,911.37 215.227,880.384 225.473,889.044 235.718,910.873 245.963,915.598 256.208,908.284 266.454,873.519 276.699,878.082 286.944,851.024 297.189,894.073 
  307.435,932.797 317.68,879.446 327.925,872.871 338.17,858.337 348.416,822.527 358.661,864.264 368.906,873.748 379.151,838.905 389.397,873.338 399.642,842.707 
  409.887,845.626 420.132,841.182 430.378,830.733 440.623,819.104 450.868,814.216 461.113,797.795 471.359,828.806 481.604,854.819 491.849,877.619 502.095,868.48 
  512.34,881.933 522.585,866.946 532.83,899.657 543.076,860.266 553.321,844.343 563.566,888.139 573.811,892.722 584.057,895.728 594.302,893.922 604.547,931.017 
  614.792,901.234 625.038,868.28 635.283,839.743 645.528,827.284 655.773,843.562 666.019,818.303 676.264,875.792 686.509,842.543 696.754,860.664 707,864.416 
  717.245,829.27 727.49,789.87 737.735,803.455 747.981,808.87 758.226,792.782 768.471,777.855 778.716,744.535 788.962,774.828 799.207,769.719 809.452,793.404 
  819.698,845.564 829.943,794.03 840.188,759.913 850.433,747.278 860.679,722.022 870.924,715.065 881.169,739.603 891.414,800.85 901.66,838.841 911.905,822.877 
  922.15,818.282 932.395,851.716 942.641,861.619 952.886,873.901 963.131,862.864 973.376,810.733 983.622,820.554 993.867,830.534 1004.11,804.327 1014.36,839.964 
  1024.6,854.428 1034.85,823.941 1045.09,865.714 1055.34,867.762 1065.58,843.839 1075.83,812.983 1086.07,813.57 1096.32,840.943 1106.56,864.921 1116.81,898.501 
  1127.06,889.584 1137.3,912.885 1147.55,933.758 1157.79,893.912 1168.04,923.312 1178.28,925.974 1188.53,933.694 1198.77,959.278 1209.02,968.791 1219.26,965.806 
  1229.51,1006.52 1239.75,960.383 1250,922.896 1260.24,922.229 1270.49,923.851 1280.73,904.139 1290.98,888.894 1301.22,897.228 1311.47,892.886 1321.72,831.178 
  1331.96,873.468 1342.21,864.348 1352.45,881.07 1362.7,902.018 1372.94,846.938 1383.19,816.997 1393.43,824.22 1403.68,841.005 1413.92,846.447 1424.17,827.738 
  1434.41,829.341 1444.66,788.713 1454.9,762.731 1465.15,771.508 1475.39,809.217 1485.64,796.999 1495.88,775.54 1506.13,843.723 1516.38,853.645 1526.62,833.62 
  1536.87,816.723 1547.11,853.322 1557.36,773.448 1567.6,799.671 1577.85,820.81 1588.09,852.439 1598.34,850.723 1608.58,803.619 1618.83,825.099 1629.07,834.787 
  1639.32,825.302 1649.56,783.978 1659.81,774.203 1670.05,809.244 1680.3,810.239 1690.54,831.722 1700.79,868.326 1711.04,848.588 1721.28,848.871 1731.53,862.96 
  1741.77,876.078 1752.02,879.596 1762.26,850.255 1772.51,845.262 1782.75,829.733 1793,848.025 1803.24,826.214 1813.49,825.446 1823.73,859.437 1833.98,895.408 
  
  "/>
<polyline clip-path="url(#clip842)" style="stroke:#e26f46; stroke-linecap:butt; stroke-linejoin:round; stroke-width:4; stroke-opacity:1; fill:none" points="
  204.982,1008.53 215.227,1007.31 225.473,1008.45 235.718,1011.46 245.963,1012.13 256.208,1012.01 266.454,1010.44 276.699,1010.41 286.944,1007.99 297.189,1011.95 
  307.435,1017 317.68,1013.42 327.925,1013.67 338.17,1011.96 348.416,1008.08 358.661,1010.94 368.906,1010.1 379.151,1007.81 389.397,1010.75 399.642,1007.45 
  409.887,1006.74 420.132,1005.48 430.378,1004.34 440.623,1002.31 450.868,1000.91 461.113,998.308 471.359,999.584 481.604,1002.19 491.849,1003.54 502.095,1003.74 
  512.34,1005.09 522.585,1004.9 532.83,1008.51 543.076,1006.95 553.321,1004.96 563.566,1008.38 573.811,1009.46 584.057,1010.71 594.302,1010.77 604.547,1015.8 
  614.792,1013.84 625.038,1011.62 635.283,1007.97 645.528,1006.82 655.773,1007.1 666.019,1003.23 676.264,1007.83 686.509,1005.02 696.754,1005.27 707,1005.24 
  717.245,1002.54 727.49,998.538 737.735,999.085 747.981,997.377 758.226,994.461 768.471,991.669 778.716,988.094 788.962,987.685 799.207,985.322 809.452,986.197 
  819.698,989.759 829.943,985.839 840.188,982.326 850.433,979.646 860.679,975.7 870.924,973.674 881.169,973.617 891.414,977.789 901.66,980.482 911.905,979.444 
  922.15,979.404 932.395,982.363 942.641,984.057 952.886,986.376 963.131,986.862 973.376,983.038 983.622,984.868 993.867,985.457 1004.11,983.033 1014.36,986.925 
  1024.6,987.585 1034.85,985.943 1045.09,989.067 1055.34,990.853 1065.58,989.745 1075.83,987.335 1086.07,987.542 1096.32,989.736 1106.56,991.527 1116.81,995.195 
  1127.06,995.869 1137.3,998.898 1147.55,1002.85 1157.79,1000.74 1168.04,1005.49 1178.28,1007.55 1188.53,1010.11 1198.77,1014.12 1209.02,1017.27 1219.26,1019.26 
  1229.51,1025.25 1239.75,1023.07 1250,1021.21 1260.24,1021.54 1270.49,1022.82 1280.73,1021.49 1290.98,1020.03 1301.22,1021.23 1311.47,1021.05 1321.72,1016 
  1331.96,1018.2 1342.21,1016.81 1352.45,1018.72 1362.7,1020.97 1372.94,1015.48 1383.19,1011.98 1393.43,1010.97 1403.68,1011.01 1413.92,1010.2 1424.17,1007.07 
  1434.41,1006.41 1444.66,1002.17 1454.9,996.861 1465.15,995.681 1475.39,997.49 1485.64,995.306 1495.88,991.864 1506.13,996.073 1516.38,996.798 1526.62,995.069 
  1536.87,993.075 1547.11,995.579 1557.36,989.724 1567.6,990.317 1577.85,991.439 1588.09,994.782 1598.34,993.49 1608.58,989.513 1618.83,990.206 1629.07,990.3 
  1639.32,990.779 1649.56,986.878 1659.81,984.898 1670.05,986.179 1680.3,985.836 1690.54,987.799 1700.79,990.294 1711.04,989.683 1721.28,990.641 1731.53,992.79 
  1741.77,994.503 1752.02,996.146 1762.26,994.602 1772.51,994.732 1782.75,992.92 1793,994.52 1803.24,993.716 1813.49,994.101 1823.73,995.907 1833.98,999.572 
  
  "/>
<polyline clip-path="url(#clip842)" style="stroke:#3da44d; stroke-linecap:butt; stroke-linejoin:round; stroke-width:4; stroke-opacity:1; fill:none" points="
  204.982,1283.99 215.227,1271.98 225.473,1274.56 235.718,1278.95 245.963,1283.08 256.208,1282.39 266.454,1268.21 276.699,1271.87 286.944,1264.48 297.189,1275.45 
  307.435,1283.15 317.68,1265.53 327.925,1259.96 338.17,1257.1 348.416,1248.15 358.661,1260.24 368.906,1270.23 379.151,1256.37 389.397,1264.67 399.642,1258.33 
  409.887,1261.4 420.132,1262.25 430.378,1258.13 440.623,1256.61 450.868,1256.04 461.113,1253.02 471.359,1263.16 481.604,1266.99 491.849,1276.54 502.095,1271.31 
  512.34,1275.6 522.585,1268.1 532.83,1275.68 543.076,1257.94 553.321,1255.71 563.566,1269.76 573.811,1270.43 584.057,1269.46 594.302,1270.47 604.547,1277.49 
  614.792,1269.6 625.038,1258.37 635.283,1254.58 645.528,1248.4 655.773,1255.11 666.019,1253.53 676.264,1268.76 686.509,1259.24 696.754,1268.97 707,1271.59 
  717.245,1259.89 727.49,1248.76 737.735,1249.47 747.981,1256.7 758.226,1255.68 768.471,1253.93 778.716,1242.93 788.962,1256.47 799.207,1258.82 809.452,1264.79 
  819.698,1279.53 829.943,1264.83 840.188,1256 850.433,1254.76 860.679,1250.93 870.924,1248.06 881.169,1255.46 891.414,1269.25 901.66,1280.64 911.905,1277.17 
  922.15,1275.34 932.395,1284.13 942.641,1286.11 952.886,1287.68 963.131,1282.78 973.376,1269.21 983.622,1266.6 993.867,1270.36 1004.11,1264.87 1014.36,1269.35 
  1024.6,1277.24 1034.85,1267.05 1045.09,1280.61 1055.34,1277.48 1065.58,1269.66 1075.83,1261.27 1086.07,1259.43 1096.32,1266.54 1106.56,1275.58 1116.81,1284.97 
  1127.06,1281.28 1137.3,1288.34 1147.55,1291.87 1157.79,1280.66 1168.04,1284.54 1178.28,1283.51 1188.53,1283.92 1198.77,1291.4 1209.02,1292.93 1219.26,1290.71 
  1229.51,1303.57 1239.75,1289.04 1250,1276.17 1260.24,1277.56 1270.49,1276.35 1280.73,1270.85 1290.98,1267.62 1301.22,1268.34 1311.47,1266.69 1321.72,1244.98 
  1331.96,1260.58 1342.21,1259.19 1352.45,1260.71 1362.7,1265.54 1372.94,1251.71 1383.19,1243.11 1393.43,1247.28 1403.68,1254.28 1413.92,1258.87 1424.17,1257.74 
  1434.41,1258.1 1444.66,1246.2 1454.9,1247 1465.15,1249.91 1475.39,1259.51 1485.64,1257.6 1495.88,1254.73 1506.13,1274.67 1516.38,1277.86 1526.62,1272.87 
  1536.87,1269.66 1547.11,1280.31 1557.36,1255.18 1567.6,1263.81 1577.85,1269.27 1588.09,1273.91 1598.34,1279.25 1608.58,1267.12 1618.83,1275.06 1629.07,1279.85 
  1639.32,1271.75 1649.56,1261.56 1659.81,1260.12 1670.05,1272.01 1680.3,1272.51 1690.54,1276.18 1700.79,1288.95 1711.04,1281.96 1721.28,1279.45 1731.53,1280.69 
  1741.77,1284.15 1752.02,1282.64 1762.26,1273.12 1772.51,1270.06 1782.75,1268.16 1793,1272.36 1803.24,1262.03 1813.49,1258.49 1823.73,1272.11 1833.98,1281.99 
  
  "/>
<polyline clip-path="url(#clip842)" style="stroke:#c271d2; stroke-linecap:butt; stroke-linejoin:round; stroke-width:4; stroke-opacity:1; fill:none" points="
  204.982,1443.2 215.227,1442.01 225.473,1442.24 235.718,1442.89 245.963,1442.91 256.208,1442.51 266.454,1441.19 276.699,1441.33 286.944,1440.37 297.189,1441.92 
  307.435,1443.18 317.68,1441.13 327.925,1440.89 338.17,1440.39 348.416,1439.2 358.661,1440.83 368.906,1441.18 379.151,1439.97 389.397,1441.26 399.642,1440.2 
  409.887,1440.39 420.132,1440.31 430.378,1440.04 440.623,1439.77 450.868,1439.75 461.113,1439.37 471.359,1440.6 481.604,1441.54 491.849,1442.29 502.095,1441.92 
  512.34,1442.33 522.585,1441.76 532.83,1442.81 543.076,1441.38 553.321,1440.86 563.566,1442.37 573.811,1442.44 584.057,1442.45 594.302,1442.3 604.547,1443.46 
  614.792,1442.26 625.038,1441.03 635.283,1440.06 645.528,1439.74 655.773,1440.44 666.019,1439.67 676.264,1441.76 686.509,1440.6 696.754,1441.28 707,1441.41 
  717.245,1440.22 727.49,1439.01 737.735,1439.71 747.981,1440.07 758.226,1439.69 768.471,1439.41 778.716,1438.58 788.962,1439.88 799.207,1439.93 809.452,1440.87 
  819.698,1442.6 829.943,1440.97 840.188,1440.04 850.433,1439.88 860.679,1439.36 870.924,1439.48 881.169,1440.52 891.414,1442.52 901.66,1443.65 911.905,1443.11 
  922.15,1442.95 932.395,1443.9 942.641,1444.09 952.886,1444.33 963.131,1443.86 973.376,1442.19 983.622,1442.52 993.867,1442.82 1004.11,1442.01 1014.36,1443.12 
  1024.6,1443.5 1034.85,1442.51 1045.09,1443.76 1055.34,1443.71 1065.58,1442.88 1075.83,1441.9 1086.07,1441.96 1096.32,1442.83 1106.56,1443.52 1116.81,1444.44 
  1127.06,1444 1137.3,1444.57 1147.55,1445.03 1157.79,1443.53 1168.04,1444.33 1178.28,1444.21 1188.53,1444.27 1198.77,1444.9 1209.02,1444.95 1219.26,1444.57 
  1229.51,1445.72 1239.75,1443.73 1250,1442.13 1260.24,1441.98 1270.49,1441.91 1280.73,1441.06 1290.98,1440.44 1301.22,1440.74 1311.47,1440.55 1321.72,1438.26 
  1331.96,1440.04 1342.21,1439.76 1352.45,1440.45 1362.7,1441.23 1372.94,1439.17 1383.19,1438.24 1393.43,1438.76 1403.68,1439.56 1413.92,1439.89 1424.17,1439.34 
  1434.41,1439.56 1444.66,1438.3 1454.9,1437.72 1465.15,1438.39 1475.39,1439.95 1485.64,1439.71 1495.88,1439.2 1506.13,1441.64 1516.38,1441.97 1526.62,1441.3 
  1536.87,1440.79 1547.11,1442.06 1557.36,1439.47 1567.6,1440.54 1577.85,1441.33 1588.09,1442.38 1598.34,1442.29 1608.58,1440.77 1618.83,1441.56 1629.07,1441.9 
  1639.32,1441.6 1649.56,1440.35 1659.81,1440.21 1670.05,1441.48 1680.3,1441.57 1690.54,1442.28 1700.79,1443.4 1711.04,1442.68 1721.28,1442.64 1731.53,1443.03 
  1741.77,1443.36 1752.02,1443.36 1762.26,1442.32 1772.51,1442.13 1782.75,1441.63 1793,1442.24 1803.24,1441.53 1813.49,1441.55 1823.73,1442.66 1833.98,1443.73 
  
  "/>
<polyline clip-path="url(#clip842)" style="stroke:#ac8d18; stroke-linecap:butt; stroke-linejoin:round; stroke-width:4; stroke-opacity:1; fill:none" points="
  204.982,249.23 215.227,261.914 225.473,263.529 235.718,281.484 245.963,264.63 256.208,253.278 266.454,271.364 276.699,257.886 286.944,249.22 297.189,268.316 
  307.435,301.732 317.68,299.396 327.925,318.722 338.17,306.85 348.416,289.628 358.661,300.402 368.906,259.309 379.151,273.983 389.397,292.353 399.642,269.835 
  409.887,257.299 420.132,243.478 430.378,247.994 440.623,234.835 450.868,228.933 461.113,215.955 471.359,213.497 481.604,241.259 491.849,226.534 502.095,241.688 
  512.34,241.872 522.585,258.766 532.83,278.552 543.076,305.859 553.321,288.112 563.566,291.558 573.811,296.834 584.057,308.8 594.302,299.039 604.547,333.549 
  614.792,319.214 625.038,318.808 635.283,285.797 645.528,297.007 655.773,290.042 666.019,251.471 676.264,272.543 686.509,264.205 696.754,240.549 707,231.496 
  717.245,234.573 727.49,226.279 737.735,247.213 747.981,214.739 758.226,190.38 768.471,172.942 778.716,178.03 788.962,151.385 799.207,126.432 809.452,133.178 
  819.698,138.121 829.943,134.215 840.188,126.107 850.433,110.271 860.679,87.9763 870.924,93.6686 881.169,91.557 891.414,118.536 901.66,116.69 911.905,107.956 
  922.15,111.487 932.395,118.646 942.641,125.502 952.886,140.892 963.131,152.513 973.376,138.416 983.622,175.51 993.867,170.833 1004.11,154.628 1014.36,196.563 
  1024.6,173.492 1034.85,179.328 1045.09,173.996 1055.34,199.938 1065.58,202.334 1075.83,194.602 1086.07,207.197 1096.32,216.498 1106.56,206.695 1116.81,214.516 
  1127.06,220.513 1137.3,222.673 1147.55,244.957 1157.79,234.025 1168.04,271.939 1178.28,284.612 1188.53,298.869 1198.77,306.67 1209.02,318.27 1219.26,326.217 
  1229.51,334.742 1239.75,324.905 1250,324.453 1260.24,314.491 1270.49,325.356 1280.73,317.585 1290.98,305.903 1301.22,318.435 1311.47,319.366 1321.72,322.068 
  1331.96,316.217 1342.21,306.47 1352.45,330.262 1362.7,344.27 1372.94,315.125 1383.19,306.592 1393.43,297.346 1403.68,289.789 1413.92,273.867 1424.17,244.601 
  1434.41,245.54 1444.66,238.784 1454.9,186.952 1465.15,185.695 1475.39,198.21 1485.64,186.592 1495.88,163.68 1506.13,168.313 1516.38,167.041 1526.62,159.661 
  1536.87,146.947 1547.11,148.915 1557.36,156.905 1567.6,152.015 1577.85,157.976 1588.09,191.651 1598.34,151.037 1608.58,137.769 1618.83,126.707 1629.07,112.528 
  1639.32,150.282 1649.56,136.107 1659.81,126.602 1670.05,115.57 1680.3,114.148 1690.54,132.81 1700.79,117.863 1711.04,126.91 1721.28,145.755 1731.53,167.153 
  1741.77,170.813 1752.02,189.276 1762.26,192.434 1772.51,202.426 1782.75,183.412 1793,192.846 1803.24,215.559 1813.49,235.663 1823.73,218.015 1833.98,228.083 
  
  "/>
<path clip-path="url(#clip840)" d="
M1956.07 458.098 L2352.76 458.098 L2352.76 95.2176 L1956.07 95.2176  Z
  " fill="#ffffff" fill-rule="evenodd" fill-opacity="1"/>
<polyline clip-path="url(#clip840)" style="stroke:#000000; stroke-linecap:butt; stroke-linejoin:round; stroke-width:4; stroke-opacity:1; fill:none" points="
  1956.07,458.098 2352.76,458.098 2352.76,95.2176 1956.07,95.2176 1956.07,458.098 
  "/>
<polyline clip-path="url(#clip840)" style="stroke:#009af9; stroke-linecap:butt; stroke-linejoin:round; stroke-width:4; stroke-opacity:1; fill:none" points="
  1980.48,155.698 2126.92,155.698 
  "/>
<path clip-path="url(#clip840)" d="M2163.22 150.038 Q2159.8 150.038 2157.81 152.723 Q2155.82 155.385 2155.82 160.038 Q2155.82 164.691 2157.78 167.376 Q2159.78 170.038 2163.22 170.038 Q2166.63 170.038 2168.62 167.353 Q2170.61 164.667 2170.61 160.038 Q2170.61 155.431 2168.62 152.746 Q2166.63 150.038 2163.22 150.038 M2163.22 146.427 Q2168.78 146.427 2171.95 150.038 Q2175.12 153.649 2175.12 160.038 Q2175.12 166.404 2171.95 170.038 Q2168.78 173.649 2163.22 173.649 Q2157.65 173.649 2154.47 170.038 Q2151.33 166.404 2151.33 160.038 Q2151.33 153.649 2154.47 150.038 Q2157.65 146.427 2163.22 146.427 Z" fill="#000000" fill-rule="evenodd" fill-opacity="1" /><path clip-path="url(#clip840)" d="M2181.74 162.746 L2181.74 147.052 L2186 147.052 L2186 162.584 Q2186 166.265 2187.44 168.116 Q2188.87 169.945 2191.74 169.945 Q2195.19 169.945 2197.18 167.746 Q2199.2 165.547 2199.2 161.751 L2199.2 147.052 L2203.46 147.052 L2203.46 172.978 L2199.2 172.978 L2199.2 168.996 Q2197.65 171.357 2195.59 172.515 Q2193.55 173.649 2190.84 173.649 Q2186.37 173.649 2184.06 170.871 Q2181.74 168.093 2181.74 162.746 M2192.46 146.427 L2192.46 146.427 Z" fill="#000000" fill-rule="evenodd" fill-opacity="1" /><path clip-path="url(#clip840)" d="M2216.44 139.691 L2216.44 147.052 L2225.22 147.052 L2225.22 150.362 L2216.44 150.362 L2216.44 164.436 Q2216.44 167.607 2217.3 168.51 Q2218.18 169.413 2220.84 169.413 L2225.22 169.413 L2225.22 172.978 L2220.84 172.978 Q2215.91 172.978 2214.03 171.149 Q2212.16 169.297 2212.16 164.436 L2212.16 150.362 L2209.03 150.362 L2209.03 147.052 L2212.16 147.052 L2212.16 139.691 L2216.44 139.691 Z" fill="#000000" fill-rule="evenodd" fill-opacity="1" /><path clip-path="url(#clip840)" d="M2234.94 169.089 L2234.94 182.839 L2230.65 182.839 L2230.65 147.052 L2234.94 147.052 L2234.94 150.987 Q2236.28 148.672 2238.32 147.561 Q2240.38 146.427 2243.22 146.427 Q2247.95 146.427 2250.89 150.177 Q2253.85 153.927 2253.85 160.038 Q2253.85 166.149 2250.89 169.899 Q2247.95 173.649 2243.22 173.649 Q2240.38 173.649 2238.32 172.538 Q2236.28 171.403 2234.94 169.089 M2249.43 160.038 Q2249.43 155.339 2247.48 152.677 Q2245.56 149.992 2242.18 149.992 Q2238.8 149.992 2236.86 152.677 Q2234.94 155.339 2234.94 160.038 Q2234.94 164.737 2236.86 167.422 Q2238.8 170.084 2242.18 170.084 Q2245.56 170.084 2247.48 167.422 Q2249.43 164.737 2249.43 160.038 Z" fill="#000000" fill-rule="evenodd" fill-opacity="1" /><path clip-path="url(#clip840)" d="M2260.47 162.746 L2260.47 147.052 L2264.73 147.052 L2264.73 162.584 Q2264.73 166.265 2266.16 168.116 Q2267.6 169.945 2270.47 169.945 Q2273.92 169.945 2275.91 167.746 Q2277.92 165.547 2277.92 161.751 L2277.92 147.052 L2282.18 147.052 L2282.18 172.978 L2277.92 172.978 L2277.92 168.996 Q2276.37 171.357 2274.31 172.515 Q2272.28 173.649 2269.57 173.649 Q2265.1 173.649 2262.78 170.871 Q2260.47 168.093 2260.47 162.746 M2271.19 146.427 L2271.19 146.427 Z" fill="#000000" fill-rule="evenodd" fill-opacity="1" /><path clip-path="url(#clip840)" d="M2295.17 139.691 L2295.17 147.052 L2303.94 147.052 L2303.94 150.362 L2295.17 150.362 L2295.17 164.436 Q2295.17 167.607 2296.02 168.51 Q2296.9 169.413 2299.57 169.413 L2303.94 169.413 L2303.94 172.978 L2299.57 172.978 Q2294.64 172.978 2292.76 171.149 Q2290.89 169.297 2290.89 164.436 L2290.89 150.362 L2287.76 150.362 L2287.76 147.052 L2290.89 147.052 L2290.89 139.691 L2295.17 139.691 Z" fill="#000000" fill-rule="evenodd" fill-opacity="1" /><polyline clip-path="url(#clip840)" style="stroke:#e26f46; stroke-linecap:butt; stroke-linejoin:round; stroke-width:4; stroke-opacity:1; fill:none" points="
  1980.48,216.178 2126.92,216.178 
  "/>
<path clip-path="url(#clip840)" d="M2171.84 208.527 L2171.84 212.509 Q2170.03 211.513 2168.2 211.027 Q2166.4 210.518 2164.54 210.518 Q2160.4 210.518 2158.11 213.157 Q2155.82 215.772 2155.82 220.518 Q2155.82 225.263 2158.11 227.902 Q2160.4 230.518 2164.54 230.518 Q2166.4 230.518 2168.2 230.032 Q2170.03 229.522 2171.84 228.527 L2171.84 232.462 Q2170.05 233.296 2168.13 233.712 Q2166.23 234.129 2164.08 234.129 Q2158.22 234.129 2154.78 230.448 Q2151.33 226.768 2151.33 220.518 Q2151.33 214.175 2154.8 210.541 Q2158.29 206.907 2164.36 206.907 Q2166.33 206.907 2168.2 207.323 Q2170.08 207.717 2171.84 208.527 Z" fill="#000000" fill-rule="evenodd" fill-opacity="1" /><path clip-path="url(#clip840)" d="M2189.29 210.518 Q2185.86 210.518 2183.87 213.203 Q2181.88 215.865 2181.88 220.518 Q2181.88 225.171 2183.85 227.856 Q2185.84 230.518 2189.29 230.518 Q2192.69 230.518 2194.68 227.833 Q2196.67 225.147 2196.67 220.518 Q2196.67 215.911 2194.68 213.226 Q2192.69 210.518 2189.29 210.518 M2189.29 206.907 Q2194.84 206.907 2198.02 210.518 Q2201.19 214.129 2201.19 220.518 Q2201.19 226.884 2198.02 230.518 Q2194.84 234.129 2189.29 234.129 Q2183.71 234.129 2180.54 230.518 Q2177.39 226.884 2177.39 220.518 Q2177.39 214.129 2180.54 210.518 Q2183.71 206.907 2189.29 206.907 Z" fill="#000000" fill-rule="evenodd" fill-opacity="1" /><path clip-path="url(#clip840)" d="M2229.8 217.809 L2229.8 233.458 L2225.54 233.458 L2225.54 217.948 Q2225.54 214.268 2224.1 212.439 Q2222.67 210.61 2219.8 210.61 Q2216.35 210.61 2214.36 212.81 Q2212.37 215.009 2212.37 218.805 L2212.37 233.458 L2208.09 233.458 L2208.09 207.532 L2212.37 207.532 L2212.37 211.56 Q2213.9 209.222 2215.96 208.064 Q2218.04 206.907 2220.75 206.907 Q2225.22 206.907 2227.51 209.685 Q2229.8 212.439 2229.8 217.809 Z" fill="#000000" fill-rule="evenodd" fill-opacity="1" /><path clip-path="url(#clip840)" d="M2254.82 208.296 L2254.82 212.323 Q2253.02 211.397 2251.07 210.935 Q2249.13 210.472 2247.04 210.472 Q2243.87 210.472 2242.28 211.444 Q2240.7 212.416 2240.7 214.36 Q2240.7 215.842 2241.84 216.698 Q2242.97 217.532 2246.4 218.296 L2247.85 218.62 Q2252.39 219.592 2254.29 221.374 Q2256.21 223.134 2256.21 226.305 Q2256.21 229.916 2253.34 232.022 Q2250.49 234.129 2245.49 234.129 Q2243.41 234.129 2241.14 233.712 Q2238.9 233.319 2236.4 232.508 L2236.4 228.11 Q2238.76 229.337 2241.05 229.962 Q2243.34 230.564 2245.59 230.564 Q2248.59 230.564 2250.22 229.546 Q2251.84 228.504 2251.84 226.629 Q2251.84 224.893 2250.65 223.967 Q2249.5 223.041 2245.54 222.184 L2244.06 221.837 Q2240.1 221.004 2238.34 219.291 Q2236.58 217.555 2236.58 214.546 Q2236.58 210.888 2239.17 208.898 Q2241.77 206.907 2246.53 206.907 Q2248.9 206.907 2250.98 207.254 Q2253.06 207.601 2254.82 208.296 Z" fill="#000000" fill-rule="evenodd" fill-opacity="1" /><polyline clip-path="url(#clip840)" style="stroke:#3da44d; stroke-linecap:butt; stroke-linejoin:round; stroke-width:4; stroke-opacity:1; fill:none" points="
  1980.48,276.658 2126.92,276.658 
  "/>
<path clip-path="url(#clip840)" d="M2173.04 278.289 L2173.04 293.938 L2168.78 293.938 L2168.78 278.428 Q2168.78 274.748 2167.35 272.919 Q2165.91 271.09 2163.04 271.09 Q2159.59 271.09 2157.6 273.29 Q2155.61 275.489 2155.61 279.285 L2155.61 293.938 L2151.33 293.938 L2151.33 257.919 L2155.61 257.919 L2155.61 272.04 Q2157.14 269.702 2159.2 268.544 Q2161.28 267.387 2163.99 267.387 Q2168.46 267.387 2170.75 270.165 Q2173.04 272.919 2173.04 278.289 Z" fill="#000000" fill-rule="evenodd" fill-opacity="1" /><path clip-path="url(#clip840)" d="M2191.58 270.998 Q2188.16 270.998 2186.16 273.683 Q2184.17 276.345 2184.17 280.998 Q2184.17 285.651 2186.14 288.336 Q2188.13 290.998 2191.58 290.998 Q2194.98 290.998 2196.97 288.313 Q2198.97 285.627 2198.97 280.998 Q2198.97 276.391 2196.97 273.706 Q2194.98 270.998 2191.58 270.998 M2191.58 267.387 Q2197.14 267.387 2200.31 270.998 Q2203.48 274.609 2203.48 280.998 Q2203.48 287.364 2200.31 290.998 Q2197.14 294.609 2191.58 294.609 Q2186 294.609 2182.83 290.998 Q2179.68 287.364 2179.68 280.998 Q2179.68 274.609 2182.83 270.998 Q2186 267.387 2191.58 267.387 Z" fill="#000000" fill-rule="evenodd" fill-opacity="1" /><path clip-path="url(#clip840)" d="M2210.1 283.706 L2210.1 268.012 L2214.36 268.012 L2214.36 283.544 Q2214.36 287.225 2215.79 289.076 Q2217.23 290.905 2220.1 290.905 Q2223.55 290.905 2225.54 288.706 Q2227.55 286.507 2227.55 282.711 L2227.55 268.012 L2231.81 268.012 L2231.81 293.938 L2227.55 293.938 L2227.55 289.956 Q2226 292.317 2223.94 293.475 Q2221.91 294.609 2219.2 294.609 Q2214.73 294.609 2212.41 291.831 Q2210.1 289.053 2210.1 283.706 M2220.82 267.387 L2220.82 267.387 Z" fill="#000000" fill-rule="evenodd" fill-opacity="1" /><path clip-path="url(#clip840)" d="M2255.61 271.993 Q2254.89 271.577 2254.03 271.391 Q2253.2 271.183 2252.18 271.183 Q2248.57 271.183 2246.63 273.544 Q2244.71 275.882 2244.71 280.28 L2244.71 293.938 L2240.42 293.938 L2240.42 268.012 L2244.71 268.012 L2244.71 272.04 Q2246.05 269.678 2248.2 268.544 Q2250.35 267.387 2253.43 267.387 Q2253.87 267.387 2254.4 267.456 Q2254.94 267.503 2255.59 267.618 L2255.61 271.993 Z" fill="#000000" fill-rule="evenodd" fill-opacity="1" /><path clip-path="url(#clip840)" d="M2276.6 268.776 L2276.6 272.803 Q2274.8 271.877 2272.85 271.415 Q2270.91 270.952 2268.83 270.952 Q2265.65 270.952 2264.06 271.924 Q2262.48 272.896 2262.48 274.84 Q2262.48 276.322 2263.62 277.178 Q2264.75 278.012 2268.18 278.776 L2269.64 279.1 Q2274.17 280.072 2276.07 281.854 Q2277.99 283.614 2277.99 286.785 Q2277.99 290.396 2275.12 292.502 Q2272.28 294.609 2267.28 294.609 Q2265.19 294.609 2262.92 294.192 Q2260.68 293.799 2258.18 292.988 L2258.18 288.59 Q2260.54 289.817 2262.83 290.442 Q2265.12 291.044 2267.37 291.044 Q2270.38 291.044 2272 290.026 Q2273.62 288.984 2273.62 287.109 Q2273.62 285.373 2272.44 284.447 Q2271.28 283.521 2267.32 282.664 L2265.84 282.317 Q2261.88 281.484 2260.12 279.771 Q2258.36 278.035 2258.36 275.026 Q2258.36 271.368 2260.96 269.378 Q2263.55 267.387 2268.32 267.387 Q2270.68 267.387 2272.76 267.734 Q2274.84 268.081 2276.6 268.776 Z" fill="#000000" fill-rule="evenodd" fill-opacity="1" /><polyline clip-path="url(#clip840)" style="stroke:#c271d2; stroke-linecap:butt; stroke-linejoin:round; stroke-width:4; stroke-opacity:1; fill:none" points="
  1980.48,337.138 2126.92,337.138 
  "/>
<path clip-path="url(#clip840)" d="M2166.51 332.473 Q2165.79 332.057 2164.94 331.871 Q2164.1 331.663 2163.09 331.663 Q2159.47 331.663 2157.53 334.024 Q2155.61 336.362 2155.61 340.76 L2155.61 354.418 L2151.33 354.418 L2151.33 328.492 L2155.61 328.492 L2155.61 332.52 Q2156.95 330.158 2159.1 329.024 Q2161.26 327.867 2164.34 327.867 Q2164.78 327.867 2165.31 327.936 Q2165.84 327.983 2166.49 328.098 L2166.51 332.473 Z" fill="#000000" fill-rule="evenodd" fill-opacity="1" /><polyline clip-path="url(#clip840)" style="stroke:#ac8d18; stroke-linecap:butt; stroke-linejoin:round; stroke-width:4; stroke-opacity:1; fill:none" points="
  1980.48,397.618 2126.92,397.618 
  "/>
<path clip-path="url(#clip840)" d="M2151.33 388.972 L2155.59 388.972 L2160.91 409.203 L2166.21 388.972 L2171.23 388.972 L2176.56 409.203 L2181.86 388.972 L2186.12 388.972 L2179.34 414.898 L2174.31 414.898 L2168.73 393.648 L2163.13 414.898 L2158.11 414.898 L2151.33 388.972 Z" fill="#000000" fill-rule="evenodd" fill-opacity="1" /></svg>
