<?xml version="1.0" encoding="utf-8"?>
<svg xmlns="http://www.w3.org/2000/svg" xmlns:xlink="http://www.w3.org/1999/xlink" width="600" height="400" viewBox="0 0 2400 1600">
<defs>
  <clipPath id="clip0000">
    <rect x="0" y="0" width="2400" height="1600"/>
  </clipPath>
</defs>
<polygon clip-path="url(#clip0000)" points="
0,1600 2400,1600 2400,0 0,0 
  " fill="#ffffff" fill-rule="evenodd" fill-opacity="1"/>
<defs>
  <clipPath id="clip0001">
    <rect x="480" y="0" width="1681" height="1600"/>
  </clipPath>
</defs>
<polygon clip-path="url(#clip0000)" points="
153.898,687.475 2352.76,687.475 2352.76,121.675 153.898,121.675 
  " fill="#ffffff" fill-rule="evenodd" fill-opacity="1"/>
<defs>
  <clipPath id="clip0002">
    <rect x="153" y="121" width="2200" height="567"/>
  </clipPath>
</defs>
<polyline clip-path="url(#clip0002)" style="stroke:#000000; stroke-width:2; stroke-opacity:0.1; fill:none" points="
  646.431,687.475 646.431,121.675 
  "/>
<polyline clip-path="url(#clip0002)" style="stroke:#000000; stroke-width:2; stroke-opacity:0.1; fill:none" points="
  1186.79,687.475 1186.79,121.675 
  "/>
<polyline clip-path="url(#clip0002)" style="stroke:#000000; stroke-width:2; stroke-opacity:0.1; fill:none" points="
  1727.15,687.475 1727.15,121.675 
  "/>
<polyline clip-path="url(#clip0002)" style="stroke:#000000; stroke-width:2; stroke-opacity:0.1; fill:none" points="
  2267.5,687.475 2267.5,121.675 
  "/>
<polyline clip-path="url(#clip0002)" style="stroke:#000000; stroke-width:2; stroke-opacity:0.1; fill:none" points="
  153.898,671.462 2352.76,671.462 
  "/>
<polyline clip-path="url(#clip0002)" style="stroke:#000000; stroke-width:2; stroke-opacity:0.1; fill:none" points="
  153.898,591.587 2352.76,591.587 
  "/>
<polyline clip-path="url(#clip0002)" style="stroke:#000000; stroke-width:2; stroke-opacity:0.1; fill:none" points="
  153.898,511.713 2352.76,511.713 
  "/>
<polyline clip-path="url(#clip0002)" style="stroke:#000000; stroke-width:2; stroke-opacity:0.1; fill:none" points="
  153.898,431.839 2352.76,431.839 
  "/>
<polyline clip-path="url(#clip0002)" style="stroke:#000000; stroke-width:2; stroke-opacity:0.1; fill:none" points="
  153.898,351.965 2352.76,351.965 
  "/>
<polyline clip-path="url(#clip0002)" style="stroke:#000000; stroke-width:2; stroke-opacity:0.1; fill:none" points="
  153.898,272.091 2352.76,272.091 
  "/>
<polyline clip-path="url(#clip0002)" style="stroke:#000000; stroke-width:2; stroke-opacity:0.1; fill:none" points="
  153.898,192.217 2352.76,192.217 
  "/>
<polyline clip-path="url(#clip0000)" style="stroke:#000000; stroke-width:4; stroke-opacity:1; fill:none" points="
  153.898,687.475 2352.76,687.475 
  "/>
<polyline clip-path="url(#clip0000)" style="stroke:#000000; stroke-width:4; stroke-opacity:1; fill:none" points="
  153.898,687.475 153.898,121.675 
  "/>
<polyline clip-path="url(#clip0000)" style="stroke:#000000; stroke-width:4; stroke-opacity:1; fill:none" points="
  646.431,687.475 646.431,678.988 
  "/>
<polyline clip-path="url(#clip0000)" style="stroke:#000000; stroke-width:4; stroke-opacity:1; fill:none" points="
  1186.79,687.475 1186.79,678.988 
  "/>
<polyline clip-path="url(#clip0000)" style="stroke:#000000; stroke-width:4; stroke-opacity:1; fill:none" points="
  1727.15,687.475 1727.15,678.988 
  "/>
<polyline clip-path="url(#clip0000)" style="stroke:#000000; stroke-width:4; stroke-opacity:1; fill:none" points="
  2267.5,687.475 2267.5,678.988 
  "/>
<polyline clip-path="url(#clip0000)" style="stroke:#000000; stroke-width:4; stroke-opacity:1; fill:none" points="
  153.898,671.462 186.881,671.462 
  "/>
<polyline clip-path="url(#clip0000)" style="stroke:#000000; stroke-width:4; stroke-opacity:1; fill:none" points="
  153.898,591.587 186.881,591.587 
  "/>
<polyline clip-path="url(#clip0000)" style="stroke:#000000; stroke-width:4; stroke-opacity:1; fill:none" points="
  153.898,511.713 186.881,511.713 
  "/>
<polyline clip-path="url(#clip0000)" style="stroke:#000000; stroke-width:4; stroke-opacity:1; fill:none" points="
  153.898,431.839 186.881,431.839 
  "/>
<polyline clip-path="url(#clip0000)" style="stroke:#000000; stroke-width:4; stroke-opacity:1; fill:none" points="
  153.898,351.965 186.881,351.965 
  "/>
<polyline clip-path="url(#clip0000)" style="stroke:#000000; stroke-width:4; stroke-opacity:1; fill:none" points="
  153.898,272.091 186.881,272.091 
  "/>
<polyline clip-path="url(#clip0000)" style="stroke:#000000; stroke-width:4; stroke-opacity:1; fill:none" points="
  153.898,192.217 186.881,192.217 
  "/>
<g clip-path="url(#clip0000)">
<text style="fill:#000000; fill-opacity:1; font-family:Arial,Helvetica Neue,Helvetica,sans-serif; font-size:48px; text-anchor:middle;" transform="rotate(0, 646.431, 741.475)" x="646.431" y="741.475">2.45</text>
</g>
<g clip-path="url(#clip0000)">
<text style="fill:#000000; fill-opacity:1; font-family:Arial,Helvetica Neue,Helvetica,sans-serif; font-size:48px; text-anchor:middle;" transform="rotate(0, 1186.79, 741.475)" x="1186.79" y="741.475">2.50</text>
</g>
<g clip-path="url(#clip0000)">
<text style="fill:#000000; fill-opacity:1; font-family:Arial,Helvetica Neue,Helvetica,sans-serif; font-size:48px; text-anchor:middle;" transform="rotate(0, 1727.15, 741.475)" x="1727.15" y="741.475">2.55</text>
</g>
<g clip-path="url(#clip0000)">
<text style="fill:#000000; fill-opacity:1; font-family:Arial,Helvetica Neue,Helvetica,sans-serif; font-size:48px; text-anchor:middle;" transform="rotate(0, 2267.5, 741.475)" x="2267.5" y="741.475">2.60</text>
</g>
<g clip-path="url(#clip0000)">
<text style="fill:#000000; fill-opacity:1; font-family:Arial,Helvetica Neue,Helvetica,sans-serif; font-size:48px; text-anchor:end;" transform="rotate(0, 129.898, 688.962)" x="129.898" y="688.962">0</text>
</g>
<g clip-path="url(#clip0000)">
<text style="fill:#000000; fill-opacity:1; font-family:Arial,Helvetica Neue,Helvetica,sans-serif; font-size:48px; text-anchor:end;" transform="rotate(0, 129.898, 609.087)" x="129.898" y="609.087">2</text>
</g>
<g clip-path="url(#clip0000)">
<text style="fill:#000000; fill-opacity:1; font-family:Arial,Helvetica Neue,Helvetica,sans-serif; font-size:48px; text-anchor:end;" transform="rotate(0, 129.898, 529.213)" x="129.898" y="529.213">4</text>
</g>
<g clip-path="url(#clip0000)">
<text style="fill:#000000; fill-opacity:1; font-family:Arial,Helvetica Neue,Helvetica,sans-serif; font-size:48px; text-anchor:end;" transform="rotate(0, 129.898, 449.339)" x="129.898" y="449.339">6</text>
</g>
<g clip-path="url(#clip0000)">
<text style="fill:#000000; fill-opacity:1; font-family:Arial,Helvetica Neue,Helvetica,sans-serif; font-size:48px; text-anchor:end;" transform="rotate(0, 129.898, 369.465)" x="129.898" y="369.465">8</text>
</g>
<g clip-path="url(#clip0000)">
<text style="fill:#000000; fill-opacity:1; font-family:Arial,Helvetica Neue,Helvetica,sans-serif; font-size:48px; text-anchor:end;" transform="rotate(0, 129.898, 289.591)" x="129.898" y="289.591">10</text>
</g>
<g clip-path="url(#clip0000)">
<text style="fill:#000000; fill-opacity:1; font-family:Arial,Helvetica Neue,Helvetica,sans-serif; font-size:48px; text-anchor:end;" transform="rotate(0, 129.898, 209.717)" x="129.898" y="209.717">12</text>
</g>
<g clip-path="url(#clip0000)">
<text style="fill:#000000; fill-opacity:1; font-family:Arial,Helvetica Neue,Helvetica,sans-serif; font-size:84px; text-anchor:middle;" transform="rotate(0, 1253.33, 73.2)" x="1253.33" y="73.2">OLS</text>
</g>
<polygon clip-path="url(#clip0002)" points="
216.13,666.597 221.225,666.387 226.32,666.187 231.415,665.996 236.51,665.817 241.605,665.65 246.701,665.497 251.796,665.358 256.891,665.235 261.986,665.127 
  267.081,665.036 272.176,664.96 277.271,664.901 282.366,664.856 287.462,664.824 292.557,664.805 297.652,664.796 302.747,664.795 307.842,664.798 312.937,664.803 
  318.032,664.805 323.128,664.801 328.223,664.784 333.318,664.752 338.413,664.697 343.508,664.615 348.603,664.5 353.698,664.347 358.793,664.149 363.889,663.901 
  368.984,663.599 374.079,663.235 379.174,662.807 384.269,662.309 389.364,661.738 394.459,661.089 399.554,660.36 404.65,659.549 409.745,658.653 414.84,657.671 
  419.935,656.603 425.03,655.447 430.125,654.205 435.22,652.877 440.315,651.465 445.411,649.97 450.506,648.397 455.601,646.747 460.696,645.024 465.791,643.234 
  470.886,641.382 475.981,639.473 481.076,637.515 486.172,635.513 491.267,633.476 496.362,631.411 501.457,629.327 506.552,627.233 511.647,625.136 516.742,623.044 
  521.838,620.967 526.933,618.91 532.028,616.879 537.123,614.881 542.218,612.918 547.313,610.992 552.408,609.105 557.503,607.254 562.599,605.437 567.694,603.648 
  572.789,601.879 577.884,600.121 582.979,598.364 588.074,596.595 593.169,594.799 598.264,592.961 603.36,591.067 608.455,589.098 613.55,587.039 618.645,584.874 
  623.74,582.585 628.835,580.159 633.93,577.58 639.025,574.837 644.121,571.917 649.216,568.811 654.311,565.512 659.406,562.013 664.501,558.31 669.596,554.4 
  674.691,550.285 679.787,545.964 684.882,541.442 689.977,536.724 695.072,531.815 700.167,526.725 705.262,521.462 710.357,516.037 715.452,510.461 720.548,504.748 
  720.548,671.462 715.452,671.462 710.357,671.462 705.262,671.462 700.167,671.462 695.072,671.462 689.977,671.462 684.882,671.462 679.787,671.462 674.691,671.462 
  669.596,671.462 664.501,671.462 659.406,671.462 654.311,671.462 649.216,671.462 644.121,671.462 639.025,671.462 633.93,671.462 628.835,671.462 623.74,671.462 
  618.645,671.462 613.55,671.462 608.455,671.462 603.36,671.462 598.264,671.462 593.169,671.462 588.074,671.462 582.979,671.462 577.884,671.462 572.789,671.462 
  567.694,671.462 562.599,671.462 557.503,671.462 552.408,671.462 547.313,671.462 542.218,671.462 537.123,671.462 532.028,671.462 526.933,671.462 521.838,671.462 
  516.742,671.462 511.647,671.462 506.552,671.462 501.457,671.462 496.362,671.462 491.267,671.462 486.172,671.462 481.076,671.462 475.981,671.462 470.886,671.462 
  465.791,671.462 460.696,671.462 455.601,671.462 450.506,671.462 445.411,671.462 440.315,671.462 435.22,671.462 430.125,671.462 425.03,671.462 419.935,671.462 
  414.84,671.462 409.745,671.462 404.65,671.462 399.554,671.462 394.459,671.462 389.364,671.462 384.269,671.462 379.174,671.462 374.079,671.462 368.984,671.462 
  363.889,671.462 358.793,671.462 353.698,671.462 348.603,671.462 343.508,671.462 338.413,671.462 333.318,671.462 328.223,671.462 323.128,671.462 318.032,671.462 
  312.937,671.462 307.842,671.462 302.747,671.462 297.652,671.462 292.557,671.462 287.462,671.462 282.366,671.462 277.271,671.462 272.176,671.462 267.081,671.462 
  261.986,671.462 256.891,671.462 251.796,671.462 246.701,671.462 241.605,671.462 236.51,671.462 231.415,671.462 226.32,671.462 221.225,671.462 216.13,671.462 
  
  " fill="#ffa500" fill-rule="evenodd" fill-opacity="0.5"/>
<polyline clip-path="url(#clip0002)" style="stroke:#ffa500; stroke-width:4; stroke-opacity:1; fill:none" points="
  216.13,666.597 221.225,666.387 226.32,666.187 231.415,665.996 236.51,665.817 241.605,665.65 246.701,665.497 251.796,665.358 256.891,665.235 261.986,665.127 
  267.081,665.036 272.176,664.96 277.271,664.901 282.366,664.856 287.462,664.824 292.557,664.805 297.652,664.796 302.747,664.795 307.842,664.798 312.937,664.803 
  318.032,664.805 323.128,664.801 328.223,664.784 333.318,664.752 338.413,664.697 343.508,664.615 348.603,664.5 353.698,664.347 358.793,664.149 363.889,663.901 
  368.984,663.599 374.079,663.235 379.174,662.807 384.269,662.309 389.364,661.738 394.459,661.089 399.554,660.36 404.65,659.549 409.745,658.653 414.84,657.671 
  419.935,656.603 425.03,655.447 430.125,654.205 435.22,652.877 440.315,651.465 445.411,649.97 450.506,648.397 455.601,646.747 460.696,645.024 465.791,643.234 
  470.886,641.382 475.981,639.473 481.076,637.515 486.172,635.513 491.267,633.476 496.362,631.411 501.457,629.327 506.552,627.233 511.647,625.136 516.742,623.044 
  521.838,620.967 526.933,618.91 532.028,616.879 537.123,614.881 542.218,612.918 547.313,610.992 552.408,609.105 557.503,607.254 562.599,605.437 567.694,603.648 
  572.789,601.879 577.884,600.121 582.979,598.364 588.074,596.595 593.169,594.799 598.264,592.961 603.36,591.067 608.455,589.098 613.55,587.039 618.645,584.874 
  623.74,582.585 628.835,580.159 633.93,577.58 639.025,574.837 644.121,571.917 649.216,568.811 654.311,565.512 659.406,562.013 664.501,558.31 669.596,554.4 
  674.691,550.285 679.787,545.964 684.882,541.442 689.977,536.724 695.072,531.815 700.167,526.725 705.262,521.462 710.357,516.037 715.452,510.461 720.548,504.748 
  
  "/>
<polygon clip-path="url(#clip0002)" points="
720.548,504.748 730.083,493.735 739.618,482.382 749.153,470.788 758.688,459.054 768.223,447.275 777.758,435.537 787.293,423.913 796.828,412.459 806.363,401.209 
  815.898,390.174 825.433,379.346 834.968,368.695 844.503,358.178 854.038,347.741 863.573,337.327 873.108,326.883 882.643,316.363 892.178,305.736 901.713,294.984 
  911.248,284.112 920.784,273.139 930.319,262.103 939.854,251.059 949.389,240.072 958.924,229.223 968.459,218.598 977.994,208.29 987.529,198.396 997.064,189.017 
  1006.6,180.25 1016.13,172.193 1025.67,164.935 1035.2,158.557 1044.74,153.127 1054.27,148.691 1063.81,145.275 1073.34,142.872 1082.88,141.445 1092.41,140.918 
  1101.95,141.179 1111.48,142.082 1121.02,143.449 1130.55,145.083 1140.09,146.779 1149.62,148.336 1159.16,149.572 1168.69,150.342 1178.23,150.546 1187.76,150.139 
  1197.3,149.139 1206.83,147.621 1216.37,145.721 1225.91,143.617 1235.44,141.524 1244.98,139.68 1254.51,138.324 1264.05,137.688 1273.58,137.982 1283.12,139.377 
  1292.65,141.999 1302.19,145.921 1311.72,151.157 1321.26,157.663 1330.79,165.338 1340.33,174.031 1349.86,183.549 1359.4,193.671 1368.93,204.16 1378.47,214.781 
  1388,225.312 1397.54,235.56 1407.07,245.37 1416.61,254.632 1426.14,263.281 1435.68,271.301 1445.21,278.716 1454.75,285.588 1464.28,292.006 1473.82,298.081 
  1483.35,303.938 1492.89,309.708 1502.42,315.526 1511.96,321.525 1521.49,327.831 1531.03,334.559 1540.56,341.807 1550.1,349.657 1559.63,358.161 1569.17,367.345 
  1578.7,377.204 1588.24,387.697 1597.77,398.754 1607.31,410.277 1616.84,422.143 1626.38,434.219 1635.91,446.365 1645.45,458.443 1654.98,470.333 1664.52,481.929 
  1664.52,671.462 1654.98,671.462 1645.45,671.462 1635.91,671.462 1626.38,671.462 1616.84,671.462 1607.31,671.462 1597.77,671.462 1588.24,671.462 1578.7,671.462 
  1569.17,671.462 1559.63,671.462 1550.1,671.462 1540.56,671.462 1531.03,671.462 1521.49,671.462 1511.96,671.462 1502.42,671.462 1492.89,671.462 1483.35,671.462 
  1473.82,671.462 1464.28,671.462 1454.75,671.462 1445.21,671.462 1435.68,671.462 1426.14,671.462 1416.61,671.462 1407.07,671.462 1397.54,671.462 1388,671.462 
  1378.47,671.462 1368.93,671.462 1359.4,671.462 1349.86,671.462 1340.33,671.462 1330.79,671.462 1321.26,671.462 1311.72,671.462 1302.19,671.462 1292.65,671.462 
  1283.12,671.462 1273.58,671.462 1264.05,671.462 1254.51,671.462 1244.98,671.462 1235.44,671.462 1225.91,671.462 1216.37,671.462 1206.83,671.462 1197.3,671.462 
  1187.76,671.462 1178.23,671.462 1168.69,671.462 1159.16,671.462 1149.62,671.462 1140.09,671.462 1130.55,671.462 1121.02,671.462 1111.48,671.462 1101.95,671.462 
  1092.41,671.462 1082.88,671.462 1073.34,671.462 1063.81,671.462 1054.27,671.462 1044.74,671.462 1035.2,671.462 1025.67,671.462 1016.13,671.462 1006.6,671.462 
  997.064,671.462 987.529,671.462 977.994,671.462 968.459,671.462 958.924,671.462 949.389,671.462 939.854,671.462 930.319,671.462 920.784,671.462 911.248,671.462 
  901.713,671.462 892.178,671.462 882.643,671.462 873.108,671.462 863.573,671.462 854.038,671.462 844.503,671.462 834.968,671.462 825.433,671.462 815.898,671.462 
  806.363,671.462 796.828,671.462 787.293,671.462 777.758,671.462 768.223,671.462 758.688,671.462 749.153,671.462 739.618,671.462 730.083,671.462 720.548,671.462 
  
  " fill="#008000" fill-rule="evenodd" fill-opacity="0.5"/>
<polyline clip-path="url(#clip0002)" style="stroke:#008000; stroke-width:4; stroke-opacity:1; fill:none" points="
  720.548,504.748 730.083,493.735 739.618,482.382 749.153,470.788 758.688,459.054 768.223,447.275 777.758,435.537 787.293,423.913 796.828,412.459 806.363,401.209 
  815.898,390.174 825.433,379.346 834.968,368.695 844.503,358.178 854.038,347.741 863.573,337.327 873.108,326.883 882.643,316.363 892.178,305.736 901.713,294.984 
  911.248,284.112 920.784,273.139 930.319,262.103 939.854,251.059 949.389,240.072 958.924,229.223 968.459,218.598 977.994,208.29 987.529,198.396 997.064,189.017 
  1006.6,180.25 1016.13,172.193 1025.67,164.935 1035.2,158.557 1044.74,153.127 1054.27,148.691 1063.81,145.275 1073.34,142.872 1082.88,141.445 1092.41,140.918 
  1101.95,141.179 1111.48,142.082 1121.02,143.449 1130.55,145.083 1140.09,146.779 1149.62,148.336 1159.16,149.572 1168.69,150.342 1178.23,150.546 1187.76,150.139 
  1197.3,149.139 1206.83,147.621 1216.37,145.721 1225.91,143.617 1235.44,141.524 1244.98,139.68 1254.51,138.324 1264.05,137.688 1273.58,137.982 1283.12,139.377 
  1292.65,141.999 1302.19,145.921 1311.72,151.157 1321.26,157.663 1330.79,165.338 1340.33,174.031 1349.86,183.549 1359.4,193.671 1368.93,204.16 1378.47,214.781 
  1388,225.312 1397.54,235.56 1407.07,245.37 1416.61,254.632 1426.14,263.281 1435.68,271.301 1445.21,278.716 1454.75,285.588 1464.28,292.006 1473.82,298.081 
  1483.35,303.938 1492.89,309.708 1502.42,315.526 1511.96,321.525 1521.49,327.831 1531.03,334.559 1540.56,341.807 1550.1,349.657 1559.63,358.161 1569.17,367.345 
  1578.7,377.204 1588.24,387.697 1597.77,398.754 1607.31,410.277 1616.84,422.143 1626.38,434.219 1635.91,446.365 1645.45,458.443 1654.98,470.333 1664.52,481.929 
  
  "/>
<polygon clip-path="url(#clip0002)" points="
1664.52,481.929 1670.84,489.418 1677.16,496.728 1683.49,503.847 1689.81,510.769 1696.13,517.496 1702.46,524.029 1708.78,530.376 1715.1,536.547 1721.43,542.553 
  1727.75,548.407 1734.07,554.121 1740.4,559.707 1746.72,565.173 1753.04,570.528 1759.37,575.775 1765.69,580.917 1772.01,585.951 1778.34,590.872 1784.66,595.673 
  1790.98,600.342 1797.31,604.867 1803.63,609.235 1809.95,613.43 1816.28,617.438 1822.6,621.246 1828.92,624.84 1835.25,628.21 1841.57,631.349 1847.89,634.25 
  1854.22,636.913 1860.54,639.337 1866.86,641.529 1873.19,643.494 1879.51,645.243 1885.83,646.789 1892.16,648.147 1898.48,649.332 1904.8,650.363 1911.13,651.257 
  1917.45,652.033 1923.77,652.709 1930.1,653.302 1936.42,653.828 1942.74,654.303 1949.07,654.739 1955.39,655.15 1961.71,655.544 1968.04,655.93 1974.36,656.315 
  1980.68,656.702 1987.01,657.096 1993.33,657.498 1999.65,657.908 2005.98,658.326 2012.3,658.75 2018.62,659.18 2024.95,659.612 2031.27,660.044 2037.59,660.474 
  2043.92,660.899 2050.24,661.317 2056.56,661.726 2062.89,662.125 2069.21,662.511 2075.53,662.884 2081.86,663.243 2088.18,663.586 2094.5,663.914 2100.83,664.226 
  2107.15,664.523 2113.47,664.804 2119.79,665.069 2126.12,665.32 2132.44,665.555 2138.76,665.777 2145.09,665.985 2151.41,666.18 2157.73,666.363 2164.06,666.533 
  2170.38,666.691 2176.7,666.838 2183.03,666.974 2189.35,667.099 2195.67,667.213 2202,667.317 2208.32,667.412 2214.64,667.497 2220.97,667.575 2227.29,667.645 
  2233.61,667.709 2239.94,667.769 2246.26,667.826 2252.58,667.883 2258.91,667.941 2265.23,668.002 2271.55,668.069 2277.88,668.143 2284.2,668.226 2290.52,668.319 
  2290.52,671.462 2284.2,671.462 2277.88,671.462 2271.55,671.462 2265.23,671.462 2258.91,671.462 2252.58,671.462 2246.26,671.462 2239.94,671.462 2233.61,671.462 
  2227.29,671.462 2220.97,671.462 2214.64,671.462 2208.32,671.462 2202,671.462 2195.67,671.462 2189.35,671.462 2183.03,671.462 2176.7,671.462 2170.38,671.462 
  2164.06,671.462 2157.73,671.462 2151.41,671.462 2145.09,671.462 2138.76,671.462 2132.44,671.462 2126.12,671.462 2119.79,671.462 2113.47,671.462 2107.15,671.462 
  2100.83,671.462 2094.5,671.462 2088.18,671.462 2081.86,671.462 2075.53,671.462 2069.21,671.462 2062.89,671.462 2056.56,671.462 2050.24,671.462 2043.92,671.462 
  2037.59,671.462 2031.27,671.462 2024.95,671.462 2018.62,671.462 2012.3,671.462 2005.98,671.462 1999.65,671.462 1993.33,671.462 1987.01,671.462 1980.68,671.462 
  1974.36,671.462 1968.04,671.462 1961.71,671.462 1955.39,671.462 1949.07,671.462 1942.74,671.462 1936.42,671.462 1930.1,671.462 1923.77,671.462 1917.45,671.462 
  1911.13,671.462 1904.8,671.462 1898.48,671.462 1892.16,671.462 1885.83,671.462 1879.51,671.462 1873.19,671.462 1866.86,671.462 1860.54,671.462 1854.22,671.462 
  1847.89,671.462 1841.57,671.462 1835.25,671.462 1828.92,671.462 1822.6,671.462 1816.28,671.462 1809.95,671.462 1803.63,671.462 1797.31,671.462 1790.98,671.462 
  1784.66,671.462 1778.34,671.462 1772.01,671.462 1765.69,671.462 1759.37,671.462 1753.04,671.462 1746.72,671.462 1740.4,671.462 1734.07,671.462 1727.75,671.462 
  1721.43,671.462 1715.1,671.462 1708.78,671.462 1702.46,671.462 1696.13,671.462 1689.81,671.462 1683.49,671.462 1677.16,671.462 1670.84,671.462 1664.52,671.462 
  
  " fill="#ffa500" fill-rule="evenodd" fill-opacity="0.5"/>
<polyline clip-path="url(#clip0002)" style="stroke:#ffa500; stroke-width:4; stroke-opacity:1; fill:none" points="
  1664.52,481.929 1670.84,489.418 1677.16,496.728 1683.49,503.847 1689.81,510.769 1696.13,517.496 1702.46,524.029 1708.78,530.376 1715.1,536.547 1721.43,542.553 
  1727.75,548.407 1734.07,554.121 1740.4,559.707 1746.72,565.173 1753.04,570.528 1759.37,575.775 1765.69,580.917 1772.01,585.951 1778.34,590.872 1784.66,595.673 
  1790.98,600.342 1797.31,604.867 1803.63,609.235 1809.95,613.43 1816.28,617.438 1822.6,621.246 1828.92,624.84 1835.25,628.21 1841.57,631.349 1847.89,634.25 
  1854.22,636.913 1860.54,639.337 1866.86,641.529 1873.19,643.494 1879.51,645.243 1885.83,646.789 1892.16,648.147 1898.48,649.332 1904.8,650.363 1911.13,651.257 
  1917.45,652.033 1923.77,652.709 1930.1,653.302 1936.42,653.828 1942.74,654.303 1949.07,654.739 1955.39,655.15 1961.71,655.544 1968.04,655.93 1974.36,656.315 
  1980.68,656.702 1987.01,657.096 1993.33,657.498 1999.65,657.908 2005.98,658.326 2012.3,658.75 2018.62,659.18 2024.95,659.612 2031.27,660.044 2037.59,660.474 
  2043.92,660.899 2050.24,661.317 2056.56,661.726 2062.89,662.125 2069.21,662.511 2075.53,662.884 2081.86,663.243 2088.18,663.586 2094.5,663.914 2100.83,664.226 
  2107.15,664.523 2113.47,664.804 2119.79,665.069 2126.12,665.32 2132.44,665.555 2138.76,665.777 2145.09,665.985 2151.41,666.18 2157.73,666.363 2164.06,666.533 
  2170.38,666.691 2176.7,666.838 2183.03,666.974 2189.35,667.099 2195.67,667.213 2202,667.317 2208.32,667.412 2214.64,667.497 2220.97,667.575 2227.29,667.645 
  2233.61,667.709 2239.94,667.769 2246.26,667.826 2252.58,667.883 2258.91,667.941 2265.23,668.002 2271.55,668.069 2277.88,668.143 2284.2,668.226 2290.52,668.319 
  
  "/>
<polyline clip-path="url(#clip0002)" style="stroke:#0000ff; stroke-width:4; stroke-opacity:1; fill:none" points="
  1193.78,671.462 1193.78,149.574 
  "/>
<polyline clip-path="url(#clip0002)" style="stroke:#000000; stroke-width:4; stroke-opacity:1; fill:none" points="
  1193.28,671.462 1193.28,149.63 
  "/>
<polygon clip-path="url(#clip0000)" points="
1493.62,568.075 2280.76,568.075 2280.76,205.195 1493.62,205.195 
  " fill="#ffffff" fill-rule="evenodd" fill-opacity="1"/>
<polyline clip-path="url(#clip0000)" style="stroke:#000000; stroke-width:4; stroke-opacity:1; fill:none" points="
  1493.62,568.075 2280.76,568.075 2280.76,205.195 1493.62,205.195 1493.62,568.075 
  "/>
<polygon clip-path="url(#clip0000)" points="
1517.62,289.867 1661.62,289.867 1661.62,241.483 1517.62,241.483 1517.62,289.867 
  " fill="#ffa500" fill-rule="evenodd" fill-opacity="0.5"/>
<polyline clip-path="url(#clip0000)" style="stroke:#ffa500; stroke-width:4; stroke-opacity:1; fill:none" points="
  1517.62,241.483 1661.62,241.483 
  "/>
<g clip-path="url(#clip0000)">
<text style="fill:#000000; fill-opacity:1; font-family:Arial,Helvetica Neue,Helvetica,sans-serif; font-size:48px; text-anchor:start;" transform="rotate(0, 1685.62, 283.175)" x="1685.62" y="283.175">q05</text>
</g>
<polygon clip-path="url(#clip0000)" points="
1517.62,350.347 1661.62,350.347 1661.62,301.963 1517.62,301.963 1517.62,350.347 
  " fill="#008000" fill-rule="evenodd" fill-opacity="0.5"/>
<polyline clip-path="url(#clip0000)" style="stroke:#008000; stroke-width:4; stroke-opacity:1; fill:none" points="
  1517.62,301.963 1661.62,301.963 
  "/>
<g clip-path="url(#clip0000)">
<text style="fill:#000000; fill-opacity:1; font-family:Arial,Helvetica Neue,Helvetica,sans-serif; font-size:48px; text-anchor:start;" transform="rotate(0, 1685.62, 343.655)" x="1685.62" y="343.655">90% non-rejection region</text>
</g>
<polygon clip-path="url(#clip0000)" points="
1517.62,410.827 1661.62,410.827 1661.62,362.443 1517.62,362.443 1517.62,410.827 
  " fill="#ffa500" fill-rule="evenodd" fill-opacity="0.5"/>
<polyline clip-path="url(#clip0000)" style="stroke:#ffa500; stroke-width:4; stroke-opacity:1; fill:none" points="
  1517.62,362.443 1661.62,362.443 
  "/>
<g clip-path="url(#clip0000)">
<text style="fill:#000000; fill-opacity:1; font-family:Arial,Helvetica Neue,Helvetica,sans-serif; font-size:48px; text-anchor:start;" transform="rotate(0, 1685.62, 404.135)" x="1685.62" y="404.135">q95</text>
</g>
<polyline clip-path="url(#clip0000)" style="stroke:#0000ff; stroke-width:4; stroke-opacity:1; fill:none" points="
  1517.62,447.115 1661.62,447.115 
  "/>
<g clip-path="url(#clip0000)">
<text style="fill:#000000; fill-opacity:1; font-family:Arial,Helvetica Neue,Helvetica,sans-serif; font-size:48px; text-anchor:start;" transform="rotate(0, 1685.62, 464.615)" x="1685.62" y="464.615">mean</text>
</g>
<polyline clip-path="url(#clip0000)" style="stroke:#000000; stroke-width:4; stroke-opacity:1; fill:none" points="
  1517.62,507.595 1661.62,507.595 
  "/>
<g clip-path="url(#clip0000)">
<text style="fill:#000000; fill-opacity:1; font-family:Arial,Helvetica Neue,Helvetica,sans-serif; font-size:48px; text-anchor:start;" transform="rotate(0, 1685.62, 525.095)" x="1685.62" y="525.095">median</text>
</g>
<polygon clip-path="url(#clip0000)" points="
153.898,1487.47 2352.76,1487.47 2352.76,921.675 153.898,921.675 
  " fill="#ffffff" fill-rule="evenodd" fill-opacity="1"/>
<defs>
  <clipPath id="clip0003">
    <rect x="153" y="921" width="2200" height="567"/>
  </clipPath>
</defs>
<polyline clip-path="url(#clip0003)" style="stroke:#000000; stroke-width:2; stroke-opacity:0.1; fill:none" points="
  340.177,1487.47 340.177,921.675 
  "/>
<polyline clip-path="url(#clip0003)" style="stroke:#000000; stroke-width:2; stroke-opacity:0.1; fill:none" points="
  649.468,1487.47 649.468,921.675 
  "/>
<polyline clip-path="url(#clip0003)" style="stroke:#000000; stroke-width:2; stroke-opacity:0.1; fill:none" points="
  958.759,1487.47 958.759,921.675 
  "/>
<polyline clip-path="url(#clip0003)" style="stroke:#000000; stroke-width:2; stroke-opacity:0.1; fill:none" points="
  1268.05,1487.47 1268.05,921.675 
  "/>
<polyline clip-path="url(#clip0003)" style="stroke:#000000; stroke-width:2; stroke-opacity:0.1; fill:none" points="
  1577.34,1487.47 1577.34,921.675 
  "/>
<polyline clip-path="url(#clip0003)" style="stroke:#000000; stroke-width:2; stroke-opacity:0.1; fill:none" points="
  1886.63,1487.47 1886.63,921.675 
  "/>
<polyline clip-path="url(#clip0003)" style="stroke:#000000; stroke-width:2; stroke-opacity:0.1; fill:none" points="
  2195.92,1487.47 2195.92,921.675 
  "/>
<polyline clip-path="url(#clip0003)" style="stroke:#000000; stroke-width:2; stroke-opacity:0.1; fill:none" points="
  153.898,1471.46 2352.76,1471.46 
  "/>
<polyline clip-path="url(#clip0003)" style="stroke:#000000; stroke-width:2; stroke-opacity:0.1; fill:none" points="
  153.898,1359.73 2352.76,1359.73 
  "/>
<polyline clip-path="url(#clip0003)" style="stroke:#000000; stroke-width:2; stroke-opacity:0.1; fill:none" points="
  153.898,1248.01 2352.76,1248.01 
  "/>
<polyline clip-path="url(#clip0003)" style="stroke:#000000; stroke-width:2; stroke-opacity:0.1; fill:none" points="
  153.898,1136.28 2352.76,1136.28 
  "/>
<polyline clip-path="url(#clip0003)" style="stroke:#000000; stroke-width:2; stroke-opacity:0.1; fill:none" points="
  153.898,1024.55 2352.76,1024.55 
  "/>
<polyline clip-path="url(#clip0000)" style="stroke:#000000; stroke-width:4; stroke-opacity:1; fill:none" points="
  153.898,1487.47 2352.76,1487.47 
  "/>
<polyline clip-path="url(#clip0000)" style="stroke:#000000; stroke-width:4; stroke-opacity:1; fill:none" points="
  153.898,1487.47 153.898,921.675 
  "/>
<polyline clip-path="url(#clip0000)" style="stroke:#000000; stroke-width:4; stroke-opacity:1; fill:none" points="
  340.177,1487.47 340.177,1478.99 
  "/>
<polyline clip-path="url(#clip0000)" style="stroke:#000000; stroke-width:4; stroke-opacity:1; fill:none" points="
  649.468,1487.47 649.468,1478.99 
  "/>
<polyline clip-path="url(#clip0000)" style="stroke:#000000; stroke-width:4; stroke-opacity:1; fill:none" points="
  958.759,1487.47 958.759,1478.99 
  "/>
<polyline clip-path="url(#clip0000)" style="stroke:#000000; stroke-width:4; stroke-opacity:1; fill:none" points="
  1268.05,1487.47 1268.05,1478.99 
  "/>
<polyline clip-path="url(#clip0000)" style="stroke:#000000; stroke-width:4; stroke-opacity:1; fill:none" points="
  1577.34,1487.47 1577.34,1478.99 
  "/>
<polyline clip-path="url(#clip0000)" style="stroke:#000000; stroke-width:4; stroke-opacity:1; fill:none" points="
  1886.63,1487.47 1886.63,1478.99 
  "/>
<polyline clip-path="url(#clip0000)" style="stroke:#000000; stroke-width:4; stroke-opacity:1; fill:none" points="
  2195.92,1487.47 2195.92,1478.99 
  "/>
<polyline clip-path="url(#clip0000)" style="stroke:#000000; stroke-width:4; stroke-opacity:1; fill:none" points="
  153.898,1471.46 186.881,1471.46 
  "/>
<polyline clip-path="url(#clip0000)" style="stroke:#000000; stroke-width:4; stroke-opacity:1; fill:none" points="
  153.898,1359.73 186.881,1359.73 
  "/>
<polyline clip-path="url(#clip0000)" style="stroke:#000000; stroke-width:4; stroke-opacity:1; fill:none" points="
  153.898,1248.01 186.881,1248.01 
  "/>
<polyline clip-path="url(#clip0000)" style="stroke:#000000; stroke-width:4; stroke-opacity:1; fill:none" points="
  153.898,1136.28 186.881,1136.28 
  "/>
<polyline clip-path="url(#clip0000)" style="stroke:#000000; stroke-width:4; stroke-opacity:1; fill:none" points="
  153.898,1024.55 186.881,1024.55 
  "/>
<g clip-path="url(#clip0000)">
<text style="fill:#000000; fill-opacity:1; font-family:Arial,Helvetica Neue,Helvetica,sans-serif; font-size:48px; text-anchor:middle;" transform="rotate(0, 340.177, 1541.47)" x="340.177" y="1541.47">1.2</text>
</g>
<g clip-path="url(#clip0000)">
<text style="fill:#000000; fill-opacity:1; font-family:Arial,Helvetica Neue,Helvetica,sans-serif; font-size:48px; text-anchor:middle;" transform="rotate(0, 649.468, 1541.47)" x="649.468" y="1541.47">1.4</text>
</g>
<g clip-path="url(#clip0000)">
<text style="fill:#000000; fill-opacity:1; font-family:Arial,Helvetica Neue,Helvetica,sans-serif; font-size:48px; text-anchor:middle;" transform="rotate(0, 958.759, 1541.47)" x="958.759" y="1541.47">1.6</text>
</g>
<g clip-path="url(#clip0000)">
<text style="fill:#000000; fill-opacity:1; font-family:Arial,Helvetica Neue,Helvetica,sans-serif; font-size:48px; text-anchor:middle;" transform="rotate(0, 1268.05, 1541.47)" x="1268.05" y="1541.47">1.8</text>
</g>
<g clip-path="url(#clip0000)">
<text style="fill:#000000; fill-opacity:1; font-family:Arial,Helvetica Neue,Helvetica,sans-serif; font-size:48px; text-anchor:middle;" transform="rotate(0, 1577.34, 1541.47)" x="1577.34" y="1541.47">2.0</text>
</g>
<g clip-path="url(#clip0000)">
<text style="fill:#000000; fill-opacity:1; font-family:Arial,Helvetica Neue,Helvetica,sans-serif; font-size:48px; text-anchor:middle;" transform="rotate(0, 1886.63, 1541.47)" x="1886.63" y="1541.47">2.2</text>
</g>
<g clip-path="url(#clip0000)">
<text style="fill:#000000; fill-opacity:1; font-family:Arial,Helvetica Neue,Helvetica,sans-serif; font-size:48px; text-anchor:middle;" transform="rotate(0, 2195.92, 1541.47)" x="2195.92" y="1541.47">2.4</text>
</g>
<g clip-path="url(#clip0000)">
<text style="fill:#000000; fill-opacity:1; font-family:Arial,Helvetica Neue,Helvetica,sans-serif; font-size:48px; text-anchor:end;" transform="rotate(0, 129.898, 1488.96)" x="129.898" y="1488.96">0.0</text>
</g>
<g clip-path="url(#clip0000)">
<text style="fill:#000000; fill-opacity:1; font-family:Arial,Helvetica Neue,Helvetica,sans-serif; font-size:48px; text-anchor:end;" transform="rotate(0, 129.898, 1377.23)" x="129.898" y="1377.23">0.5</text>
</g>
<g clip-path="url(#clip0000)">
<text style="fill:#000000; fill-opacity:1; font-family:Arial,Helvetica Neue,Helvetica,sans-serif; font-size:48px; text-anchor:end;" transform="rotate(0, 129.898, 1265.51)" x="129.898" y="1265.51">1.0</text>
</g>
<g clip-path="url(#clip0000)">
<text style="fill:#000000; fill-opacity:1; font-family:Arial,Helvetica Neue,Helvetica,sans-serif; font-size:48px; text-anchor:end;" transform="rotate(0, 129.898, 1153.78)" x="129.898" y="1153.78">1.5</text>
</g>
<g clip-path="url(#clip0000)">
<text style="fill:#000000; fill-opacity:1; font-family:Arial,Helvetica Neue,Helvetica,sans-serif; font-size:48px; text-anchor:end;" transform="rotate(0, 129.898, 1042.05)" x="129.898" y="1042.05">2.0</text>
</g>
<g clip-path="url(#clip0000)">
<text style="fill:#000000; fill-opacity:1; font-family:Arial,Helvetica Neue,Helvetica,sans-serif; font-size:84px; text-anchor:middle;" transform="rotate(0, 1253.33, 873.2)" x="1253.33" y="873.2">IV</text>
</g>
<polygon clip-path="url(#clip0003)" points="
216.13,1469.12 224.962,1469.14 233.794,1469.21 242.625,1469.33 251.457,1469.49 260.289,1469.67 269.121,1469.86 277.953,1470.05 286.785,1470.22 295.617,1470.37 
  304.448,1470.49 313.28,1470.57 322.112,1470.59 330.944,1470.56 339.776,1470.48 348.608,1470.34 357.44,1470.14 366.271,1469.88 375.103,1469.58 383.935,1469.24 
  392.767,1468.87 401.599,1468.47 410.431,1468.06 419.263,1467.66 428.094,1467.27 436.926,1466.91 445.758,1466.59 454.59,1466.3 463.422,1466.07 472.254,1465.87 
  481.086,1465.72 489.917,1465.61 498.749,1465.53 507.581,1465.47 516.413,1465.43 525.245,1465.38 534.077,1465.32 542.909,1465.25 551.74,1465.16 560.572,1465.04 
  569.404,1464.9 578.236,1464.74 587.068,1464.57 595.9,1464.39 604.732,1464.23 613.564,1464.1 622.395,1464 631.227,1463.94 640.059,1463.94 648.891,1463.99 
  657.723,1464.08 666.555,1464.2 675.387,1464.32 684.218,1464.43 693.05,1464.48 701.882,1464.45 710.714,1464.32 719.546,1464.07 728.378,1463.68 737.21,1463.15 
  746.041,1462.49 754.873,1461.7 763.705,1460.8 772.537,1459.82 781.369,1458.77 790.201,1457.69 799.033,1456.58 807.864,1455.47 816.696,1454.36 825.528,1453.24 
  834.36,1452.11 843.192,1450.96 852.024,1449.75 860.856,1448.47 869.687,1447.1 878.519,1445.6 887.351,1443.96 896.183,1442.16 905.015,1440.19 913.847,1438.04 
  922.679,1435.71 931.51,1433.22 940.342,1430.55 949.174,1427.72 958.006,1424.73 966.838,1421.56 975.67,1418.21 984.502,1414.65 993.334,1410.88 1002.17,1406.87 
  1011,1402.61 1019.83,1398.09 1028.66,1393.32 1037.49,1388.29 1046.32,1383.04 1055.16,1377.6 1063.99,1372.02 1072.82,1366.33 1081.65,1360.58 1090.48,1354.82 
  1090.48,1471.46 1081.65,1471.46 1072.82,1471.46 1063.99,1471.46 1055.16,1471.46 1046.32,1471.46 1037.49,1471.46 1028.66,1471.46 1019.83,1471.46 1011,1471.46 
  1002.17,1471.46 993.334,1471.46 984.502,1471.46 975.67,1471.46 966.838,1471.46 958.006,1471.46 949.174,1471.46 940.342,1471.46 931.51,1471.46 922.679,1471.46 
  913.847,1471.46 905.015,1471.46 896.183,1471.46 887.351,1471.46 878.519,1471.46 869.687,1471.46 860.856,1471.46 852.024,1471.46 843.192,1471.46 834.36,1471.46 
  825.528,1471.46 816.696,1471.46 807.864,1471.46 799.033,1471.46 790.201,1471.46 781.369,1471.46 772.537,1471.46 763.705,1471.46 754.873,1471.46 746.041,1471.46 
  737.21,1471.46 728.378,1471.46 719.546,1471.46 710.714,1471.46 701.882,1471.46 693.05,1471.46 684.218,1471.46 675.387,1471.46 666.555,1471.46 657.723,1471.46 
  648.891,1471.46 640.059,1471.46 631.227,1471.46 622.395,1471.46 613.564,1471.46 604.732,1471.46 595.9,1471.46 587.068,1471.46 578.236,1471.46 569.404,1471.46 
  560.572,1471.46 551.74,1471.46 542.909,1471.46 534.077,1471.46 525.245,1471.46 516.413,1471.46 507.581,1471.46 498.749,1471.46 489.917,1471.46 481.086,1471.46 
  472.254,1471.46 463.422,1471.46 454.59,1471.46 445.758,1471.46 436.926,1471.46 428.094,1471.46 419.263,1471.46 410.431,1471.46 401.599,1471.46 392.767,1471.46 
  383.935,1471.46 375.103,1471.46 366.271,1471.46 357.44,1471.46 348.608,1471.46 339.776,1471.46 330.944,1471.46 322.112,1471.46 313.28,1471.46 304.448,1471.46 
  295.617,1471.46 286.785,1471.46 277.953,1471.46 269.121,1471.46 260.289,1471.46 251.457,1471.46 242.625,1471.46 233.794,1471.46 224.962,1471.46 216.13,1471.46 
  
  " fill="#ffa500" fill-rule="evenodd" fill-opacity="0.5"/>
<polyline clip-path="url(#clip0003)" style="stroke:#ffa500; stroke-width:4; stroke-opacity:1; fill:none" points="
  216.13,1469.12 224.962,1469.14 233.794,1469.21 242.625,1469.33 251.457,1469.49 260.289,1469.67 269.121,1469.86 277.953,1470.05 286.785,1470.22 295.617,1470.37 
  304.448,1470.49 313.28,1470.57 322.112,1470.59 330.944,1470.56 339.776,1470.48 348.608,1470.34 357.44,1470.14 366.271,1469.88 375.103,1469.58 383.935,1469.24 
  392.767,1468.87 401.599,1468.47 410.431,1468.06 419.263,1467.66 428.094,1467.27 436.926,1466.91 445.758,1466.59 454.59,1466.3 463.422,1466.07 472.254,1465.87 
  481.086,1465.72 489.917,1465.61 498.749,1465.53 507.581,1465.47 516.413,1465.43 525.245,1465.38 534.077,1465.32 542.909,1465.25 551.74,1465.16 560.572,1465.04 
  569.404,1464.9 578.236,1464.74 587.068,1464.57 595.9,1464.39 604.732,1464.23 613.564,1464.1 622.395,1464 631.227,1463.94 640.059,1463.94 648.891,1463.99 
  657.723,1464.08 666.555,1464.2 675.387,1464.32 684.218,1464.43 693.05,1464.48 701.882,1464.45 710.714,1464.32 719.546,1464.07 728.378,1463.68 737.21,1463.15 
  746.041,1462.49 754.873,1461.7 763.705,1460.8 772.537,1459.82 781.369,1458.77 790.201,1457.69 799.033,1456.58 807.864,1455.47 816.696,1454.36 825.528,1453.24 
  834.36,1452.11 843.192,1450.96 852.024,1449.75 860.856,1448.47 869.687,1447.1 878.519,1445.6 887.351,1443.96 896.183,1442.16 905.015,1440.19 913.847,1438.04 
  922.679,1435.71 931.51,1433.22 940.342,1430.55 949.174,1427.72 958.006,1424.73 966.838,1421.56 975.67,1418.21 984.502,1414.65 993.334,1410.88 1002.17,1406.87 
  1011,1402.61 1019.83,1398.09 1028.66,1393.32 1037.49,1388.29 1046.32,1383.04 1055.16,1377.6 1063.99,1372.02 1072.82,1366.33 1081.65,1360.58 1090.48,1354.82 
  
  "/>
<polygon clip-path="url(#clip0003)" points="
1090.48,1354.82 1099.06,1349.24 1107.65,1343.71 1116.23,1338.23 1124.81,1332.8 1133.39,1327.41 1141.97,1322.01 1150.55,1316.55 1159.13,1310.97 1167.71,1305.18 
  1176.29,1299.1 1184.87,1292.64 1193.45,1285.72 1202.03,1278.28 1210.61,1270.25 1219.19,1261.62 1227.77,1252.39 1236.35,1242.59 1244.93,1232.31 1253.51,1221.62 
  1262.09,1210.68 1270.67,1199.6 1279.26,1188.56 1287.84,1177.69 1296.42,1167.12 1305,1156.97 1313.58,1147.31 1322.16,1138.19 1330.74,1129.6 1339.32,1121.5 
  1347.9,1113.83 1356.48,1106.49 1365.06,1099.35 1373.64,1092.28 1382.22,1085.16 1390.8,1077.86 1399.38,1070.27 1407.96,1062.32 1416.54,1053.98 1425.12,1045.26 
  1433.7,1036.2 1442.29,1026.9 1450.87,1017.5 1459.45,1008.15 1468.03,999.028 1476.61,990.304 1485.19,982.133 1493.77,974.641 1502.35,967.913 1510.93,961.989 
  1519.51,956.866 1528.09,952.504 1536.67,948.835 1545.25,945.779 1553.83,943.262 1562.41,941.223 1570.99,939.63 1579.57,938.483 1588.15,937.815 1596.73,937.688 
  1605.31,938.182 1613.9,939.378 1622.48,941.352 1631.06,944.154 1639.64,947.801 1648.22,952.272 1656.8,957.505 1665.38,963.405 1673.96,969.85 1682.54,976.706 
  1691.12,983.84 1699.7,991.135 1708.28,998.502 1716.86,1005.89 1725.44,1013.28 1734.02,1020.72 1742.6,1028.27 1751.18,1036.02 1759.76,1044.12 1768.34,1052.67 
  1776.93,1061.82 1785.51,1071.66 1794.09,1082.28 1802.67,1093.7 1811.25,1105.92 1819.83,1118.87 1828.41,1132.44 1836.99,1146.5 1845.57,1160.85 1854.15,1175.32 
  1862.73,1189.7 1871.31,1203.83 1879.89,1217.57 1888.47,1230.8 1897.05,1243.46 1905.63,1255.53 1914.21,1267.03 1922.79,1277.99 1931.37,1288.47 1939.95,1298.54 
  1939.95,1471.46 1931.37,1471.46 1922.79,1471.46 1914.21,1471.46 1905.63,1471.46 1897.05,1471.46 1888.47,1471.46 1879.89,1471.46 1871.31,1471.46 1862.73,1471.46 
  1854.15,1471.46 1845.57,1471.46 1836.99,1471.46 1828.41,1471.46 1819.83,1471.46 1811.25,1471.46 1802.67,1471.46 1794.09,1471.46 1785.51,1471.46 1776.93,1471.46 
  1768.34,1471.46 1759.76,1471.46 1751.18,1471.46 1742.6,1471.46 1734.02,1471.46 1725.44,1471.46 1716.86,1471.46 1708.28,1471.46 1699.7,1471.46 1691.12,1471.46 
  1682.54,1471.46 1673.96,1471.46 1665.38,1471.46 1656.8,1471.46 1648.22,1471.46 1639.64,1471.46 1631.06,1471.46 1622.48,1471.46 1613.9,1471.46 1605.31,1471.46 
  1596.73,1471.46 1588.15,1471.46 1579.57,1471.46 1570.99,1471.46 1562.41,1471.46 1553.83,1471.46 1545.25,1471.46 1536.67,1471.46 1528.09,1471.46 1519.51,1471.46 
  1510.93,1471.46 1502.35,1471.46 1493.77,1471.46 1485.19,1471.46 1476.61,1471.46 1468.03,1471.46 1459.45,1471.46 1450.87,1471.46 1442.29,1471.46 1433.7,1471.46 
  1425.12,1471.46 1416.54,1471.46 1407.96,1471.46 1399.38,1471.46 1390.8,1471.46 1382.22,1471.46 1373.64,1471.46 1365.06,1471.46 1356.48,1471.46 1347.9,1471.46 
  1339.32,1471.46 1330.74,1471.46 1322.16,1471.46 1313.58,1471.46 1305,1471.46 1296.42,1471.46 1287.84,1471.46 1279.26,1471.46 1270.67,1471.46 1262.09,1471.46 
  1253.51,1471.46 1244.93,1471.46 1236.35,1471.46 1227.77,1471.46 1219.19,1471.46 1210.61,1471.46 1202.03,1471.46 1193.45,1471.46 1184.87,1471.46 1176.29,1471.46 
  1167.71,1471.46 1159.13,1471.46 1150.55,1471.46 1141.97,1471.46 1133.39,1471.46 1124.81,1471.46 1116.23,1471.46 1107.65,1471.46 1099.06,1471.46 1090.48,1471.46 
  
  " fill="#008000" fill-rule="evenodd" fill-opacity="0.5"/>
<polyline clip-path="url(#clip0003)" style="stroke:#008000; stroke-width:4; stroke-opacity:1; fill:none" points="
  1090.48,1354.82 1099.06,1349.24 1107.65,1343.71 1116.23,1338.23 1124.81,1332.8 1133.39,1327.41 1141.97,1322.01 1150.55,1316.55 1159.13,1310.97 1167.71,1305.18 
  1176.29,1299.1 1184.87,1292.64 1193.45,1285.72 1202.03,1278.28 1210.61,1270.25 1219.19,1261.62 1227.77,1252.39 1236.35,1242.59 1244.93,1232.31 1253.51,1221.62 
  1262.09,1210.68 1270.67,1199.6 1279.26,1188.56 1287.84,1177.69 1296.42,1167.12 1305,1156.97 1313.58,1147.31 1322.16,1138.19 1330.74,1129.6 1339.32,1121.5 
  1347.9,1113.83 1356.48,1106.49 1365.06,1099.35 1373.64,1092.28 1382.22,1085.16 1390.8,1077.86 1399.38,1070.27 1407.96,1062.32 1416.54,1053.98 1425.12,1045.26 
  1433.7,1036.2 1442.29,1026.9 1450.87,1017.5 1459.45,1008.15 1468.03,999.028 1476.61,990.304 1485.19,982.133 1493.77,974.641 1502.35,967.913 1510.93,961.989 
  1519.51,956.866 1528.09,952.504 1536.67,948.835 1545.25,945.779 1553.83,943.262 1562.41,941.223 1570.99,939.63 1579.57,938.483 1588.15,937.815 1596.73,937.688 
  1605.31,938.182 1613.9,939.378 1622.48,941.352 1631.06,944.154 1639.64,947.801 1648.22,952.272 1656.8,957.505 1665.38,963.405 1673.96,969.85 1682.54,976.706 
  1691.12,983.84 1699.7,991.135 1708.28,998.502 1716.86,1005.89 1725.44,1013.28 1734.02,1020.72 1742.6,1028.27 1751.18,1036.02 1759.76,1044.12 1768.34,1052.67 
  1776.93,1061.82 1785.51,1071.66 1794.09,1082.28 1802.67,1093.7 1811.25,1105.92 1819.83,1118.87 1828.41,1132.44 1836.99,1146.5 1845.57,1160.85 1854.15,1175.32 
  1862.73,1189.7 1871.31,1203.83 1879.89,1217.57 1888.47,1230.8 1897.05,1243.46 1905.63,1255.53 1914.21,1267.03 1922.79,1277.99 1931.37,1288.47 1939.95,1298.54 
  
  "/>
<polygon clip-path="url(#clip0003)" points="
1939.95,1298.54 1943.5,1302.6 1947.04,1306.59 1950.58,1310.54 1954.12,1314.44 1957.66,1318.3 1961.2,1322.11 1964.74,1325.88 1968.28,1329.62 1971.82,1333.31 
  1975.37,1336.97 1978.91,1340.59 1982.45,1344.17 1985.99,1347.71 1989.53,1351.21 1993.07,1354.67 1996.61,1358.08 2000.15,1361.45 2003.69,1364.76 2007.24,1368.03 
  2010.78,1371.24 2014.32,1374.4 2017.86,1377.49 2021.4,1380.53 2024.94,1383.5 2028.48,1386.4 2032.02,1389.24 2035.56,1392.01 2039.11,1394.7 2042.65,1397.33 
  2046.19,1399.87 2049.73,1402.35 2053.27,1404.75 2056.81,1407.07 2060.35,1409.31 2063.89,1411.48 2067.43,1413.57 2070.98,1415.59 2074.52,1417.53 2078.06,1419.39 
  2081.6,1421.19 2085.14,1422.91 2088.68,1424.56 2092.22,1426.14 2095.76,1427.66 2099.3,1429.12 2102.85,1430.51 2106.39,1431.84 2109.93,1433.12 2113.47,1434.34 
  2117.01,1435.51 2120.55,1436.63 2124.09,1437.7 2127.63,1438.74 2131.17,1439.73 2134.72,1440.68 2138.26,1441.6 2141.8,1442.49 2145.34,1443.35 2148.88,1444.18 
  2152.42,1444.98 2155.96,1445.76 2159.5,1446.52 2163.04,1447.26 2166.59,1447.98 2170.13,1448.69 2173.67,1449.38 2177.21,1450.05 2180.75,1450.71 2184.29,1451.36 
  2187.83,1452 2191.37,1452.62 2194.91,1453.24 2198.46,1453.84 2202,1454.43 2205.54,1455.02 2209.08,1455.59 2212.62,1456.15 2216.16,1456.7 2219.7,1457.24 
  2223.24,1457.77 2226.78,1458.29 2230.33,1458.8 2233.87,1459.3 2237.41,1459.78 2240.95,1460.26 2244.49,1460.72 2248.03,1461.17 2251.57,1461.61 2255.11,1462.04 
  2258.65,1462.45 2262.2,1462.86 2265.74,1463.25 2269.28,1463.63 2272.82,1464 2276.36,1464.36 2279.9,1464.71 2283.44,1465.05 2286.98,1465.37 2290.52,1465.69 
  2290.52,1471.46 2286.98,1471.46 2283.44,1471.46 2279.9,1471.46 2276.36,1471.46 2272.82,1471.46 2269.28,1471.46 2265.74,1471.46 2262.2,1471.46 2258.65,1471.46 
  2255.11,1471.46 2251.57,1471.46 2248.03,1471.46 2244.49,1471.46 2240.95,1471.46 2237.41,1471.46 2233.87,1471.46 2230.33,1471.46 2226.78,1471.46 2223.24,1471.46 
  2219.7,1471.46 2216.16,1471.46 2212.62,1471.46 2209.08,1471.46 2205.54,1471.46 2202,1471.46 2198.46,1471.46 2194.91,1471.46 2191.37,1471.46 2187.83,1471.46 
  2184.29,1471.46 2180.75,1471.46 2177.21,1471.46 2173.67,1471.46 2170.13,1471.46 2166.59,1471.46 2163.04,1471.46 2159.5,1471.46 2155.96,1471.46 2152.42,1471.46 
  2148.88,1471.46 2145.34,1471.46 2141.8,1471.46 2138.26,1471.46 2134.72,1471.46 2131.17,1471.46 2127.63,1471.46 2124.09,1471.46 2120.55,1471.46 2117.01,1471.46 
  2113.47,1471.46 2109.93,1471.46 2106.39,1471.46 2102.85,1471.46 2099.3,1471.46 2095.76,1471.46 2092.22,1471.46 2088.68,1471.46 2085.14,1471.46 2081.6,1471.46 
  2078.06,1471.46 2074.52,1471.46 2070.98,1471.46 2067.43,1471.46 2063.89,1471.46 2060.35,1471.46 2056.81,1471.46 2053.27,1471.46 2049.73,1471.46 2046.19,1471.46 
  2042.65,1471.46 2039.11,1471.46 2035.56,1471.46 2032.02,1471.46 2028.48,1471.46 2024.94,1471.46 2021.4,1471.46 2017.86,1471.46 2014.32,1471.46 2010.78,1471.46 
  2007.24,1471.46 2003.69,1471.46 2000.15,1471.46 1996.61,1471.46 1993.07,1471.46 1989.53,1471.46 1985.99,1471.46 1982.45,1471.46 1978.91,1471.46 1975.37,1471.46 
  1971.82,1471.46 1968.28,1471.46 1964.74,1471.46 1961.2,1471.46 1957.66,1471.46 1954.12,1471.46 1950.58,1471.46 1947.04,1471.46 1943.5,1471.46 1939.95,1471.46 
  
  " fill="#ffa500" fill-rule="evenodd" fill-opacity="0.5"/>
<polyline clip-path="url(#clip0003)" style="stroke:#ffa500; stroke-width:4; stroke-opacity:1; fill:none" points="
  1939.95,1298.54 1943.5,1302.6 1947.04,1306.59 1950.58,1310.54 1954.12,1314.44 1957.66,1318.3 1961.2,1322.11 1964.74,1325.88 1968.28,1329.62 1971.82,1333.31 
  1975.37,1336.97 1978.91,1340.59 1982.45,1344.17 1985.99,1347.71 1989.53,1351.21 1993.07,1354.67 1996.61,1358.08 2000.15,1361.45 2003.69,1364.76 2007.24,1368.03 
  2010.78,1371.24 2014.32,1374.4 2017.86,1377.49 2021.4,1380.53 2024.94,1383.5 2028.48,1386.4 2032.02,1389.24 2035.56,1392.01 2039.11,1394.7 2042.65,1397.33 
  2046.19,1399.87 2049.73,1402.35 2053.27,1404.75 2056.81,1407.07 2060.35,1409.31 2063.89,1411.48 2067.43,1413.57 2070.98,1415.59 2074.52,1417.53 2078.06,1419.39 
  2081.6,1421.19 2085.14,1422.91 2088.68,1424.56 2092.22,1426.14 2095.76,1427.66 2099.3,1429.12 2102.85,1430.51 2106.39,1431.84 2109.93,1433.12 2113.47,1434.34 
  2117.01,1435.51 2120.55,1436.63 2124.09,1437.7 2127.63,1438.74 2131.17,1439.73 2134.72,1440.68 2138.26,1441.6 2141.8,1442.49 2145.34,1443.35 2148.88,1444.18 
  2152.42,1444.98 2155.96,1445.76 2159.5,1446.52 2163.04,1447.26 2166.59,1447.98 2170.13,1448.69 2173.67,1449.38 2177.21,1450.05 2180.75,1450.71 2184.29,1451.36 
  2187.83,1452 2191.37,1452.62 2194.91,1453.24 2198.46,1453.84 2202,1454.43 2205.54,1455.02 2209.08,1455.59 2212.62,1456.15 2216.16,1456.7 2219.7,1457.24 
  2223.24,1457.77 2226.78,1458.29 2230.33,1458.8 2233.87,1459.3 2237.41,1459.78 2240.95,1460.26 2244.49,1460.72 2248.03,1461.17 2251.57,1461.61 2255.11,1462.04 
  2258.65,1462.45 2262.2,1462.86 2265.74,1463.25 2269.28,1463.63 2272.82,1464 2276.36,1464.36 2279.9,1464.71 2283.44,1465.05 2286.98,1465.37 2290.52,1465.69 
  
  "/>
<polyline clip-path="url(#clip0003)" style="stroke:#0000ff; stroke-width:4; stroke-opacity:1; fill:none" points="
  1545.03,1471.46 1545.03,945.852 
  "/>
<polyline clip-path="url(#clip0003)" style="stroke:#000000; stroke-width:4; stroke-opacity:1; fill:none" points="
  1563.99,1471.46 1563.99,940.898 
  "/>
<polygon clip-path="url(#clip0000)" points="
1493.62,1368.08 2280.76,1368.08 2280.76,1005.2 1493.62,1005.2 
  " fill="#ffffff" fill-rule="evenodd" fill-opacity="1"/>
<polyline clip-path="url(#clip0000)" style="stroke:#000000; stroke-width:4; stroke-opacity:1; fill:none" points="
  1493.62,1368.08 2280.76,1368.08 2280.76,1005.2 1493.62,1005.2 1493.62,1368.08 
  "/>
<polygon clip-path="url(#clip0000)" points="
1517.62,1089.87 1661.62,1089.87 1661.62,1041.48 1517.62,1041.48 1517.62,1089.87 
  " fill="#ffa500" fill-rule="evenodd" fill-opacity="0.5"/>
<polyline clip-path="url(#clip0000)" style="stroke:#ffa500; stroke-width:4; stroke-opacity:1; fill:none" points="
  1517.62,1041.48 1661.62,1041.48 
  "/>
<g clip-path="url(#clip0000)">
<text style="fill:#000000; fill-opacity:1; font-family:Arial,Helvetica Neue,Helvetica,sans-serif; font-size:48px; text-anchor:start;" transform="rotate(0, 1685.62, 1083.18)" x="1685.62" y="1083.18">q05</text>
</g>
<polygon clip-path="url(#clip0000)" points="
1517.62,1150.35 1661.62,1150.35 1661.62,1101.96 1517.62,1101.96 1517.62,1150.35 
  " fill="#008000" fill-rule="evenodd" fill-opacity="0.5"/>
<polyline clip-path="url(#clip0000)" style="stroke:#008000; stroke-width:4; stroke-opacity:1; fill:none" points="
  1517.62,1101.96 1661.62,1101.96 
  "/>
<g clip-path="url(#clip0000)">
<text style="fill:#000000; fill-opacity:1; font-family:Arial,Helvetica Neue,Helvetica,sans-serif; font-size:48px; text-anchor:start;" transform="rotate(0, 1685.62, 1143.66)" x="1685.62" y="1143.66">90% non-rejection region</text>
</g>
<polygon clip-path="url(#clip0000)" points="
1517.62,1210.83 1661.62,1210.83 1661.62,1162.44 1517.62,1162.44 1517.62,1210.83 
  " fill="#ffa500" fill-rule="evenodd" fill-opacity="0.5"/>
<polyline clip-path="url(#clip0000)" style="stroke:#ffa500; stroke-width:4; stroke-opacity:1; fill:none" points="
  1517.62,1162.44 1661.62,1162.44 
  "/>
<g clip-path="url(#clip0000)">
<text style="fill:#000000; fill-opacity:1; font-family:Arial,Helvetica Neue,Helvetica,sans-serif; font-size:48px; text-anchor:start;" transform="rotate(0, 1685.62, 1204.14)" x="1685.62" y="1204.14">q95</text>
</g>
<polyline clip-path="url(#clip0000)" style="stroke:#0000ff; stroke-width:4; stroke-opacity:1; fill:none" points="
  1517.62,1247.12 1661.62,1247.12 
  "/>
<g clip-path="url(#clip0000)">
<text style="fill:#000000; fill-opacity:1; font-family:Arial,Helvetica Neue,Helvetica,sans-serif; font-size:48px; text-anchor:start;" transform="rotate(0, 1685.62, 1264.62)" x="1685.62" y="1264.62">mean</text>
</g>
<polyline clip-path="url(#clip0000)" style="stroke:#000000; stroke-width:4; stroke-opacity:1; fill:none" points="
  1517.62,1307.6 1661.62,1307.6 
  "/>
<g clip-path="url(#clip0000)">
<text style="fill:#000000; fill-opacity:1; font-family:Arial,Helvetica Neue,Helvetica,sans-serif; font-size:48px; text-anchor:start;" transform="rotate(0, 1685.62, 1325.1)" x="1685.62" y="1325.1">median</text>
</g>
</svg>
