<?xml version="1.0" encoding="utf-8"?>
<svg xmlns="http://www.w3.org/2000/svg" xmlns:xlink="http://www.w3.org/1999/xlink" width="600" height="400" viewBox="0 0 2400 1600">
<defs>
  <clipPath id="clip2500">
    <rect x="0" y="0" width="2400" height="1600"/>
  </clipPath>
</defs>
<polygon clip-path="url(#clip2500)" points="
0,1600 2400,1600 2400,0 0,0 
  " fill="#ffffff" fill-rule="evenodd" fill-opacity="1"/>
<defs>
  <clipPath id="clip2501">
    <rect x="480" y="0" width="1681" height="1600"/>
  </clipPath>
</defs>
<polygon clip-path="url(#clip2500)" points="
207.423,1425.62 2352.76,1425.62 2352.76,47.2441 207.423,47.2441 
  " fill="#ffffff" fill-rule="evenodd" fill-opacity="1"/>
<defs>
  <clipPath id="clip2502">
    <rect x="207" y="47" width="2146" height="1379"/>
  </clipPath>
</defs>
<polyline clip-path="url(#clip2502)" style="stroke:#000000; stroke-width:2; stroke-opacity:0.1; fill:none" points="
  268.14,1425.62 268.14,47.2441 
  "/>
<polyline clip-path="url(#clip2502)" style="stroke:#000000; stroke-width:2; stroke-opacity:0.1; fill:none" points="
  672.919,1425.62 672.919,47.2441 
  "/>
<polyline clip-path="url(#clip2502)" style="stroke:#000000; stroke-width:2; stroke-opacity:0.1; fill:none" points="
  1077.7,1425.62 1077.7,47.2441 
  "/>
<polyline clip-path="url(#clip2502)" style="stroke:#000000; stroke-width:2; stroke-opacity:0.1; fill:none" points="
  1482.48,1425.62 1482.48,47.2441 
  "/>
<polyline clip-path="url(#clip2502)" style="stroke:#000000; stroke-width:2; stroke-opacity:0.1; fill:none" points="
  1887.26,1425.62 1887.26,47.2441 
  "/>
<polyline clip-path="url(#clip2502)" style="stroke:#000000; stroke-width:2; stroke-opacity:0.1; fill:none" points="
  2292.04,1425.62 2292.04,47.2441 
  "/>
<polyline clip-path="url(#clip2502)" style="stroke:#000000; stroke-width:2; stroke-opacity:0.1; fill:none" points="
  207.423,1215.02 2352.76,1215.02 
  "/>
<polyline clip-path="url(#clip2502)" style="stroke:#000000; stroke-width:2; stroke-opacity:0.1; fill:none" points="
  207.423,927.131 2352.76,927.131 
  "/>
<polyline clip-path="url(#clip2502)" style="stroke:#000000; stroke-width:2; stroke-opacity:0.1; fill:none" points="
  207.423,639.242 2352.76,639.242 
  "/>
<polyline clip-path="url(#clip2502)" style="stroke:#000000; stroke-width:2; stroke-opacity:0.1; fill:none" points="
  207.423,351.352 2352.76,351.352 
  "/>
<polyline clip-path="url(#clip2502)" style="stroke:#000000; stroke-width:2; stroke-opacity:0.1; fill:none" points="
  207.423,63.4626 2352.76,63.4626 
  "/>
<polyline clip-path="url(#clip2500)" style="stroke:#000000; stroke-width:4; stroke-opacity:1; fill:none" points="
  207.423,1425.62 2352.76,1425.62 
  "/>
<polyline clip-path="url(#clip2500)" style="stroke:#000000; stroke-width:4; stroke-opacity:1; fill:none" points="
  207.423,1425.62 207.423,47.2441 
  "/>
<polyline clip-path="url(#clip2500)" style="stroke:#000000; stroke-width:4; stroke-opacity:1; fill:none" points="
  268.14,1425.62 268.14,1404.94 
  "/>
<polyline clip-path="url(#clip2500)" style="stroke:#000000; stroke-width:4; stroke-opacity:1; fill:none" points="
  672.919,1425.62 672.919,1404.94 
  "/>
<polyline clip-path="url(#clip2500)" style="stroke:#000000; stroke-width:4; stroke-opacity:1; fill:none" points="
  1077.7,1425.62 1077.7,1404.94 
  "/>
<polyline clip-path="url(#clip2500)" style="stroke:#000000; stroke-width:4; stroke-opacity:1; fill:none" points="
  1482.48,1425.62 1482.48,1404.94 
  "/>
<polyline clip-path="url(#clip2500)" style="stroke:#000000; stroke-width:4; stroke-opacity:1; fill:none" points="
  1887.26,1425.62 1887.26,1404.94 
  "/>
<polyline clip-path="url(#clip2500)" style="stroke:#000000; stroke-width:4; stroke-opacity:1; fill:none" points="
  2292.04,1425.62 2292.04,1404.94 
  "/>
<polyline clip-path="url(#clip2500)" style="stroke:#000000; stroke-width:4; stroke-opacity:1; fill:none" points="
  207.423,1215.02 239.603,1215.02 
  "/>
<polyline clip-path="url(#clip2500)" style="stroke:#000000; stroke-width:4; stroke-opacity:1; fill:none" points="
  207.423,927.131 239.603,927.131 
  "/>
<polyline clip-path="url(#clip2500)" style="stroke:#000000; stroke-width:4; stroke-opacity:1; fill:none" points="
  207.423,639.242 239.603,639.242 
  "/>
<polyline clip-path="url(#clip2500)" style="stroke:#000000; stroke-width:4; stroke-opacity:1; fill:none" points="
  207.423,351.352 239.603,351.352 
  "/>
<polyline clip-path="url(#clip2500)" style="stroke:#000000; stroke-width:4; stroke-opacity:1; fill:none" points="
  207.423,63.4626 239.603,63.4626 
  "/>
<g clip-path="url(#clip2500)">
<text style="fill:#000000; fill-opacity:1; font-family:Arial,Helvetica Neue,Helvetica,sans-serif; font-size:48px; text-anchor:middle;" transform="rotate(0, 268.14, 1479.62)" x="268.14" y="1479.62">-1</text>
</g>
<g clip-path="url(#clip2500)">
<text style="fill:#000000; fill-opacity:1; font-family:Arial,Helvetica Neue,Helvetica,sans-serif; font-size:48px; text-anchor:middle;" transform="rotate(0, 672.919, 1479.62)" x="672.919" y="1479.62">0</text>
</g>
<g clip-path="url(#clip2500)">
<text style="fill:#000000; fill-opacity:1; font-family:Arial,Helvetica Neue,Helvetica,sans-serif; font-size:48px; text-anchor:middle;" transform="rotate(0, 1077.7, 1479.62)" x="1077.7" y="1479.62">1</text>
</g>
<g clip-path="url(#clip2500)">
<text style="fill:#000000; fill-opacity:1; font-family:Arial,Helvetica Neue,Helvetica,sans-serif; font-size:48px; text-anchor:middle;" transform="rotate(0, 1482.48, 1479.62)" x="1482.48" y="1479.62">2</text>
</g>
<g clip-path="url(#clip2500)">
<text style="fill:#000000; fill-opacity:1; font-family:Arial,Helvetica Neue,Helvetica,sans-serif; font-size:48px; text-anchor:middle;" transform="rotate(0, 1887.26, 1479.62)" x="1887.26" y="1479.62">3</text>
</g>
<g clip-path="url(#clip2500)">
<text style="fill:#000000; fill-opacity:1; font-family:Arial,Helvetica Neue,Helvetica,sans-serif; font-size:48px; text-anchor:middle;" transform="rotate(0, 2292.04, 1479.62)" x="2292.04" y="1479.62">4</text>
</g>
<g clip-path="url(#clip2500)">
<text style="fill:#000000; fill-opacity:1; font-family:Arial,Helvetica Neue,Helvetica,sans-serif; font-size:48px; text-anchor:end;" transform="rotate(0, 183.423, 1232.52)" x="183.423" y="1232.52">0.050</text>
</g>
<g clip-path="url(#clip2500)">
<text style="fill:#000000; fill-opacity:1; font-family:Arial,Helvetica Neue,Helvetica,sans-serif; font-size:48px; text-anchor:end;" transform="rotate(0, 183.423, 944.631)" x="183.423" y="944.631">0.075</text>
</g>
<g clip-path="url(#clip2500)">
<text style="fill:#000000; fill-opacity:1; font-family:Arial,Helvetica Neue,Helvetica,sans-serif; font-size:48px; text-anchor:end;" transform="rotate(0, 183.423, 656.742)" x="183.423" y="656.742">0.100</text>
</g>
<g clip-path="url(#clip2500)">
<text style="fill:#000000; fill-opacity:1; font-family:Arial,Helvetica Neue,Helvetica,sans-serif; font-size:48px; text-anchor:end;" transform="rotate(0, 183.423, 368.852)" x="183.423" y="368.852">0.125</text>
</g>
<g clip-path="url(#clip2500)">
<text style="fill:#000000; fill-opacity:1; font-family:Arial,Helvetica Neue,Helvetica,sans-serif; font-size:48px; text-anchor:end;" transform="rotate(0, 183.423, 80.9626)" x="183.423" y="80.9626">0.150</text>
</g>
<g clip-path="url(#clip2500)">
<text style="fill:#000000; fill-opacity:1; font-family:Arial,Helvetica Neue,Helvetica,sans-serif; font-size:66px; text-anchor:middle;" transform="rotate(0, 1280.09, 1559.48)" x="1280.09" y="1559.48">log-10 prior precision (k)</text>
</g>
<polyline clip-path="url(#clip2502)" style="stroke:#009af9; stroke-width:4; stroke-opacity:1; fill:none" points="
  268.14,255.479 672.919,220.793 1077.7,86.2547 1482.48,279.677 1887.26,782.529 2292.04,1386.61 
  "/>
<polyline clip-path="url(#clip2502)" style="stroke:#e26f46; stroke-width:4; stroke-opacity:1; fill:none" points="
  268.14,259.835 672.919,259.835 1077.7,259.835 1482.48,259.835 1887.26,259.835 2292.04,259.835 
  "/>
<polygon clip-path="url(#clip2500)" points="
1933.75,312.204 2280.76,312.204 2280.76,130.764 1933.75,130.764 
  " fill="#ffffff" fill-rule="evenodd" fill-opacity="1"/>
<polyline clip-path="url(#clip2500)" style="stroke:#000000; stroke-width:4; stroke-opacity:1; fill:none" points="
  1933.75,312.204 2280.76,312.204 2280.76,130.764 1933.75,130.764 1933.75,312.204 
  "/>
<polyline clip-path="url(#clip2500)" style="stroke:#009af9; stroke-width:4; stroke-opacity:1; fill:none" points="
  1957.75,191.244 2101.75,191.244 
  "/>
<g clip-path="url(#clip2500)">
<text style="fill:#000000; fill-opacity:1; font-family:Arial,Helvetica Neue,Helvetica,sans-serif; font-size:48px; text-anchor:start;" transform="rotate(0, 2125.75, 208.744)" x="2125.75" y="208.744">ridge</text>
</g>
<polyline clip-path="url(#clip2500)" style="stroke:#e26f46; stroke-width:4; stroke-opacity:1; fill:none" points="
  1957.75,251.724 2101.75,251.724 
  "/>
<g clip-path="url(#clip2500)">
<text style="fill:#000000; fill-opacity:1; font-family:Arial,Helvetica Neue,Helvetica,sans-serif; font-size:48px; text-anchor:start;" transform="rotate(0, 2125.75, 269.224)" x="2125.75" y="269.224">2sls</text>
</g>
</svg>
