<?xml version="1.0" encoding="utf-8"?>
<svg xmlns="http://www.w3.org/2000/svg" xmlns:xlink="http://www.w3.org/1999/xlink" width="600" height="400" viewBox="0 0 2400 1600">
<defs>
  <clipPath id="clip2900">
    <rect x="0" y="0" width="2400" height="1600"/>
  </clipPath>
</defs>
<polygon clip-path="url(#clip2900)" points="
0,1600 2400,1600 2400,0 0,0 
  " fill="#ffffff" fill-rule="evenodd" fill-opacity="1"/>
<defs>
  <clipPath id="clip2901">
    <rect x="480" y="0" width="1681" height="1600"/>
  </clipPath>
</defs>
<polygon clip-path="url(#clip2900)" points="
180.66,1425.62 2352.76,1425.62 2352.76,47.2441 180.66,47.2441 
  " fill="#ffffff" fill-rule="evenodd" fill-opacity="1"/>
<defs>
  <clipPath id="clip2902">
    <rect x="180" y="47" width="2173" height="1379"/>
  </clipPath>
</defs>
<polyline clip-path="url(#clip2902)" style="stroke:#000000; stroke-width:2; stroke-opacity:0.1; fill:none" points="
  242.135,1425.62 242.135,47.2441 
  "/>
<polyline clip-path="url(#clip2902)" style="stroke:#000000; stroke-width:2; stroke-opacity:0.1; fill:none" points="
  651.964,1425.62 651.964,47.2441 
  "/>
<polyline clip-path="url(#clip2902)" style="stroke:#000000; stroke-width:2; stroke-opacity:0.1; fill:none" points="
  1061.79,1425.62 1061.79,47.2441 
  "/>
<polyline clip-path="url(#clip2902)" style="stroke:#000000; stroke-width:2; stroke-opacity:0.1; fill:none" points="
  1471.62,1425.62 1471.62,47.2441 
  "/>
<polyline clip-path="url(#clip2902)" style="stroke:#000000; stroke-width:2; stroke-opacity:0.1; fill:none" points="
  1881.45,1425.62 1881.45,47.2441 
  "/>
<polyline clip-path="url(#clip2902)" style="stroke:#000000; stroke-width:2; stroke-opacity:0.1; fill:none" points="
  2291.28,1425.62 2291.28,47.2441 
  "/>
<polyline clip-path="url(#clip2902)" style="stroke:#000000; stroke-width:2; stroke-opacity:0.1; fill:none" points="
  180.66,1203.62 2352.76,1203.62 
  "/>
<polyline clip-path="url(#clip2902)" style="stroke:#000000; stroke-width:2; stroke-opacity:0.1; fill:none" points="
  180.66,929.144 2352.76,929.144 
  "/>
<polyline clip-path="url(#clip2902)" style="stroke:#000000; stroke-width:2; stroke-opacity:0.1; fill:none" points="
  180.66,654.665 2352.76,654.665 
  "/>
<polyline clip-path="url(#clip2902)" style="stroke:#000000; stroke-width:2; stroke-opacity:0.1; fill:none" points="
  180.66,380.186 2352.76,380.186 
  "/>
<polyline clip-path="url(#clip2902)" style="stroke:#000000; stroke-width:2; stroke-opacity:0.1; fill:none" points="
  180.66,105.708 2352.76,105.708 
  "/>
<polyline clip-path="url(#clip2900)" style="stroke:#000000; stroke-width:4; stroke-opacity:1; fill:none" points="
  180.66,1425.62 2352.76,1425.62 
  "/>
<polyline clip-path="url(#clip2900)" style="stroke:#000000; stroke-width:4; stroke-opacity:1; fill:none" points="
  180.66,1425.62 180.66,47.2441 
  "/>
<polyline clip-path="url(#clip2900)" style="stroke:#000000; stroke-width:4; stroke-opacity:1; fill:none" points="
  242.135,1425.62 242.135,1404.94 
  "/>
<polyline clip-path="url(#clip2900)" style="stroke:#000000; stroke-width:4; stroke-opacity:1; fill:none" points="
  651.964,1425.62 651.964,1404.94 
  "/>
<polyline clip-path="url(#clip2900)" style="stroke:#000000; stroke-width:4; stroke-opacity:1; fill:none" points="
  1061.79,1425.62 1061.79,1404.94 
  "/>
<polyline clip-path="url(#clip2900)" style="stroke:#000000; stroke-width:4; stroke-opacity:1; fill:none" points="
  1471.62,1425.62 1471.62,1404.94 
  "/>
<polyline clip-path="url(#clip2900)" style="stroke:#000000; stroke-width:4; stroke-opacity:1; fill:none" points="
  1881.45,1425.62 1881.45,1404.94 
  "/>
<polyline clip-path="url(#clip2900)" style="stroke:#000000; stroke-width:4; stroke-opacity:1; fill:none" points="
  2291.28,1425.62 2291.28,1404.94 
  "/>
<polyline clip-path="url(#clip2900)" style="stroke:#000000; stroke-width:4; stroke-opacity:1; fill:none" points="
  180.66,1203.62 213.242,1203.62 
  "/>
<polyline clip-path="url(#clip2900)" style="stroke:#000000; stroke-width:4; stroke-opacity:1; fill:none" points="
  180.66,929.144 213.242,929.144 
  "/>
<polyline clip-path="url(#clip2900)" style="stroke:#000000; stroke-width:4; stroke-opacity:1; fill:none" points="
  180.66,654.665 213.242,654.665 
  "/>
<polyline clip-path="url(#clip2900)" style="stroke:#000000; stroke-width:4; stroke-opacity:1; fill:none" points="
  180.66,380.186 213.242,380.186 
  "/>
<polyline clip-path="url(#clip2900)" style="stroke:#000000; stroke-width:4; stroke-opacity:1; fill:none" points="
  180.66,105.708 213.242,105.708 
  "/>
<g clip-path="url(#clip2900)">
<text style="fill:#000000; fill-opacity:1; font-family:Arial,Helvetica Neue,Helvetica,sans-serif; font-size:48px; text-anchor:middle;" transform="rotate(0, 242.135, 1479.62)" x="242.135" y="1479.62">-1</text>
</g>
<g clip-path="url(#clip2900)">
<text style="fill:#000000; fill-opacity:1; font-family:Arial,Helvetica Neue,Helvetica,sans-serif; font-size:48px; text-anchor:middle;" transform="rotate(0, 651.964, 1479.62)" x="651.964" y="1479.62">0</text>
</g>
<g clip-path="url(#clip2900)">
<text style="fill:#000000; fill-opacity:1; font-family:Arial,Helvetica Neue,Helvetica,sans-serif; font-size:48px; text-anchor:middle;" transform="rotate(0, 1061.79, 1479.62)" x="1061.79" y="1479.62">1</text>
</g>
<g clip-path="url(#clip2900)">
<text style="fill:#000000; fill-opacity:1; font-family:Arial,Helvetica Neue,Helvetica,sans-serif; font-size:48px; text-anchor:middle;" transform="rotate(0, 1471.62, 1479.62)" x="1471.62" y="1479.62">2</text>
</g>
<g clip-path="url(#clip2900)">
<text style="fill:#000000; fill-opacity:1; font-family:Arial,Helvetica Neue,Helvetica,sans-serif; font-size:48px; text-anchor:middle;" transform="rotate(0, 1881.45, 1479.62)" x="1881.45" y="1479.62">3</text>
</g>
<g clip-path="url(#clip2900)">
<text style="fill:#000000; fill-opacity:1; font-family:Arial,Helvetica Neue,Helvetica,sans-serif; font-size:48px; text-anchor:middle;" transform="rotate(0, 2291.28, 1479.62)" x="2291.28" y="1479.62">4</text>
</g>
<g clip-path="url(#clip2900)">
<text style="fill:#000000; fill-opacity:1; font-family:Arial,Helvetica Neue,Helvetica,sans-serif; font-size:48px; text-anchor:end;" transform="rotate(0, 156.66, 1221.12)" x="156.66" y="1221.12">1.02</text>
</g>
<g clip-path="url(#clip2900)">
<text style="fill:#000000; fill-opacity:1; font-family:Arial,Helvetica Neue,Helvetica,sans-serif; font-size:48px; text-anchor:end;" transform="rotate(0, 156.66, 946.644)" x="156.66" y="946.644">1.05</text>
</g>
<g clip-path="url(#clip2900)">
<text style="fill:#000000; fill-opacity:1; font-family:Arial,Helvetica Neue,Helvetica,sans-serif; font-size:48px; text-anchor:end;" transform="rotate(0, 156.66, 672.165)" x="156.66" y="672.165">1.08</text>
</g>
<g clip-path="url(#clip2900)">
<text style="fill:#000000; fill-opacity:1; font-family:Arial,Helvetica Neue,Helvetica,sans-serif; font-size:48px; text-anchor:end;" transform="rotate(0, 156.66, 397.686)" x="156.66" y="397.686">1.11</text>
</g>
<g clip-path="url(#clip2900)">
<text style="fill:#000000; fill-opacity:1; font-family:Arial,Helvetica Neue,Helvetica,sans-serif; font-size:48px; text-anchor:end;" transform="rotate(0, 156.66, 123.208)" x="156.66" y="123.208">1.14</text>
</g>
<g clip-path="url(#clip2900)">
<text style="fill:#000000; fill-opacity:1; font-family:Arial,Helvetica Neue,Helvetica,sans-serif; font-size:66px; text-anchor:middle;" transform="rotate(0, 1266.71, 1559.48)" x="1266.71" y="1559.48">log-10 prior precision (k)</text>
</g>
<polyline clip-path="url(#clip2902)" style="stroke:#009af9; stroke-width:4; stroke-opacity:1; fill:none" points="
  242.135,1386.61 651.964,1386.57 1061.79,1385.47 1471.62,1376.7 1881.45,1280.58 2291.28,86.2547 
  "/>
</svg>
