<?xml version="1.0" encoding="utf-8"?>
<svg xmlns="http://www.w3.org/2000/svg" xmlns:xlink="http://www.w3.org/1999/xlink" width="600" height="400" viewBox="0 0 2400 1600">
<defs>
  <clipPath id="clip2100">
    <rect x="0" y="0" width="2400" height="1600"/>
  </clipPath>
</defs>
<polygon clip-path="url(#clip2100)" points="
0,1600 2400,1600 2400,0 0,0 
  " fill="#ffffff" fill-rule="evenodd" fill-opacity="1"/>
<defs>
  <clipPath id="clip2101">
    <rect x="480" y="0" width="1681" height="1600"/>
  </clipPath>
</defs>
<polygon clip-path="url(#clip2100)" points="
182.008,1425.62 2352.76,1425.62 2352.76,47.2441 182.008,47.2441 
  " fill="#ffffff" fill-rule="evenodd" fill-opacity="1"/>
<defs>
  <clipPath id="clip2102">
    <rect x="182" y="47" width="2172" height="1379"/>
  </clipPath>
</defs>
<polyline clip-path="url(#clip2102)" style="stroke:#000000; stroke-width:2; stroke-opacity:0.1; fill:none" points="
  243.444,1425.62 243.444,47.2441 
  "/>
<polyline clip-path="url(#clip2102)" style="stroke:#000000; stroke-width:2; stroke-opacity:0.1; fill:none" points="
  653.019,1425.62 653.019,47.2441 
  "/>
<polyline clip-path="url(#clip2102)" style="stroke:#000000; stroke-width:2; stroke-opacity:0.1; fill:none" points="
  1062.59,1425.62 1062.59,47.2441 
  "/>
<polyline clip-path="url(#clip2102)" style="stroke:#000000; stroke-width:2; stroke-opacity:0.1; fill:none" points="
  1472.17,1425.62 1472.17,47.2441 
  "/>
<polyline clip-path="url(#clip2102)" style="stroke:#000000; stroke-width:2; stroke-opacity:0.1; fill:none" points="
  1881.74,1425.62 1881.74,47.2441 
  "/>
<polyline clip-path="url(#clip2102)" style="stroke:#000000; stroke-width:2; stroke-opacity:0.1; fill:none" points="
  2291.32,1425.62 2291.32,47.2441 
  "/>
<polyline clip-path="url(#clip2102)" style="stroke:#000000; stroke-width:2; stroke-opacity:0.1; fill:none" points="
  182.008,1142.1 2352.76,1142.1 
  "/>
<polyline clip-path="url(#clip2102)" style="stroke:#000000; stroke-width:2; stroke-opacity:0.1; fill:none" points="
  182.008,833.832 2352.76,833.832 
  "/>
<polyline clip-path="url(#clip2102)" style="stroke:#000000; stroke-width:2; stroke-opacity:0.1; fill:none" points="
  182.008,525.563 2352.76,525.563 
  "/>
<polyline clip-path="url(#clip2102)" style="stroke:#000000; stroke-width:2; stroke-opacity:0.1; fill:none" points="
  182.008,217.294 2352.76,217.294 
  "/>
<polyline clip-path="url(#clip2100)" style="stroke:#000000; stroke-width:4; stroke-opacity:1; fill:none" points="
  182.008,1425.62 2352.76,1425.62 
  "/>
<polyline clip-path="url(#clip2100)" style="stroke:#000000; stroke-width:4; stroke-opacity:1; fill:none" points="
  182.008,1425.62 182.008,47.2441 
  "/>
<polyline clip-path="url(#clip2100)" style="stroke:#000000; stroke-width:4; stroke-opacity:1; fill:none" points="
  243.444,1425.62 243.444,1404.94 
  "/>
<polyline clip-path="url(#clip2100)" style="stroke:#000000; stroke-width:4; stroke-opacity:1; fill:none" points="
  653.019,1425.62 653.019,1404.94 
  "/>
<polyline clip-path="url(#clip2100)" style="stroke:#000000; stroke-width:4; stroke-opacity:1; fill:none" points="
  1062.59,1425.62 1062.59,1404.94 
  "/>
<polyline clip-path="url(#clip2100)" style="stroke:#000000; stroke-width:4; stroke-opacity:1; fill:none" points="
  1472.17,1425.62 1472.17,1404.94 
  "/>
<polyline clip-path="url(#clip2100)" style="stroke:#000000; stroke-width:4; stroke-opacity:1; fill:none" points="
  1881.74,1425.62 1881.74,1404.94 
  "/>
<polyline clip-path="url(#clip2100)" style="stroke:#000000; stroke-width:4; stroke-opacity:1; fill:none" points="
  2291.32,1425.62 2291.32,1404.94 
  "/>
<polyline clip-path="url(#clip2100)" style="stroke:#000000; stroke-width:4; stroke-opacity:1; fill:none" points="
  182.008,1142.1 214.569,1142.1 
  "/>
<polyline clip-path="url(#clip2100)" style="stroke:#000000; stroke-width:4; stroke-opacity:1; fill:none" points="
  182.008,833.832 214.569,833.832 
  "/>
<polyline clip-path="url(#clip2100)" style="stroke:#000000; stroke-width:4; stroke-opacity:1; fill:none" points="
  182.008,525.563 214.569,525.563 
  "/>
<polyline clip-path="url(#clip2100)" style="stroke:#000000; stroke-width:4; stroke-opacity:1; fill:none" points="
  182.008,217.294 214.569,217.294 
  "/>
<g clip-path="url(#clip2100)">
<text style="fill:#000000; fill-opacity:1; font-family:Arial,Helvetica Neue,Helvetica,sans-serif; font-size:48px; text-anchor:middle;" transform="rotate(0, 243.444, 1479.62)" x="243.444" y="1479.62">-1</text>
</g>
<g clip-path="url(#clip2100)">
<text style="fill:#000000; fill-opacity:1; font-family:Arial,Helvetica Neue,Helvetica,sans-serif; font-size:48px; text-anchor:middle;" transform="rotate(0, 653.019, 1479.62)" x="653.019" y="1479.62">0</text>
</g>
<g clip-path="url(#clip2100)">
<text style="fill:#000000; fill-opacity:1; font-family:Arial,Helvetica Neue,Helvetica,sans-serif; font-size:48px; text-anchor:middle;" transform="rotate(0, 1062.59, 1479.62)" x="1062.59" y="1479.62">1</text>
</g>
<g clip-path="url(#clip2100)">
<text style="fill:#000000; fill-opacity:1; font-family:Arial,Helvetica Neue,Helvetica,sans-serif; font-size:48px; text-anchor:middle;" transform="rotate(0, 1472.17, 1479.62)" x="1472.17" y="1479.62">2</text>
</g>
<g clip-path="url(#clip2100)">
<text style="fill:#000000; fill-opacity:1; font-family:Arial,Helvetica Neue,Helvetica,sans-serif; font-size:48px; text-anchor:middle;" transform="rotate(0, 1881.74, 1479.62)" x="1881.74" y="1479.62">3</text>
</g>
<g clip-path="url(#clip2100)">
<text style="fill:#000000; fill-opacity:1; font-family:Arial,Helvetica Neue,Helvetica,sans-serif; font-size:48px; text-anchor:middle;" transform="rotate(0, 2291.32, 1479.62)" x="2291.32" y="1479.62">4</text>
</g>
<g clip-path="url(#clip2100)">
<text style="fill:#000000; fill-opacity:1; font-family:Arial,Helvetica Neue,Helvetica,sans-serif; font-size:48px; text-anchor:end;" transform="rotate(0, 158.008, 1159.6)" x="158.008" y="1159.6">-0.5</text>
</g>
<g clip-path="url(#clip2100)">
<text style="fill:#000000; fill-opacity:1; font-family:Arial,Helvetica Neue,Helvetica,sans-serif; font-size:48px; text-anchor:end;" transform="rotate(0, 158.008, 851.332)" x="158.008" y="851.332">0.0</text>
</g>
<g clip-path="url(#clip2100)">
<text style="fill:#000000; fill-opacity:1; font-family:Arial,Helvetica Neue,Helvetica,sans-serif; font-size:48px; text-anchor:end;" transform="rotate(0, 158.008, 543.063)" x="158.008" y="543.063">0.5</text>
</g>
<g clip-path="url(#clip2100)">
<text style="fill:#000000; fill-opacity:1; font-family:Arial,Helvetica Neue,Helvetica,sans-serif; font-size:48px; text-anchor:end;" transform="rotate(0, 158.008, 234.794)" x="158.008" y="234.794">1.0</text>
</g>
<g clip-path="url(#clip2100)">
<text style="fill:#000000; fill-opacity:1; font-family:Arial,Helvetica Neue,Helvetica,sans-serif; font-size:66px; text-anchor:middle;" transform="rotate(0, 1267.38, 1559.48)" x="1267.38" y="1559.48">log-10 prior precision (k)</text>
</g>
<polyline clip-path="url(#clip2102)" style="stroke:#009af9; stroke-width:4; stroke-opacity:1; fill:none" points="
  243.444,215.539 653.019,201.571 1062.59,147.391 1472.17,225.284 1881.74,427.789 2291.32,671.059 
  "/>
<polyline clip-path="url(#clip2102)" style="stroke:#e26f46; stroke-width:4; stroke-opacity:1; fill:none" points="
  243.444,220.492 653.019,246.571 1062.59,377.686 1472.17,540.448 1881.74,646.557 2291.32,774.497 
  "/>
<polyline clip-path="url(#clip2102)" style="stroke:#3da44d; stroke-width:4; stroke-opacity:1; fill:none" points="
  243.444,228.818 653.019,322.684 1062.59,789.989 1472.17,1314.75 1881.74,1386.61 2291.32,1024.77 
  "/>
<polyline clip-path="url(#clip2102)" style="stroke:#c271d2; stroke-width:4; stroke-opacity:1; fill:none" points="
  243.444,220.668 653.019,247.573 1062.59,353.553 1472.17,232.306 1881.74,86.2547 2291.32,485.703 
  "/>
<polyline clip-path="url(#clip2102)" style="stroke:#ac8d18; stroke-width:4; stroke-opacity:1; fill:none" points="
  243.444,219.24 653.019,234.741 1062.59,295.115 1472.17,222.67 1881.74,198.747 2291.32,579.073 
  "/>
<polyline clip-path="url(#clip2102)" style="stroke:#00a9ad; stroke-width:4; stroke-opacity:1; fill:none" points="
  243.444,218.324 653.019,226.514 1062.59,257.72 1472.17,212.028 1881.74,196.559 2291.32,538.471 
  "/>
<polygon clip-path="url(#clip2100)" points="
1808.03,554.124 2280.76,554.124 2280.76,130.764 1808.03,130.764 
  " fill="#ffffff" fill-rule="evenodd" fill-opacity="1"/>
<polyline clip-path="url(#clip2100)" style="stroke:#000000; stroke-width:4; stroke-opacity:1; fill:none" points="
  1808.03,554.124 2280.76,554.124 2280.76,130.764 1808.03,130.764 1808.03,554.124 
  "/>
<polyline clip-path="url(#clip2100)" style="stroke:#009af9; stroke-width:4; stroke-opacity:1; fill:none" points="
  1832.03,191.244 1976.03,191.244 
  "/>
<g clip-path="url(#clip2100)">
<text style="fill:#000000; fill-opacity:1; font-family:Arial,Helvetica Neue,Helvetica,sans-serif; font-size:48px; text-anchor:start;" transform="rotate(0, 2000.03, 208.744)" x="2000.03" y="208.744">EDUC</text>
</g>
<polyline clip-path="url(#clip2100)" style="stroke:#e26f46; stroke-width:4; stroke-opacity:1; fill:none" points="
  1832.03,251.724 1976.03,251.724 
  "/>
<g clip-path="url(#clip2100)">
<text style="fill:#000000; fill-opacity:1; font-family:Arial,Helvetica Neue,Helvetica,sans-serif; font-size:48px; text-anchor:start;" transform="rotate(0, 2000.03, 269.224)" x="2000.03" y="269.224">EXPER</text>
</g>
<polyline clip-path="url(#clip2100)" style="stroke:#3da44d; stroke-width:4; stroke-opacity:1; fill:none" points="
  1832.03,312.204 1976.03,312.204 
  "/>
<g clip-path="url(#clip2100)">
<text style="fill:#000000; fill-opacity:1; font-family:Arial,Helvetica Neue,Helvetica,sans-serif; font-size:48px; text-anchor:start;" transform="rotate(0, 2000.03, 329.704)" x="2000.03" y="329.704">EXPERSQ</text>
</g>
<polyline clip-path="url(#clip2100)" style="stroke:#c271d2; stroke-width:4; stroke-opacity:1; fill:none" points="
  1832.03,372.684 1976.03,372.684 
  "/>
<g clip-path="url(#clip2100)">
<text style="fill:#000000; fill-opacity:1; font-family:Arial,Helvetica Neue,Helvetica,sans-serif; font-size:48px; text-anchor:start;" transform="rotate(0, 2000.03, 390.184)" x="2000.03" y="390.184">BLACK</text>
</g>
<polyline clip-path="url(#clip2100)" style="stroke:#ac8d18; stroke-width:4; stroke-opacity:1; fill:none" points="
  1832.03,433.164 1976.03,433.164 
  "/>
<g clip-path="url(#clip2100)">
<text style="fill:#000000; fill-opacity:1; font-family:Arial,Helvetica Neue,Helvetica,sans-serif; font-size:48px; text-anchor:start;" transform="rotate(0, 2000.03, 450.664)" x="2000.03" y="450.664">SMSA</text>
</g>
<polyline clip-path="url(#clip2100)" style="stroke:#00a9ad; stroke-width:4; stroke-opacity:1; fill:none" points="
  1832.03,493.644 1976.03,493.644 
  "/>
<g clip-path="url(#clip2100)">
<text style="fill:#000000; fill-opacity:1; font-family:Arial,Helvetica Neue,Helvetica,sans-serif; font-size:48px; text-anchor:start;" transform="rotate(0, 2000.03, 511.144)" x="2000.03" y="511.144">SOUTH</text>
</g>
</svg>
